<?xml version="1.0" encoding="UTF-8"?><svg xmlns="http://www.w3.org/2000/svg" xmlns:xlink="http://www.w3.org/1999/xlink" viewBox="0 0 511.47 493.97"><defs><style>.h{fill:#9a97ff;}.i{filter:url(#f);}.i,.j{fill:#fffaf0;}.k{fill:#3c885c;}.j{filter:url(#d);}.l{fill:#cfe;stroke:#3c885c;stroke-miterlimit:10;stroke-width:8px;}.m{fill:#1d1d1b;}.n{fill:#a3f3db;opacity:.31;}</style><filter id="d" filterUnits="userSpaceOnUse"><feOffset dx="8" dy="10"/><feGaussianBlur result="e" stdDeviation="0"/><feFlood flood-color="#000" flood-opacity=".06"/><feComposite in2="e" operator="in"/><feComposite in="SourceGraphic"/></filter><filter id="f" filterUnits="userSpaceOnUse"><feOffset dx="8" dy="10"/><feGaussianBlur result="g" stdDeviation="0"/><feFlood flood-color="#000" flood-opacity=".06"/><feComposite in2="g" operator="in"/><feComposite in="SourceGraphic"/></filter></defs><g id="a"/><g id="b"><g id="c"><rect class="j" x="160.61" width="342.86" height="483.97" rx="56.26" ry="56.26"/><polygon class="i" points="0 238.52 142.46 436.2 142.46 40.84 0 238.52"/><path class="l" d="M417.28,162.31c0,21.07-7.06,40.49-18.95,56.02-16.86,22.02-43.42,36.22-73.3,36.22s-56.44-14.21-73.3-36.23c-11.89-15.53-18.96-34.95-18.96-56.02,0-50.95,41.3-92.25,92.25-92.25s92.25,41.3,92.25,92.25Z"/><circle class="k" cx="325.11" cy="127.24" r="36.44"/><path class="k" d="M398.33,218.34c-16.86,22.02-43.42,36.22-73.3,36.22s-56.44-14.21-73.3-36.23c12.64-27.87,40.7-47.25,73.3-47.25s60.66,19.38,73.3,47.25Z"/><g><path class="h" d="M271.62,440.12l-3.8-8.84c-.1-.23-.21-.49-.32-.77-.11-.28-.21-.53-.29-.75,.02,.18,.04,.42,.04,.71,.01,.3,.02,.57,.02,.81v8.6h-1.74v-14h1.64l4.08,9.42c.06,.15,.12,.3,.18,.46,.06,.16,.12,.32,.18,.48,.05-.15,.11-.31,.17-.47,.06-.16,.12-.31,.19-.47l4.06-9.42h1.66v14h-1.74v-8.6c0-.24,0-.51,.01-.82,.01-.3,.02-.54,.03-.72-.08,.23-.18,.49-.29,.78-.12,.29-.22,.56-.33,.8l-3.76,8.8Z"/><path class="h" d="M285.3,440.12c-.93,0-1.74-.23-2.42-.69-.68-.46-1.2-1.09-1.57-1.9-.37-.81-.55-1.73-.55-2.77,0-1.13,.19-2.09,.57-2.88s.91-1.41,1.59-1.83c.68-.42,1.47-.63,2.38-.63,.77,0,1.47,.17,2.11,.51,.64,.34,1.15,.87,1.54,1.59,.38,.72,.58,1.64,.58,2.76,0,.16,0,.34-.02,.55,0,.21-.02,.42-.04,.64h-6.92c.07,.62,.22,1.16,.46,1.63,.24,.47,.56,.83,.95,1.09s.86,.39,1.39,.39c.43,0,.83-.08,1.21-.23s.71-.39,1.04-.71l1.02,1.14c-.38,.38-.85,.7-1.42,.95-.56,.25-1.19,.38-1.89,.38Zm-2.78-6.16h5.24c0-.58-.09-1.1-.28-1.55-.19-.46-.47-.82-.83-1.08-.37-.26-.81-.39-1.34-.39-.74,0-1.38,.24-1.9,.72-.53,.48-.82,1.25-.88,2.3Z"/><path class="h" d="M300.46,440.12c-.88,0-1.64-.21-2.27-.65-.63-.43-1.12-1.04-1.46-1.84s-.51-1.75-.51-2.85,.17-2.07,.52-2.87,.84-1.42,1.49-1.85c.64-.43,1.42-.64,2.31-.64s1.63,.2,2.24,.61c.61,.41,1.06,1,1.34,1.77l-1.64,.6c-.17-.44-.42-.78-.75-1.01s-.72-.35-1.17-.35c-.83,0-1.46,.32-1.9,.96s-.66,1.57-.66,2.78,.22,2.1,.65,2.74c.43,.64,1.05,.96,1.85,.96,.51,0,.95-.13,1.32-.4s.62-.64,.76-1.12l1.62,.54c-.25,.84-.7,1.49-1.35,1.94-.65,.45-1.45,.68-2.39,.68Z"/><path class="h" d="M310.9,440.12c-1.4,0-2.5-.48-3.31-1.44-.81-.96-1.21-2.26-1.21-3.9,0-1.1,.18-2.05,.55-2.85,.37-.8,.89-1.42,1.56-1.85s1.48-.66,2.41-.66,1.74,.21,2.42,.64c.68,.43,1.2,1.05,1.56,1.85s.54,1.75,.54,2.85-.18,2.05-.55,2.86c-.37,.8-.89,1.42-1.56,1.85-.68,.43-1.48,.65-2.41,.65Zm0-1.62c.86,0,1.54-.33,2.03-1,.49-.66,.73-1.58,.73-2.75s-.25-2.09-.73-2.75c-.49-.66-1.17-.99-2.03-.99s-1.54,.33-2.03,.99-.73,1.58-.73,2.78,.24,2.08,.73,2.73c.49,.66,1.16,.99,2.03,.99Z"/><path class="h" d="M318.04,439.88v-10.22h1.74v1.04c.31-.43,.69-.75,1.13-.96,.44-.21,.94-.32,1.51-.32,1.24,0,2.16,.38,2.76,1.12,.6,.75,.9,1.9,.9,3.46v5.88h-1.74v-6.18c0-.86-.19-1.52-.58-1.99-.38-.46-.92-.7-1.62-.7-.78,0-1.37,.22-1.76,.67s-.59,1.1-.59,1.98v6.22h-1.74Z"/><path class="h" d="M329.56,439.88v-10.22h1.74v1.04c.31-.43,.69-.75,1.13-.96,.44-.21,.94-.32,1.51-.32,1.24,0,2.16,.38,2.76,1.12,.6,.75,.9,1.9,.9,3.46v5.88h-1.74v-6.18c0-.86-.19-1.52-.58-1.99-.38-.46-.92-.7-1.62-.7-.78,0-1.37,.22-1.76,.67s-.59,1.1-.59,1.98v6.22h-1.74Z"/><path class="h" d="M345.06,440.12c-.93,0-1.74-.23-2.42-.69-.68-.46-1.2-1.09-1.57-1.9-.37-.81-.55-1.73-.55-2.77,0-1.13,.19-2.09,.57-2.88s.91-1.41,1.59-1.83c.68-.42,1.47-.63,2.38-.63,.77,0,1.47,.17,2.11,.51,.64,.34,1.15,.87,1.54,1.59,.38,.72,.58,1.64,.58,2.76,0,.16,0,.34-.02,.55,0,.21-.02,.42-.04,.64h-6.92c.07,.62,.22,1.16,.46,1.63,.24,.47,.56,.83,.95,1.09s.86,.39,1.39,.39c.43,0,.83-.08,1.21-.23s.71-.39,1.04-.71l1.02,1.14c-.38,.38-.85,.7-1.42,.95-.56,.25-1.19,.38-1.89,.38Zm-2.78-6.16h5.24c0-.58-.09-1.1-.28-1.55-.19-.46-.47-.82-.83-1.08-.37-.26-.81-.39-1.34-.39-.74,0-1.38,.24-1.9,.72-.53,.48-.82,1.25-.88,2.3Z"/><path class="h" d="M355.88,440.12c-.88,0-1.64-.21-2.27-.65-.63-.43-1.12-1.04-1.46-1.84s-.51-1.75-.51-2.85,.17-2.07,.52-2.87,.84-1.42,1.49-1.85c.64-.43,1.42-.64,2.31-.64s1.63,.2,2.24,.61c.61,.41,1.06,1,1.34,1.77l-1.64,.6c-.17-.44-.42-.78-.75-1.01s-.72-.35-1.17-.35c-.83,0-1.46,.32-1.9,.96s-.66,1.57-.66,2.78,.22,2.1,.65,2.74c.43,.64,1.05,.96,1.85,.96,.51,0,.95-.13,1.32-.4s.62-.64,.76-1.12l1.62,.54c-.25,.84-.7,1.49-1.35,1.94-.65,.45-1.45,.68-2.39,.68Z"/><path class="h" d="M364.88,440.12c-.7,0-1.24-.21-1.61-.63-.37-.42-.55-1.02-.55-1.81v-6.5h-1.66v-1.52h1.66v-3.38l1.74-.84v4.22h2.52v1.52h-2.52v5.92c0,.49,.08,.84,.25,1.07s.44,.33,.8,.33c.47,0,.97-.18,1.52-.54l-.2,1.7c-.3,.16-.61,.28-.93,.35-.32,.07-.67,.11-1.03,.11Z"/><path class="h" d="M373.34,440.12c-.93,0-1.74-.23-2.42-.69-.68-.46-1.2-1.09-1.57-1.9-.37-.81-.55-1.73-.55-2.77,0-1.13,.19-2.09,.57-2.88s.91-1.41,1.59-1.83c.68-.42,1.47-.63,2.38-.63,.77,0,1.47,.17,2.11,.51,.64,.34,1.15,.87,1.54,1.59,.38,.72,.58,1.64,.58,2.76,0,.16,0,.34-.02,.55,0,.21-.02,.42-.04,.64h-6.92c.07,.62,.22,1.16,.46,1.63,.24,.47,.56,.83,.95,1.09s.86,.39,1.39,.39c.43,0,.83-.08,1.21-.23s.71-.39,1.04-.71l1.02,1.14c-.38,.38-.85,.7-1.42,.95-.56,.25-1.19,.38-1.89,.38Zm-2.78-6.16h5.24c0-.58-.09-1.1-.28-1.55-.19-.46-.47-.82-.83-1.08-.37-.26-.81-.39-1.34-.39-.74,0-1.38,.24-1.9,.72-.53,.48-.82,1.25-.88,2.3Z"/><path class="h" d="M380.36,439.88v-10.22h1.74v1.34c.23-.52,.55-.91,.96-1.18s.89-.4,1.46-.4c.62,0,1.15,.17,1.58,.52l-.26,1.64c-.22-.15-.45-.27-.68-.33-.24-.07-.5-.11-.78-.11-.46,0-.86,.12-1.2,.37-.34,.25-.61,.59-.8,1.04-.19,.45-.28,.97-.28,1.57v5.76h-1.74Z"/></g><g><rect class="n" x="203.92" y="277.66" width="236.2" height="49.86" rx="24.93" ry="24.93"/><rect class="n" x="204.06" y="344.25" width="236.2" height="49.86" rx="24.93" ry="24.93"/><g><path class="m" d="M281.92,310.07l-3.8-8.84c-.1-.23-.21-.49-.32-.77-.11-.28-.21-.53-.29-.75,.02,.18,.04,.42,.04,.71,.01,.3,.02,.57,.02,.81v8.6h-1.74v-14h1.64l4.08,9.42c.06,.15,.12,.3,.18,.46,.06,.16,.12,.32,.18,.48,.05-.15,.11-.31,.17-.47,.06-.16,.12-.31,.19-.47l4.06-9.42h1.66v14h-1.74v-8.6c0-.24,0-.51,.01-.82,.01-.3,.02-.54,.03-.72-.08,.23-.18,.49-.29,.78-.12,.29-.22,.56-.33,.8l-3.76,8.8Z"/><path class="m" d="M297.18,310.07c-1.1,0-2.03-.21-2.79-.63-.76-.42-1.37-.99-1.83-1.69s-.79-1.48-1-2.33-.31-1.71-.31-2.58,.1-1.73,.31-2.58,.54-1.63,1-2.33,1.07-1.27,1.83-1.69c.76-.42,1.69-.63,2.79-.63s2.04,.21,2.8,.63c.76,.42,1.37,.99,1.83,1.69s.79,1.48,1,2.33c.21,.85,.31,1.71,.31,2.58s-.1,1.73-.31,2.58c-.21,.85-.54,1.63-1,2.33s-1.07,1.27-1.83,1.69c-.76,.42-1.69,.63-2.8,.63Zm0-1.64c.77,0,1.42-.17,1.95-.51s.95-.79,1.28-1.34c.32-.56,.56-1.16,.7-1.82,.14-.66,.22-1.3,.22-1.92,0-.69-.07-1.36-.22-2.03-.14-.66-.38-1.27-.7-1.81-.32-.54-.75-.98-1.28-1.3s-1.18-.49-1.95-.49-1.41,.17-1.94,.51c-.53,.34-.95,.79-1.28,1.35s-.56,1.17-.71,1.82c-.15,.66-.22,1.31-.22,1.94,0,.69,.07,1.36,.22,2.03,.15,.66,.38,1.26,.71,1.8s.75,.97,1.28,1.29c.53,.32,1.17,.48,1.94,.48Z"/><path class="m" d="M306.35,309.83v-14h1.76l6.2,9.96c.1,.17,.2,.33,.29,.5s.19,.35,.29,.54c0-.17-.01-.35-.03-.52,0-.17-.01-.34-.01-.5v-9.98h1.74v14h-1.68l-6.3-10c-.09-.15-.18-.31-.27-.48-.1-.17-.19-.33-.29-.5,.01,.15,.02,.31,.03,.48,0,.17,0,.34,0,.5v10h-1.74Z"/><path class="m" d="M325.21,309.83v-14h1.76l6.2,9.96c.1,.17,.2,.33,.29,.5s.19,.35,.29,.54c0-.17-.01-.35-.03-.52,0-.17-.01-.34-.01-.5v-9.98h1.74v14h-1.68l-6.3-10c-.09-.15-.18-.31-.27-.48-.1-.17-.19-.33-.29-.5,.01,.15,.02,.31,.03,.48,0,.17,0,.34,0,.5v10h-1.74Z"/><path class="m" d="M344.63,310.07c-1.1,0-2.03-.21-2.79-.63-.76-.42-1.37-.99-1.83-1.69s-.79-1.48-1-2.33-.31-1.71-.31-2.58,.1-1.73,.31-2.58,.54-1.63,1-2.33,1.07-1.27,1.83-1.69c.76-.42,1.69-.63,2.79-.63s2.04,.21,2.8,.63c.76,.42,1.37,.99,1.83,1.69s.79,1.48,1,2.33c.21,.85,.31,1.71,.31,2.58s-.1,1.73-.31,2.58c-.21,.85-.54,1.63-1,2.33s-1.07,1.27-1.83,1.69c-.76,.42-1.69,.63-2.8,.63Zm0-1.64c.77,0,1.42-.17,1.95-.51s.95-.79,1.28-1.34c.32-.56,.56-1.16,.7-1.82,.14-.66,.22-1.3,.22-1.92,0-.69-.07-1.36-.22-2.03-.14-.66-.38-1.27-.7-1.81-.32-.54-.75-.98-1.28-1.3s-1.18-.49-1.95-.49-1.41,.17-1.94,.51c-.53,.34-.95,.79-1.28,1.35s-.56,1.17-.71,1.82c-.15,.66-.22,1.31-.22,1.94,0,.69,.07,1.36,.22,2.03,.15,.66,.38,1.26,.71,1.8s.75,.97,1.28,1.29c.53,.32,1.17,.48,1.94,.48Z"/><path class="m" d="M359.88,310.07l-3.8-8.84c-.1-.23-.21-.49-.32-.77-.11-.28-.21-.53-.29-.75,.02,.18,.04,.42,.04,.71,.01,.3,.02,.57,.02,.81v8.6h-1.74v-14h1.64l4.08,9.42c.06,.15,.12,.3,.18,.46,.06,.16,.12,.32,.18,.48,.05-.15,.11-.31,.17-.47,.06-.16,.12-.31,.19-.47l4.06-9.42h1.66v14h-1.74v-8.6c0-.24,0-.51,.01-.82,.01-.3,.02-.54,.03-.72-.08,.23-.18,.49-.29,.78-.12,.29-.22,.56-.33,.8l-3.76,8.8Z"/></g><g><circle class="m" cx="268.62" cy="369.18" r="7.82"/><circle class="m" cx="290.2" cy="369.18" r="7.82"/><circle class="m" cx="313.38" cy="369.18" r="7.82"/><circle class="m" cx="336.68" cy="369.18" r="7.82"/><circle class="m" cx="358.26" cy="369.18" r="7.82"/><circle class="m" cx="381.44" cy="369.18" r="7.82"/></g></g></g></g></svg>