<?xml version="1.0" encoding="UTF-8"?><svg xmlns="http://www.w3.org/2000/svg" viewBox="0 0 497.79 356.59"><g id="a"/><g id="b"><g id="c"><g><path d="M279.41,6.21c.82,9.78-1.43,15.84-6.48,24.02,2.07,2.04,5.46,3.44,7.93,4.28,8.92-17.6-1.77-34.17-2.44-34.51,.51,2.04,.84,4.11,.99,6.21Z" style="fill:#55b57e;"/><path d="M233.42,28.29c5.39,1.22,10.24,4.13,15.13,6.56,2.24,1.13,6.65,2.92,8.34,3.63,.65,.28,1.36,.38,2.07,.31,.86-.12,1.66-.47,2.33-1.02,11.6-8.79,16.58-17.23,17.18-31.55,.09-1.75,.09-3.51,0-5.27,0,4.77-2.44,26.96-30.01,20.59-12.53-2.89-24.13,4.23-29.18,9.03,4.18-2.74,9.32-3.57,14.15-2.29Z" style="fill:#55b57e;"/><path d="M271.72,32.07c-2.55,3.72-5.68,7-9.26,9.73-1.7,1.32-3.97,1.62-5.95,.79-.53-.24-3.14-1.55-3.71-1.83-1.9-.97-3.93-2.04-5.9-3.11-2.8,7.44-8.61,16.89-11.74,20.82,21.03,3.75,37.85-10.57,44.79-22.35-2.52-.86-5.94-1.96-8.22-4.05Z" style="fill:#55b57e;"/><path d="M244.7,36.45l-.52-.29c-2.74-1.63-5.57-3.1-8.47-4.4-7.4-3.24-14.25-2.35-19.8,2.63-2.63,3.5-4.36,7.61-5.03,11.94,7.13,5.86,13.97,9.43,20.45,11.26,2.55-3.15,10.6-13.45,13.37-21.13Z" style="fill:#55b57e;"/></g><g><path d="M117.54,153.36v-49h31.78v7.63h-23.7v12.25h14.52v7.63h-14.52v13.79h25.17v7.7h-33.25Z" style="fill:#3c885c;"/><path d="M171.37,153.36v-41.26h-13.83v-7.74h35.74v7.74h-13.83v41.26h-8.08Z" style="fill:#3c885c;"/><path d="M191.25,153.36l18.24-49h7.63l18.24,49h-8.58l-3.96-10.92h-19l-3.89,10.92h-8.68Zm15.16-18.23h13.75l-5.39-14.8c-.14-.4-.3-.86-.49-1.4-.19-.54-.37-1.07-.56-1.59-.19-.53-.33-1-.42-1.42-.12,.42-.26,.89-.44,1.42-.17,.52-.36,1.05-.54,1.59-.19,.54-.35,1-.49,1.4l-5.42,14.8Z" style="fill:#3c885c;"/><path d="M243.19,153.36v-49h20.05c4.06,0,7.29,.74,9.68,2.22,2.39,1.48,4.1,3.38,5.13,5.71,1.03,2.32,1.54,4.73,1.54,7.23,0,1.75-.3,3.51-.89,5.27-.6,1.76-1.55,3.39-2.85,4.88-1.31,1.49-3,2.69-5.08,3.59-2.08,.9-4.58,1.35-7.53,1.35h-11.97v18.76h-8.08Zm8.08-26.32h12.39c1.89,0,3.4-.38,4.52-1.14,1.12-.76,1.92-1.71,2.42-2.87,.49-1.16,.73-2.33,.73-3.52,0-1.07-.22-2.2-.65-3.38-.43-1.18-1.21-2.18-2.33-2.99s-2.68-1.22-4.69-1.22h-12.39v15.12Z" style="fill:#3c885c;"/><path d="M287.75,153.36v-49h31.78v7.63h-23.7v12.25h14.52v7.63h-14.52v13.79h25.17v7.7h-33.25Z" style="fill:#3c885c;"/><path d="M362.44,154.2c-4.11,0-7.63-.99-10.57-2.97-2.94-1.98-5.13-4.82-6.58-8.5l7.35-3.01c2.1,4.55,5.37,6.83,9.8,6.83,2.68,0,4.79-.65,6.33-1.96,1.54-1.31,2.31-3.07,2.31-5.29s-.77-3.96-2.31-5.25c-1.54-1.28-3.63-1.92-6.26-1.92h-4.31v-7.67h4.1c2.15,0,3.86-.61,5.13-1.84,1.27-1.23,1.91-2.84,1.91-4.85s-.64-3.58-1.92-4.79-2.96-1.82-5.04-1.82c-1.75,0-3.33,.46-4.74,1.37-1.41,.91-2.56,2.26-3.45,4.06l-7.35-2.83c1.4-3.24,3.47-5.76,6.21-7.54,2.74-1.79,5.87-2.68,9.4-2.68,2.94,0,5.54,.58,7.8,1.73,2.26,1.16,4.04,2.74,5.32,4.76,1.28,2.02,1.92,4.35,1.92,6.98,0,2.24-.53,4.31-1.59,6.2-1.06,1.89-2.55,3.39-4.46,4.52,2.45,.98,4.36,2.54,5.74,4.69,1.38,2.15,2.06,4.62,2.06,7.42s-.72,5.28-2.15,7.44-3.41,3.86-5.93,5.09c-2.52,1.24-5.42,1.85-8.71,1.85Z" style="fill:#3c885c;"/></g><g><path d="M174.7,208.76c-1.87,0-3.45-.36-4.75-1.08s-2.35-1.7-3.14-2.91c-.79-1.22-1.37-2.58-1.74-4.09-.37-1.51-.55-3.03-.55-4.57s.19-3.01,.56-4.51c.37-1.5,.97-2.86,1.78-4.1,.81-1.23,1.86-2.21,3.16-2.96,1.29-.74,2.86-1.11,4.69-1.11,1.53,0,2.83,.23,3.9,.69s1.96,1.05,2.65,1.78c.69,.72,1.23,1.47,1.6,2.26l-3.19,1.58c-.38-.58-.8-1.1-1.24-1.55s-.96-.8-1.56-1.05c-.59-.25-1.32-.38-2.17-.38-1.21,0-2.24,.28-3.08,.85-.84,.57-1.51,1.31-2.01,2.23-.5,.92-.86,1.93-1.08,3.03-.22,1.1-.33,2.18-.33,3.24,0,1.14,.12,2.27,.37,3.37,.25,1.1,.64,2.1,1.17,2.99,.54,.89,1.21,1.61,2.03,2.13,.82,.53,1.8,.8,2.94,.8,1.26,0,2.28-.29,3.06-.87,.78-.58,1.45-1.33,2.01-2.25l3.25,1.21c-.46,.99-1.06,1.88-1.8,2.68-.75,.79-1.66,1.42-2.73,1.89s-2.34,.7-3.8,.7Z" style="fill:#9a97ff;"/><path d="M194.7,208.78c-2.47,0-4.42-.84-5.84-2.51-1.42-1.68-2.13-3.95-2.13-6.83,0-1.93,.32-3.59,.97-4.99s1.57-2.48,2.77-3.25c1.2-.76,2.61-1.15,4.24-1.15s3.07,.38,4.26,1.13c1.2,.75,2.11,1.83,2.76,3.23s.96,3.06,.96,4.99-.32,3.6-.97,5-1.57,2.48-2.76,3.24c-1.19,.76-2.61,1.14-4.25,1.14Zm0-3.29c1.4,0,2.49-.54,3.28-1.61,.79-1.07,1.18-2.57,1.18-4.48s-.39-3.41-1.18-4.48c-.79-1.07-1.88-1.61-3.28-1.61s-2.49,.54-3.28,1.61c-.79,1.07-1.18,2.58-1.18,4.52s.39,3.38,1.18,4.45c.79,1.07,1.88,1.6,3.28,1.6Z" style="fill:#9a97ff;"/><path d="M207.14,208.36v-17.88h3.48v1.79c.56-.75,1.23-1.3,2-1.66,.78-.36,1.67-.54,2.67-.54,2.11,0,3.7,.64,4.76,1.93s1.59,3.22,1.59,5.81v10.57h-3.48v-10.48c0-1.5-.31-2.64-.93-3.41-.62-.77-1.52-1.15-2.7-1.15-1.31,0-2.29,.37-2.94,1.12-.65,.75-.98,1.87-.98,3.38v10.55h-3.48Z" style="fill:#9a97ff;"/><path d="M228,208.36v-14.84h-2.68v-3.04h2.68v-2.9c0-1.32,.35-2.34,1.05-3.05,.7-.72,1.7-1.08,2.99-1.08,.65,0,1.27,.07,1.85,.21,.58,.14,1.13,.36,1.67,.65v2.89c-.49-.22-.94-.38-1.35-.49-.41-.11-.81-.16-1.21-.16-.52,0-.91,.13-1.15,.39-.25,.26-.37,.69-.37,1.27v2.28h4.08v3.04h-4.08v14.84h-3.48Zm12.93-20.81c-.58,0-1.08-.21-1.5-.62s-.62-.91-.62-1.5,.2-1.1,.61-1.52,.91-.63,1.5-.63,1.11,.21,1.52,.63,.61,.93,.61,1.52-.2,1.1-.61,1.5-.92,.61-1.52,.61Zm-1.73,20.81v-17.88h3.48v17.88h-3.48Z" style="fill:#9a97ff;"/><path d="M254.15,215.81l-1.79-2.8c1.63-.11,2.94-.32,3.93-.63,.99-.31,1.7-.76,2.14-1.33s.67-1.29,.67-2.17v-2.05c-1.01,1.29-2.47,1.94-4.36,1.94-1.49,0-2.79-.38-3.9-1.15s-1.96-1.86-2.56-3.26c-.6-1.41-.9-3.06-.9-4.96s.31-3.55,.92-4.95c.61-1.4,1.48-2.48,2.59-3.25,1.11-.76,2.43-1.15,3.95-1.15,.86,0,1.67,.15,2.41,.46,.74,.3,1.36,.73,1.86,1.28v-1.31h3.48v17.03c0,1.38-.16,2.57-.48,3.57-.32,1-.83,1.84-1.51,2.51-.69,.67-1.56,1.19-2.62,1.55s-2.33,.59-3.81,.68Zm1.26-10.32c.71,0,1.4-.2,2.07-.6s1.21-.94,1.62-1.6v-7.86c-.37-.62-.91-1.13-1.61-1.52-.7-.4-1.39-.59-2.06-.59-1.47,0-2.59,.52-3.37,1.56-.78,1.04-1.16,2.55-1.16,4.53,0,1.25,.18,2.33,.55,3.25s.89,1.62,1.57,2.11c.68,.49,1.48,.74,2.4,.74Z" style="fill:#9a97ff;"/><path d="M274.52,208.78c-2.13,0-3.74-.64-4.81-1.92s-1.61-3.21-1.61-5.78v-10.61h3.48v10.45c0,1.52,.31,2.66,.92,3.42,.61,.76,1.52,1.15,2.72,1.15,1.31,0,2.28-.38,2.93-1.13s.97-1.88,.97-3.37v-10.52h3.48v17.88h-3.48v-1.7c-.56,.72-1.21,1.26-1.96,1.6-.75,.34-1.63,.52-2.64,.52Z" style="fill:#9a97ff;"/><path d="M288.48,208.36v-17.88h3.48v2.21c.38-.84,.93-1.49,1.65-1.94,.71-.46,1.52-.68,2.43-.68,1.14,0,2.11,.35,2.91,1.05l-.51,3.24c-.41-.3-.83-.53-1.26-.66-.43-.14-.9-.21-1.4-.21-.78,0-1.46,.2-2.02,.6-.57,.4-1.01,.97-1.32,1.71-.32,.73-.47,1.6-.47,2.61v9.97h-3.48Z" style="fill:#9a97ff;"/><path d="M308.59,208.78c-1.67,0-3.11-.4-4.31-1.19-1.21-.79-2.13-1.9-2.78-3.31-.65-1.41-.97-3.04-.97-4.88,0-1.96,.33-3.64,1.01-5.03s1.61-2.46,2.82-3.2c1.21-.74,2.62-1.11,4.24-1.11,1.38,0,2.63,.3,3.77,.9,1.14,.6,2.05,1.53,2.73,2.78s1.02,2.86,1.02,4.82c0,.28,0,.62-.03,1.01-.02,.39-.05,.79-.1,1.2h-11.95c.09,.99,.33,1.86,.73,2.62s.91,1.34,1.57,1.76,1.42,.63,2.31,.63c.78,0,1.49-.14,2.14-.41,.64-.28,1.24-.7,1.8-1.29l2.03,2.19c-.7,.73-1.56,1.34-2.57,1.81s-2.16,.71-3.45,.71Zm-4.57-10.92h8.63c-.02-.95-.2-1.78-.52-2.49-.32-.72-.78-1.28-1.38-1.69-.6-.41-1.33-.61-2.2-.61-1.2,0-2.23,.38-3.1,1.16-.86,.77-1.34,1.98-1.43,3.64Z" style="fill:#9a97ff;"/><path d="M319.54,208.36v-2.59l9.26-12.2h-8.58v-3.1h12.99v2.52l-9.28,12.25h9.24v3.12h-13.63Z" style="fill:#9a97ff;"/><path d="M90.66,253.36l-6.47-17.88h2.47l4.55,12.76c.09,.26,.18,.51,.26,.75,.08,.25,.16,.51,.25,.8,.08-.29,.16-.56,.24-.8,.08-.24,.16-.5,.25-.75l4.51-12.76h2.45l-6.49,17.88h-2.01Z" style="fill:#1d1d1b;"/><path d="M109.84,253.78c-2.36,0-4.22-.84-5.58-2.51-1.36-1.68-2.05-3.95-2.05-6.83,0-1.93,.31-3.59,.93-4.99,.62-1.4,1.5-2.48,2.64-3.25s2.5-1.15,4.06-1.15,2.93,.38,4.08,1.13,2.02,1.83,2.63,3.23,.92,3.06,.92,4.99-.31,3.59-.93,5-1.5,2.49-2.64,3.25-2.5,1.14-4.06,1.14Zm0-2.31c1.61,0,2.87-.62,3.77-1.87,.9-1.25,1.36-2.98,1.36-5.2s-.45-3.96-1.36-5.2c-.9-1.24-2.16-1.86-3.77-1.86s-2.9,.62-3.79,1.85-1.34,2.98-1.34,5.24,.45,3.96,1.35,5.19c.9,1.23,2.16,1.85,3.78,1.85Z" style="fill:#1d1d1b;"/><path d="M127.35,253.78c-1.19,0-2.33-.26-3.43-.77s-2.02-1.22-2.76-2.13l1.79-1.52c.64,.7,1.35,1.24,2.13,1.63,.78,.38,1.55,.58,2.31,.58,1.14,0,2.03-.23,2.65-.7s.94-1.12,.94-1.96c0-.52-.14-1-.43-1.43-.29-.43-.75-.84-1.39-1.22s-1.49-.77-2.54-1.16c-1.89-.7-3.25-1.47-4.08-2.3-.83-.83-1.24-1.87-1.24-3.11,0-1.38,.53-2.49,1.6-3.34s2.46-1.28,4.17-1.28c1.13,0,2.19,.22,3.18,.66s1.84,1.06,2.54,1.88l-1.72,1.44c-1.14-1.17-2.49-1.75-4.04-1.75-1.01,0-1.82,.21-2.41,.64s-.88,1.01-.88,1.76c0,.69,.3,1.28,.91,1.78,.61,.5,1.71,1.04,3.33,1.64,1.31,.49,2.36,1.01,3.15,1.55,.79,.54,1.37,1.16,1.72,1.85,.36,.69,.53,1.48,.53,2.38,0,1.53-.54,2.73-1.61,3.6s-2.55,1.31-4.43,1.31Z" style="fill:#1d1d1b;"/><path d="M146.6,260.46v-24.99h2.45v1.87c1.27-1.53,2.91-2.29,4.9-2.29,1.47,0,2.74,.38,3.82,1.14,1.07,.76,1.9,1.84,2.48,3.24,.58,1.4,.88,3.06,.88,4.97s-.29,3.59-.88,5-1.43,2.49-2.52,3.25-2.38,1.14-3.88,1.14c-1,0-1.91-.21-2.71-.64s-1.5-1.05-2.08-1.88v8.03l-2.45,1.17Zm7-8.99c1.61,0,2.85-.61,3.71-1.84,.86-1.22,1.29-2.97,1.29-5.23s-.45-3.89-1.36-5.15-2.12-1.9-3.65-1.9c-.96,0-1.83,.24-2.62,.72-.79,.48-1.44,1.16-1.93,2.03v8.49c.62,.95,1.31,1.66,2.08,2.15,.77,.49,1.59,.74,2.47,.74Z" style="fill:#1d1d1b;"/><path d="M166.15,253.36v-17.88h2.45v2.84c.44-1.05,1.06-1.86,1.85-2.42s1.7-.84,2.74-.84,1.95,.29,2.62,.86l-.37,2.33c-.35-.25-.73-.43-1.15-.54s-.86-.18-1.34-.18c-.86,0-1.62,.25-2.28,.74s-1.16,1.17-1.53,2.04-.55,1.88-.55,3.04v10.03h-2.45Z" style="fill:#1d1d1b;"/><path d="M185.38,253.78c-1.59,0-2.96-.39-4.1-1.18-1.15-.79-2.03-1.89-2.65-3.3-.62-1.41-.93-3.05-.93-4.9,0-1.97,.32-3.65,.97-5.05s1.55-2.46,2.7-3.19c1.16-.74,2.49-1.1,4.01-1.1,1.32,0,2.51,.31,3.59,.93s1.92,1.57,2.56,2.87c.63,1.29,.94,2.96,.94,4.99,0,.21,0,.45-.02,.71-.01,.26-.03,.53-.05,.81h-12.16c.09,1.24,.35,2.32,.76,3.25,.41,.93,.99,1.66,1.73,2.19,.74,.53,1.65,.79,2.74,.79,.74,0,1.44-.13,2.12-.39,.68-.26,1.31-.67,1.89-1.22l1.43,1.64c-.65,.62-1.46,1.13-2.41,1.54s-1.99,.61-3.12,.61Zm-5.18-10.57h9.77c0-1.11-.17-2.12-.5-3.03-.33-.91-.84-1.63-1.52-2.17-.68-.54-1.54-.8-2.56-.8-1.39,0-2.57,.48-3.54,1.44-.97,.96-1.52,2.48-1.64,4.57Zm3.4-10.01l5.08-5.46h3.53l-6.12,5.46h-2.48Z" style="fill:#1d1d1b;"/><path d="M198.31,253.36v-15.73h-2.8v-2.15h2.8v-3.06c0-1.28,.32-2.27,.97-2.95,.65-.68,1.57-1.02,2.77-1.02,.5,0,1,.06,1.5,.19,.5,.13,.97,.31,1.43,.56v2.07c-.48-.22-.9-.38-1.28-.47s-.75-.14-1.14-.14c-.64,0-1.1,.17-1.38,.5-.28,.33-.42,.89-.42,1.67v2.66h4.22v2.15h-4.22v15.73h-2.45Z" style="fill:#1d1d1b;"/><path d="M214.52,253.78c-1.59,0-2.96-.39-4.1-1.18-1.15-.79-2.03-1.89-2.65-3.3-.62-1.41-.93-3.05-.93-4.9,0-1.97,.32-3.65,.97-5.05s1.55-2.46,2.7-3.19c1.16-.74,2.49-1.1,4.01-1.1,1.32,0,2.51,.31,3.59,.93s1.92,1.57,2.56,2.87c.63,1.29,.94,2.96,.94,4.99,0,.21,0,.45-.02,.71-.01,.26-.03,.53-.05,.81h-12.16c.09,1.24,.35,2.32,.76,3.25,.41,.93,.99,1.66,1.73,2.19,.74,.53,1.65,.79,2.74,.79,.74,0,1.44-.13,2.12-.39,.68-.26,1.31-.67,1.89-1.22l1.43,1.64c-.65,.62-1.46,1.13-2.41,1.54s-1.99,.61-3.12,.61Zm-5.18-10.57h9.77c0-1.11-.17-2.12-.5-3.03-.33-.91-.84-1.63-1.52-2.17-.68-.54-1.54-.8-2.56-.8-1.39,0-2.57,.48-3.54,1.44-.97,.96-1.52,2.48-1.64,4.57Zm3.4-10.01l5.08-5.46h3.53l-6.12,5.46h-2.48Z" style="fill:#1d1d1b;"/><path d="M226.58,253.36v-17.88h2.45v2.84c.44-1.05,1.06-1.86,1.85-2.42s1.7-.84,2.74-.84,1.95,.29,2.62,.86l-.37,2.33c-.35-.25-.73-.43-1.15-.54s-.86-.18-1.34-.18c-.86,0-1.62,.25-2.28,.74s-1.16,1.17-1.53,2.04-.55,1.88-.55,3.04v10.03h-2.45Z" style="fill:#1d1d1b;"/><path d="M245.81,253.78c-1.59,0-2.96-.39-4.1-1.18-1.15-.79-2.03-1.89-2.65-3.3-.62-1.41-.93-3.05-.93-4.9,0-1.97,.32-3.65,.97-5.05s1.55-2.46,2.7-3.19c1.16-.74,2.49-1.1,4.01-1.1,1.32,0,2.51,.31,3.59,.93s1.92,1.57,2.56,2.87c.63,1.29,.94,2.96,.94,4.99,0,.21,0,.45-.02,.71-.01,.26-.03,.53-.05,.81h-12.16c.09,1.24,.35,2.32,.76,3.25,.41,.93,.99,1.66,1.73,2.19,.74,.53,1.65,.79,2.74,.79,.74,0,1.44-.13,2.12-.39,.68-.26,1.31-.67,1.89-1.22l1.43,1.64c-.65,.62-1.46,1.13-2.41,1.54s-1.99,.61-3.12,.61Zm-5.18-10.57h9.77c0-1.11-.17-2.12-.5-3.03-.33-.91-.84-1.63-1.52-2.17-.68-.54-1.54-.8-2.56-.8-1.39,0-2.57,.48-3.54,1.44-.97,.96-1.52,2.48-1.64,4.57Z" style="fill:#1d1d1b;"/><path d="M258.15,253.36v-17.88h2.45v2.29c.5-.88,1.17-1.55,2-2.01,.83-.46,1.78-.7,2.84-.7,2.09,0,3.64,.64,4.66,1.93s1.52,3.25,1.52,5.87v10.5h-2.45v-10.94c0-1.67-.35-2.94-1.05-3.81-.7-.87-1.71-1.3-3.04-1.3-1.47,0-2.58,.45-3.34,1.35-.76,.9-1.14,2.22-1.14,3.97v10.73h-2.45Z" style="fill:#1d1d1b;"/><path d="M284.25,253.78c-1.47,0-2.74-.38-3.8-1.13-1.06-.75-1.88-1.82-2.44-3.22-.57-1.39-.85-3.06-.85-5s.29-3.62,.88-5.02c.58-1.4,1.42-2.48,2.5-3.23s2.38-1.13,3.89-1.13,2.66,.35,3.68,1.04c1.02,.7,1.76,1.69,2.23,2.98l-2.33,.86c-.3-.83-.76-1.46-1.38-1.91-.62-.44-1.34-.66-2.17-.66-1.55,0-2.73,.6-3.54,1.8-.81,1.2-1.22,2.96-1.22,5.27s.4,3.94,1.21,5.17c.8,1.23,1.94,1.85,3.39,1.85,.96,0,1.78-.26,2.47-.77,.69-.51,1.17-1.21,1.43-2.1l2.31,.77c-.41,1.4-1.16,2.49-2.27,3.26-1.1,.78-2.44,1.16-4,1.16Z" style="fill:#1d1d1b;"/><path d="M302.1,253.78c-1.59,0-2.96-.39-4.1-1.18-1.15-.79-2.03-1.89-2.65-3.3-.62-1.41-.93-3.05-.93-4.9,0-1.97,.32-3.65,.97-5.05s1.55-2.46,2.7-3.19c1.16-.74,2.49-1.1,4.01-1.1,1.32,0,2.51,.31,3.59,.93s1.92,1.57,2.56,2.87c.63,1.29,.94,2.96,.94,4.99,0,.21,0,.45-.02,.71-.01,.26-.03,.53-.05,.81h-12.16c.09,1.24,.35,2.32,.76,3.25,.41,.93,.99,1.66,1.73,2.19,.74,.53,1.65,.79,2.74,.79,.74,0,1.44-.13,2.12-.39,.68-.26,1.31-.67,1.89-1.22l1.43,1.64c-.65,.62-1.46,1.13-2.41,1.54s-1.99,.61-3.12,.61Zm-5.18-10.57h9.77c0-1.11-.17-2.12-.5-3.03-.33-.91-.84-1.63-1.52-2.17-.68-.54-1.54-.8-2.56-.8-1.39,0-2.57,.48-3.54,1.44-.97,.96-1.52,2.48-1.64,4.57Z" style="fill:#1d1d1b;"/><path d="M318.88,253.78c-1.19,0-2.33-.26-3.43-.77s-2.02-1.22-2.76-2.13l1.79-1.52c.64,.7,1.35,1.24,2.13,1.63,.78,.38,1.55,.58,2.31,.58,1.14,0,2.03-.23,2.65-.7s.94-1.12,.94-1.96c0-.52-.14-1-.43-1.43-.29-.43-.75-.84-1.39-1.22s-1.49-.77-2.54-1.16c-1.89-.7-3.25-1.47-4.08-2.3-.83-.83-1.24-1.87-1.24-3.11,0-1.38,.53-2.49,1.6-3.34s2.46-1.28,4.17-1.28c1.13,0,2.19,.22,3.18,.66s1.84,1.06,2.54,1.88l-1.72,1.44c-1.14-1.17-2.49-1.75-4.04-1.75-1.01,0-1.82,.21-2.41,.64s-.88,1.01-.88,1.76c0,.69,.3,1.28,.91,1.78,.61,.5,1.71,1.04,3.33,1.64,1.31,.49,2.36,1.01,3.15,1.55,.79,.54,1.37,1.16,1.72,1.85,.36,.69,.53,1.48,.53,2.38,0,1.53-.54,2.73-1.61,3.6s-2.55,1.31-4.43,1.31Z" style="fill:#1d1d1b;"/><path d="M344.22,253.78c-2.22,0-3.97-.84-5.26-2.53-1.29-1.69-1.93-3.97-1.93-6.85,0-1.94,.29-3.6,.88-5,.58-1.39,1.42-2.47,2.51-3.22s2.39-1.13,3.89-1.13c1.86,0,3.42,.71,4.71,2.13v-7.93l2.45-1.17v25.27h-2.45v-1.79c-1.25,1.47-2.85,2.21-4.79,2.21Zm.37-2.31c.88,0,1.71-.25,2.5-.76,.79-.51,1.43-1.2,1.92-2.07v-8.57c-.53-.84-1.18-1.5-1.97-1.99s-1.61-.73-2.46-.73c-1.61,0-2.86,.61-3.74,1.83s-1.32,2.96-1.32,5.22c0,1.39,.22,2.61,.65,3.67,.43,1.06,1.03,1.89,1.79,2.49,.76,.6,1.63,.9,2.62,.9Z" style="fill:#1d1d1b;"/><path d="M364.3,253.78c-1.59,0-2.96-.39-4.1-1.18-1.15-.79-2.03-1.89-2.65-3.3-.62-1.41-.93-3.05-.93-4.9,0-1.97,.32-3.65,.97-5.05s1.55-2.46,2.7-3.19c1.16-.74,2.49-1.1,4.01-1.1,1.32,0,2.51,.31,3.59,.93s1.92,1.57,2.56,2.87c.63,1.29,.94,2.96,.94,4.99,0,.21,0,.45-.02,.71-.01,.26-.03,.53-.05,.81h-12.16c.09,1.24,.35,2.32,.76,3.25,.41,.93,.99,1.66,1.73,2.19,.74,.53,1.65,.79,2.74,.79,.74,0,1.44-.13,2.12-.39,.68-.26,1.31-.67,1.89-1.22l1.43,1.64c-.65,.62-1.46,1.13-2.41,1.54s-1.99,.61-3.12,.61Zm-5.18-10.57h9.77c0-1.11-.17-2.12-.5-3.03-.33-.91-.84-1.63-1.52-2.17-.68-.54-1.54-.8-2.56-.8-1.39,0-2.57,.48-3.54,1.44-.97,.96-1.52,2.48-1.64,4.57Z" style="fill:#1d1d1b;"/><path d="M389.09,253.78c-1.18,0-2.07-.36-2.69-1.08-.61-.72-.92-1.76-.92-3.12v-11.95h-2.96v-2.15h2.96v-6.2l2.45-1.19v7.38h4.44v2.15h-4.44v11.22c0,.93,.15,1.61,.46,2.02,.31,.42,.81,.62,1.5,.62,.84,0,1.72-.3,2.64-.91l-.28,2.41c-.47,.27-.97,.47-1.5,.6-.54,.13-1.09,.19-1.66,.19Z" style="fill:#1d1d1b;"/><path d="M396.01,253.36v-17.88h2.45v2.84c.44-1.05,1.06-1.86,1.85-2.42s1.7-.84,2.74-.84,1.95,.29,2.62,.86l-.37,2.33c-.35-.25-.73-.43-1.15-.54s-.86-.18-1.34-.18c-.86,0-1.62,.25-2.28,.74s-1.16,1.17-1.53,2.04-.55,1.88-.55,3.04v10.03h-2.45Z" style="fill:#1d1d1b;"/><path d="M410.58,231.89c-.44,0-.82-.16-1.13-.47-.31-.31-.46-.69-.46-1.14,0-.47,.15-.86,.46-1.18,.31-.32,.69-.48,1.13-.48,.47,0,.85,.16,1.16,.48,.31,.32,.46,.71,.46,1.18s-.15,.82-.46,1.14c-.31,.32-.7,.47-1.16,.47Zm-1.21,21.47v-17.88h2.45v17.88h-2.45Z" style="fill:#1d1d1b;"/><path d="M26.96,298.78c-2.22,0-3.97-.84-5.26-2.53-1.29-1.69-1.93-3.97-1.93-6.85,0-1.94,.29-3.6,.88-5,.58-1.39,1.42-2.47,2.51-3.22s2.39-1.13,3.89-1.13c1.86,0,3.42,.71,4.71,2.13v-7.93l2.45-1.17v25.27h-2.45v-1.79c-1.25,1.47-2.85,2.21-4.79,2.21Zm.37-2.31c.88,0,1.71-.25,2.5-.76,.79-.51,1.43-1.2,1.92-2.07v-8.57c-.53-.84-1.18-1.5-1.97-1.99s-1.61-.73-2.46-.73c-1.61,0-2.86,.61-3.74,1.83s-1.32,2.96-1.32,5.22c0,1.39,.22,2.61,.65,3.67,.43,1.06,1.03,1.89,1.79,2.49,.76,.6,1.63,.9,2.62,.9Z" style="fill:#1d1d1b;"/><path d="M45.45,298.78c-1.89,0-3.37-.53-4.45-1.58-1.07-1.05-1.61-2.51-1.61-4.37,0-1.19,.27-2.22,.8-3.1,.53-.88,1.28-1.55,2.26-2.02,.97-.47,2.13-.71,3.46-.71,.88,0,1.71,.11,2.51,.33,.8,.22,1.57,.55,2.32,1v-1.71c0-1.52-.33-2.63-.99-3.34-.66-.71-1.68-1.07-3.07-1.07-.83,0-1.71,.15-2.63,.46-.93,.31-1.81,.74-2.63,1.3l-.72-2.06c.94-.6,1.96-1.05,3.06-1.38,1.1-.32,2.17-.48,3.22-.48,2.01,0,3.52,.53,4.55,1.57,1.03,1.05,1.54,2.6,1.54,4.64v12.09h-2.33v-2.03c-.71,.78-1.53,1.38-2.44,1.81s-1.86,.64-2.84,.64Zm.31-2.15c.9,0,1.77-.24,2.62-.71s1.63-1.15,2.35-2.04v-3.34c-.69-.44-1.43-.79-2.23-1.02-.8-.24-1.57-.36-2.32-.36-1.34,0-2.41,.34-3.21,1.01-.8,.67-1.2,1.57-1.2,2.69s.36,2.07,1.07,2.76c.71,.68,1.69,1.02,2.92,1.02Z" style="fill:#1d1d1b;"/><path d="M59.19,298.36v-17.88h2.45v2.29c.5-.88,1.17-1.55,2-2.01,.83-.46,1.78-.7,2.84-.7,2.09,0,3.64,.64,4.66,1.93s1.52,3.25,1.52,5.87v10.5h-2.45v-10.94c0-1.67-.35-2.94-1.05-3.81-.7-.87-1.71-1.3-3.04-1.3-1.47,0-2.58,.45-3.34,1.35-.76,.9-1.14,2.22-1.14,3.97v10.73h-2.45Z" style="fill:#1d1d1b;"/><path d="M83.85,298.78c-1.19,0-2.33-.26-3.43-.77s-2.02-1.22-2.76-2.13l1.79-1.52c.64,.7,1.35,1.24,2.13,1.63,.78,.38,1.55,.58,2.31,.58,1.14,0,2.03-.23,2.65-.7s.94-1.12,.94-1.96c0-.52-.14-1-.43-1.43-.29-.43-.75-.84-1.39-1.22s-1.49-.77-2.54-1.16c-1.89-.7-3.25-1.47-4.08-2.3-.83-.83-1.24-1.87-1.24-3.11,0-1.38,.53-2.49,1.6-3.34s2.46-1.28,4.17-1.28c1.13,0,2.19,.22,3.18,.66s1.84,1.06,2.54,1.88l-1.72,1.44c-1.14-1.17-2.49-1.75-4.04-1.75-1.01,0-1.82,.21-2.41,.64s-.88,1.01-.88,1.76c0,.69,.3,1.28,.91,1.78,.61,.5,1.71,1.04,3.33,1.64,1.31,.49,2.36,1.01,3.15,1.55,.79,.54,1.37,1.16,1.72,1.85,.36,.69,.53,1.48,.53,2.38,0,1.53-.54,2.73-1.61,3.6s-2.55,1.31-4.43,1.31Z" style="fill:#1d1d1b;"/><path d="M103.22,298.36v-24.1l2.45-1.17v25.27h-2.45Z" style="fill:#1d1d1b;"/><path d="M118.62,298.78c-1.59,0-2.96-.39-4.1-1.18-1.15-.79-2.03-1.89-2.65-3.3-.62-1.41-.93-3.05-.93-4.9,0-1.97,.32-3.65,.97-5.05s1.55-2.46,2.7-3.19c1.16-.74,2.49-1.1,4.01-1.1,1.32,0,2.51,.31,3.59,.93s1.92,1.57,2.56,2.87c.63,1.29,.94,2.96,.94,4.99,0,.21,0,.45-.02,.71-.01,.26-.03,.53-.05,.81h-12.16c.09,1.24,.35,2.32,.76,3.25,.41,.93,.99,1.66,1.73,2.19,.74,.53,1.65,.79,2.74,.79,.74,0,1.44-.13,2.12-.39,.68-.26,1.31-.67,1.89-1.22l1.43,1.64c-.65,.62-1.46,1.13-2.41,1.54s-1.99,.61-3.12,.61Zm-5.18-10.57h9.77c0-1.11-.17-2.12-.5-3.03-.33-.91-.84-1.63-1.52-2.17-.68-.54-1.54-.8-2.56-.8-1.39,0-2.57,.48-3.54,1.44-.97,.96-1.52,2.48-1.64,4.57Z" style="fill:#1d1d1b;"/><path d="M135.4,298.78c-1.19,0-2.33-.26-3.43-.77s-2.02-1.22-2.76-2.13l1.79-1.52c.64,.7,1.35,1.24,2.13,1.63,.78,.38,1.55,.58,2.31,.58,1.14,0,2.03-.23,2.65-.7s.94-1.12,.94-1.96c0-.52-.14-1-.43-1.43-.29-.43-.75-.84-1.39-1.22s-1.49-.77-2.54-1.16c-1.89-.7-3.25-1.47-4.08-2.3-.83-.83-1.24-1.87-1.24-3.11,0-1.38,.53-2.49,1.6-3.34s2.46-1.28,4.17-1.28c1.13,0,2.19,.22,3.18,.66s1.84,1.06,2.54,1.88l-1.72,1.44c-1.14-1.17-2.49-1.75-4.04-1.75-1.01,0-1.82,.21-2.41,.64s-.88,1.01-.88,1.76c0,.69,.3,1.28,.91,1.78,.61,.5,1.71,1.04,3.33,1.64,1.31,.49,2.36,1.01,3.15,1.55,.79,.54,1.37,1.16,1.72,1.85,.36,.69,.53,1.48,.53,2.38,0,1.53-.54,2.73-1.61,3.6s-2.55,1.31-4.43,1.31Z" style="fill:#1d1d1b;"/><path d="M154.65,305.46v-24.99h2.45v1.87c1.27-1.53,2.91-2.29,4.9-2.29,1.47,0,2.74,.38,3.82,1.14,1.07,.76,1.9,1.84,2.48,3.24,.58,1.4,.88,3.06,.88,4.97s-.29,3.59-.88,5-1.43,2.49-2.52,3.25-2.38,1.14-3.88,1.14c-1,0-1.91-.21-2.71-.64s-1.5-1.05-2.08-1.88v8.03l-2.45,1.17Zm7-8.99c1.61,0,2.85-.61,3.71-1.84,.86-1.22,1.29-2.97,1.29-5.23s-.45-3.89-1.36-5.15-2.12-1.9-3.65-1.9c-.96,0-1.83,.24-2.62,.72-.79,.48-1.44,1.16-1.93,2.03v8.49c.62,.95,1.31,1.66,2.08,2.15,.77,.49,1.59,.74,2.47,.74Z" style="fill:#1d1d1b;"/><path d="M179.81,298.78c-1.89,0-3.37-.53-4.45-1.58-1.07-1.05-1.61-2.51-1.61-4.37,0-1.19,.27-2.22,.8-3.1,.53-.88,1.28-1.55,2.26-2.02,.97-.47,2.13-.71,3.46-.71,.88,0,1.71,.11,2.51,.33,.8,.22,1.57,.55,2.32,1v-1.71c0-1.52-.33-2.63-.99-3.34-.66-.71-1.68-1.07-3.07-1.07-.83,0-1.71,.15-2.63,.46-.93,.31-1.81,.74-2.63,1.3l-.72-2.06c.94-.6,1.96-1.05,3.06-1.38,1.1-.32,2.17-.48,3.22-.48,2.01,0,3.52,.53,4.55,1.57,1.03,1.05,1.54,2.6,1.54,4.64v12.09h-2.33v-2.03c-.71,.78-1.53,1.38-2.44,1.81s-1.86,.64-2.84,.64Zm.31-2.15c.9,0,1.77-.24,2.62-.71s1.63-1.15,2.35-2.04v-3.34c-.69-.44-1.43-.79-2.23-1.02-.8-.24-1.57-.36-2.32-.36-1.34,0-2.41,.34-3.21,1.01-.8,.67-1.2,1.57-1.2,2.69s.36,2.07,1.07,2.76c.71,.68,1.69,1.02,2.92,1.02Z" style="fill:#1d1d1b;"/><path d="M193.55,298.36v-17.88h2.45v2.84c.44-1.05,1.06-1.86,1.85-2.42s1.7-.84,2.74-.84,1.95,.29,2.62,.86l-.37,2.33c-.35-.25-.73-.43-1.15-.54s-.86-.18-1.34-.18c-.86,0-1.62,.25-2.28,.74s-1.16,1.17-1.53,2.04-.55,1.88-.55,3.04v10.03h-2.45Z" style="fill:#1d1d1b;"/><path d="M211.39,298.78c-1.89,0-3.37-.53-4.45-1.58-1.07-1.05-1.61-2.51-1.61-4.37,0-1.19,.27-2.22,.8-3.1,.53-.88,1.28-1.55,2.26-2.02,.97-.47,2.13-.71,3.46-.71,.88,0,1.71,.11,2.51,.33,.8,.22,1.57,.55,2.32,1v-1.71c0-1.52-.33-2.63-.99-3.34-.66-.71-1.68-1.07-3.07-1.07-.83,0-1.71,.15-2.63,.46-.93,.31-1.81,.74-2.63,1.3l-.72-2.06c.94-.6,1.96-1.05,3.06-1.38,1.1-.32,2.17-.48,3.22-.48,2.01,0,3.52,.53,4.55,1.57,1.03,1.05,1.54,2.6,1.54,4.64v12.09h-2.33v-2.03c-.71,.78-1.53,1.38-2.44,1.81s-1.86,.64-2.84,.64Zm.31-2.15c.9,0,1.77-.24,2.62-.71s1.63-1.15,2.35-2.04v-3.34c-.69-.44-1.43-.79-2.23-1.02-.8-.24-1.57-.36-2.32-.36-1.34,0-2.41,.34-3.21,1.01-.8,.67-1.2,1.57-1.2,2.69s.36,2.07,1.07,2.76c.71,.68,1.69,1.02,2.92,1.02Z" style="fill:#1d1d1b;"/><path d="M225.12,298.36v-17.88h2.45v2.1c.51-.82,1.18-1.44,2.01-1.87s1.76-.65,2.78-.65c1.13,0,2.12,.28,2.97,.84s1.47,1.35,1.88,2.36c.5-1,1.22-1.79,2.14-2.35,.93-.57,1.96-.85,3.11-.85,1.86,0,3.33,.57,4.43,1.72,1.1,1.15,1.65,2.7,1.65,4.66v11.92h-2.45v-10.97c0-1.66-.33-2.92-1-3.78s-1.63-1.29-2.89-1.29c-.83,0-1.55,.22-2.18,.65-.62,.43-1.11,1.04-1.46,1.81-.35,.78-.52,1.67-.52,2.69v10.9h-2.45v-10.97c0-1.67-.32-2.93-.96-3.79-.64-.86-1.6-1.29-2.87-1.29s-2.32,.46-3.06,1.37c-.75,.92-1.12,2.17-1.12,3.75v10.92h-2.45Z" style="fill:#1d1d1b;"/><path d="M261.96,298.78c-1.59,0-2.96-.39-4.1-1.18-1.15-.79-2.03-1.89-2.65-3.3-.62-1.41-.93-3.05-.93-4.9,0-1.97,.32-3.65,.97-5.05s1.55-2.46,2.7-3.19c1.16-.74,2.49-1.1,4.01-1.1,1.32,0,2.51,.31,3.59,.93s1.92,1.57,2.56,2.87c.63,1.29,.94,2.96,.94,4.99,0,.21,0,.45-.02,.71-.01,.26-.03,.53-.05,.81h-12.16c.09,1.24,.35,2.32,.76,3.25,.41,.93,.99,1.66,1.73,2.19,.74,.53,1.65,.79,2.74,.79,.74,0,1.44-.13,2.12-.39,.68-.26,1.31-.67,1.89-1.22l1.43,1.64c-.65,.62-1.46,1.13-2.41,1.54s-1.99,.61-3.12,.61Zm-.65-20.58l-6.12-5.46h3.53l5.08,5.46h-2.48Zm-4.53,10.01h9.77c0-1.11-.17-2.12-.5-3.03-.33-.91-.84-1.63-1.52-2.17-.68-.54-1.54-.8-2.56-.8-1.39,0-2.57,.48-3.54,1.44-.97,.96-1.52,2.48-1.64,4.57Z" style="fill:#1d1d1b;"/><path d="M278.71,298.78c-1.18,0-2.07-.36-2.69-1.08-.61-.72-.92-1.76-.92-3.12v-11.95h-2.96v-2.15h2.96v-6.2l2.45-1.19v7.38h4.44v2.15h-4.44v11.22c0,.93,.15,1.61,.46,2.02,.31,.42,.81,.62,1.5,.62,.84,0,1.72-.3,2.64-.91l-.28,2.41c-.47,.27-.97,.47-1.5,.6-.54,.13-1.09,.19-1.66,.19Z" style="fill:#1d1d1b;"/><path d="M285.62,298.36v-17.88h2.45v2.84c.44-1.05,1.06-1.86,1.85-2.42s1.7-.84,2.74-.84,1.95,.29,2.62,.86l-.37,2.33c-.35-.25-.73-.43-1.15-.54s-.86-.18-1.34-.18c-.86,0-1.62,.25-2.28,.74s-1.16,1.17-1.53,2.04-.55,1.88-.55,3.04v10.03h-2.45Z" style="fill:#1d1d1b;"/><path d="M304.85,298.78c-1.59,0-2.96-.39-4.1-1.18-1.15-.79-2.03-1.89-2.65-3.3-.62-1.41-.93-3.05-.93-4.9,0-1.97,.32-3.65,.97-5.05s1.55-2.46,2.7-3.19c1.16-.74,2.49-1.1,4.01-1.1,1.32,0,2.51,.31,3.59,.93s1.92,1.57,2.56,2.87c.63,1.29,.94,2.96,.94,4.99,0,.21,0,.45-.02,.71-.01,.26-.03,.53-.05,.81h-12.16c.09,1.24,.35,2.32,.76,3.25,.41,.93,.99,1.66,1.73,2.19,.74,.53,1.65,.79,2.74,.79,.74,0,1.44-.13,2.12-.39,.68-.26,1.31-.67,1.89-1.22l1.43,1.64c-.65,.62-1.46,1.13-2.41,1.54s-1.99,.61-3.12,.61Zm-5.18-10.57h9.77c0-1.11-.17-2.12-.5-3.03-.33-.91-.84-1.63-1.52-2.17-.68-.54-1.54-.8-2.56-.8-1.39,0-2.57,.48-3.54,1.44-.97,.96-1.52,2.48-1.64,4.57Z" style="fill:#1d1d1b;"/><path d="M321.63,298.78c-1.19,0-2.33-.26-3.43-.77s-2.02-1.22-2.76-2.13l1.79-1.52c.64,.7,1.35,1.24,2.13,1.63,.78,.38,1.55,.58,2.31,.58,1.14,0,2.03-.23,2.65-.7s.94-1.12,.94-1.96c0-.52-.14-1-.43-1.43-.29-.43-.75-.84-1.39-1.22s-1.49-.77-2.54-1.16c-1.89-.7-3.25-1.47-4.08-2.3-.83-.83-1.24-1.87-1.24-3.11,0-1.38,.53-2.49,1.6-3.34s2.46-1.28,4.17-1.28c1.13,0,2.19,.22,3.18,.66s1.84,1.06,2.54,1.88l-1.72,1.44c-1.14-1.17-2.49-1.75-4.04-1.75-1.01,0-1.82,.21-2.41,.64s-.88,1.01-.88,1.76c0,.69,.3,1.28,.91,1.78,.61,.5,1.71,1.04,3.33,1.64,1.31,.49,2.36,1.01,3.15,1.55,.79,.54,1.37,1.16,1.72,1.85,.36,.69,.53,1.48,.53,2.38,0,1.53-.54,2.73-1.61,3.6s-2.55,1.31-4.43,1.31Z" style="fill:#1d1d1b;"/><path d="M351.78,298.78l-7.17-16.89c-.15-.36-.31-.75-.47-1.15-.16-.41-.31-.79-.44-1.14,.02,.29,.04,.65,.05,1.09,.01,.43,.02,.83,.02,1.21v16.47h-2.45v-24.5h2.29l7.51,17.62c.12,.27,.23,.54,.34,.83,.11,.29,.22,.57,.32,.85,.1-.28,.21-.56,.32-.84,.11-.28,.22-.56,.34-.84l7.49-17.62h2.31v24.5h-2.45v-16.47c0-.37,0-.78,.02-1.22s.02-.8,.04-1.09c-.13,.34-.28,.72-.46,1.16s-.34,.83-.49,1.19l-7.12,16.85Z" style="fill:#1d1d1b;"/><path d="M372.91,298.78c-1.89,0-3.37-.53-4.45-1.58-1.07-1.05-1.61-2.51-1.61-4.37,0-1.19,.27-2.22,.8-3.1,.53-.88,1.28-1.55,2.26-2.02,.97-.47,2.13-.71,3.46-.71,.88,0,1.71,.11,2.51,.33,.8,.22,1.57,.55,2.32,1v-1.71c0-1.52-.33-2.63-.99-3.34-.66-.71-1.68-1.07-3.07-1.07-.83,0-1.71,.15-2.63,.46-.93,.31-1.81,.74-2.63,1.3l-.72-2.06c.94-.6,1.96-1.05,3.06-1.38,1.1-.32,2.17-.48,3.22-.48,2.01,0,3.52,.53,4.55,1.57,1.03,1.05,1.54,2.6,1.54,4.64v12.09h-2.33v-2.03c-.71,.78-1.53,1.38-2.44,1.81s-1.86,.64-2.84,.64Zm.31-2.15c.9,0,1.77-.24,2.62-.71s1.63-1.15,2.35-2.04v-3.34c-.69-.44-1.43-.79-2.23-1.02-.8-.24-1.57-.36-2.32-.36-1.34,0-2.41,.34-3.21,1.01-.8,.67-1.2,1.57-1.2,2.69s.36,2.07,1.07,2.76c.71,.68,1.69,1.02,2.92,1.02Z" style="fill:#1d1d1b;"/><path d="M387.48,276.89c-.44,0-.82-.16-1.13-.47-.31-.31-.46-.69-.46-1.14,0-.47,.15-.86,.46-1.18,.31-.32,.69-.48,1.13-.48,.47,0,.85,.16,1.16,.48,.31,.32,.46,.71,.46,1.18s-.15,.82-.46,1.14c-.31,.32-.7,.47-1.16,.47Zm-1.21,21.47v-17.88h2.45v17.88h-2.45Z" style="fill:#1d1d1b;"/><path d="M395.15,298.36v-24.1l2.45-1.17v25.27h-2.45Z" style="fill:#1d1d1b;"/><path d="M411.32,298.78c-1.37,0-2.6-.24-3.71-.71s-2.05-1.11-2.83-1.92c-.78-.81-1.35-1.72-1.72-2.72l2.36-.84c.53,1.16,1.31,2.09,2.34,2.8s2.25,1.07,3.62,1.07c1.55,0,2.8-.39,3.74-1.16,.94-.77,1.41-1.89,1.41-3.36,0-.99-.27-1.84-.8-2.55-.54-.71-1.24-1.3-2.1-1.79-.86-.48-1.79-.91-2.77-1.27-.84-.32-1.68-.67-2.51-1.06-.83-.39-1.59-.85-2.28-1.38s-1.23-1.18-1.64-1.93c-.41-.76-.61-1.66-.61-2.7s.28-2.05,.85-2.93c.57-.88,1.39-1.58,2.46-2.11,1.07-.52,2.37-.79,3.9-.79,1.2,0,2.28,.18,3.22,.54,.94,.36,1.73,.86,2.36,1.51,.63,.64,1.07,1.38,1.33,2.2l-2.29,.77c-.33-.8-.9-1.46-1.71-1.97s-1.84-.76-3.09-.76c-1.4,0-2.5,.32-3.3,.95-.8,.64-1.2,1.5-1.2,2.6,0,.85,.26,1.56,.79,2.13,.53,.57,1.21,1.06,2.06,1.47,.85,.41,1.74,.8,2.69,1.17,.83,.31,1.67,.68,2.51,1.1s1.62,.93,2.32,1.53c.7,.6,1.27,1.32,1.7,2.17,.43,.85,.65,1.86,.65,3.04,0,1.47-.34,2.71-1.01,3.74s-1.59,1.8-2.76,2.34c-1.17,.54-2.5,.8-3.99,.8Z" style="fill:#1d1d1b;"/><path d="M424.71,305.46v-24.99h2.45v1.87c1.27-1.53,2.91-2.29,4.9-2.29,1.47,0,2.74,.38,3.82,1.14,1.07,.76,1.9,1.84,2.48,3.24,.58,1.4,.88,3.06,.88,4.97s-.29,3.59-.88,5-1.43,2.49-2.52,3.25-2.38,1.14-3.88,1.14c-1,0-1.91-.21-2.71-.64s-1.5-1.05-2.08-1.88v8.03l-2.45,1.17Zm7-8.99c1.61,0,2.85-.61,3.71-1.84,.86-1.22,1.29-2.97,1.29-5.23s-.45-3.89-1.36-5.15-2.12-1.9-3.65-1.9c-.96,0-1.83,.24-2.62,.72-.79,.48-1.44,1.16-1.93,2.03v8.49c.62,.95,1.31,1.66,2.08,2.15,.77,.49,1.59,.74,2.47,.74Z" style="fill:#1d1d1b;"/><path d="M449.87,298.78c-1.89,0-3.37-.53-4.45-1.58-1.07-1.05-1.61-2.51-1.61-4.37,0-1.19,.27-2.22,.8-3.1,.53-.88,1.28-1.55,2.26-2.02,.97-.47,2.13-.71,3.46-.71,.88,0,1.71,.11,2.51,.33,.8,.22,1.57,.55,2.32,1v-1.71c0-1.52-.33-2.63-.99-3.34-.66-.71-1.68-1.07-3.07-1.07-.83,0-1.71,.15-2.63,.46-.93,.31-1.81,.74-2.63,1.3l-.72-2.06c.94-.6,1.96-1.05,3.06-1.38,1.1-.32,2.17-.48,3.22-.48,2.01,0,3.52,.53,4.55,1.57,1.03,1.05,1.54,2.6,1.54,4.64v12.09h-2.33v-2.03c-.71,.78-1.53,1.38-2.44,1.81s-1.86,.64-2.84,.64Zm.31-2.15c.9,0,1.77-.24,2.62-.71s1.63-1.15,2.35-2.04v-3.34c-.69-.44-1.43-.79-2.23-1.02-.8-.24-1.57-.36-2.32-.36-1.34,0-2.41,.34-3.21,1.01-.8,.67-1.2,1.57-1.2,2.69s.36,2.07,1.07,2.76c.71,.68,1.69,1.02,2.92,1.02Z" style="fill:#1d1d1b;"/><path d="M463.61,298.36v-17.88h2.45v2.29c.5-.88,1.17-1.55,2-2.01,.83-.46,1.78-.7,2.84-.7,2.09,0,3.64,.64,4.66,1.93s1.52,3.25,1.52,5.87v10.5h-2.45v-10.94c0-1.67-.35-2.94-1.05-3.81-.7-.87-1.71-1.3-3.04-1.3-1.47,0-2.58,.45-3.34,1.35-.76,.9-1.14,2.22-1.14,3.97v10.73h-2.45Z" style="fill:#1d1d1b;"/><path d="M143.11,343.78c-1.89,0-3.37-.53-4.45-1.58-1.07-1.05-1.61-2.51-1.61-4.37,0-1.19,.27-2.22,.8-3.1,.53-.88,1.28-1.55,2.26-2.02,.97-.47,2.13-.71,3.46-.71,.88,0,1.71,.11,2.51,.33,.8,.22,1.57,.55,2.32,1v-1.71c0-1.52-.33-2.63-.99-3.34-.66-.71-1.68-1.07-3.07-1.07-.83,0-1.71,.15-2.63,.46-.93,.31-1.81,.74-2.63,1.3l-.72-2.06c.94-.6,1.96-1.05,3.06-1.38,1.1-.32,2.17-.48,3.22-.48,2.01,0,3.52,.53,4.55,1.57,1.03,1.05,1.54,2.6,1.54,4.64v12.09h-2.33v-2.03c-.71,.78-1.53,1.38-2.44,1.81s-1.86,.64-2.84,.64Zm.84-20.58l-6.12-5.46h3.54l5.08,5.46h-2.49Zm-.53,18.43c.9,0,1.77-.24,2.62-.71s1.63-1.15,2.35-2.04v-3.34c-.69-.44-1.43-.79-2.23-1.02-.8-.24-1.57-.36-2.32-.36-1.34,0-2.41,.34-3.21,1.01-.8,.67-1.2,1.57-1.2,2.69s.36,2.07,1.07,2.76c.71,.68,1.69,1.02,2.92,1.02Z" style="fill:#1d1d1b;"/><path d="M169.15,343.78c-1.18,0-2.07-.36-2.69-1.08-.61-.72-.92-1.76-.92-3.12v-11.95h-2.96v-2.15h2.96v-6.2l2.45-1.19v7.38h4.44v2.15h-4.44v11.22c0,.93,.15,1.61,.46,2.02,.31,.42,.81,.62,1.5,.62,.84,0,1.72-.3,2.64-.91l-.28,2.41c-.47,.27-.97,.47-1.5,.6-.54,.13-1.09,.19-1.66,.19Z" style="fill:#1d1d1b;"/><path d="M183.64,343.78c-2.36,0-4.22-.84-5.58-2.51-1.36-1.68-2.05-3.95-2.05-6.83,0-1.93,.31-3.59,.93-4.99,.62-1.4,1.5-2.48,2.64-3.25s2.5-1.15,4.06-1.15,2.93,.38,4.08,1.13,2.02,1.83,2.63,3.23,.92,3.06,.92,4.99-.31,3.59-.93,5-1.5,2.49-2.64,3.25-2.5,1.14-4.06,1.14Zm0-2.31c1.61,0,2.87-.62,3.77-1.87,.9-1.25,1.36-2.98,1.36-5.2s-.45-3.96-1.36-5.2c-.9-1.24-2.16-1.86-3.77-1.86s-2.9,.62-3.79,1.85-1.34,2.98-1.34,5.24,.45,3.96,1.35,5.19c.9,1.23,2.16,1.85,3.78,1.85Z" style="fill:#1d1d1b;"/><path d="M202.52,343.78c-2.11,0-3.68-.64-4.72-1.92-1.03-1.28-1.55-3.24-1.55-5.86v-10.52h2.45v10.92c0,1.68,.35,2.95,1.05,3.81,.7,.87,1.72,1.29,3.05,1.29,1.48,0,2.6-.45,3.35-1.36,.75-.9,1.13-2.23,1.13-3.98v-10.69h2.45v17.88h-2.45v-2.15c-.54,.86-1.2,1.51-1.99,1.93-.79,.43-1.71,.64-2.77,.64Z" style="fill:#1d1d1b;"/><path d="M220.7,343.78c-1.18,0-2.07-.36-2.69-1.08-.61-.72-.92-1.76-.92-3.12v-11.95h-2.96v-2.15h2.96v-6.2l2.45-1.19v7.38h4.44v2.15h-4.44v11.22c0,.93,.15,1.61,.46,2.02,.31,.42,.81,.62,1.5,.62,.84,0,1.72-.3,2.64-.91l-.28,2.41c-.47,.27-.97,.47-1.5,.6-.54,.13-1.09,.19-1.66,.19Z" style="fill:#1d1d1b;"/><path d="M237.07,343.36v-17.88h2.45v2.1c.51-.82,1.18-1.44,2.01-1.87s1.76-.65,2.78-.65c1.13,0,2.12,.28,2.97,.84s1.47,1.35,1.88,2.36c.5-1,1.22-1.79,2.14-2.35,.93-.57,1.96-.85,3.11-.85,1.86,0,3.33,.57,4.43,1.72,1.1,1.15,1.65,2.7,1.65,4.66v11.92h-2.45v-10.97c0-1.66-.33-2.92-1-3.78s-1.63-1.29-2.89-1.29c-.83,0-1.55,.22-2.18,.65-.62,.43-1.11,1.04-1.46,1.81-.35,.78-.52,1.67-.52,2.69v10.9h-2.45v-10.97c0-1.67-.32-2.93-.96-3.79-.64-.86-1.6-1.29-2.87-1.29s-2.32,.46-3.06,1.37c-.75,.92-1.12,2.17-1.12,3.75v10.92h-2.45Z" style="fill:#1d1d1b;"/><path d="M273.64,343.78c-2.36,0-4.22-.84-5.58-2.51-1.36-1.68-2.05-3.95-2.05-6.83,0-1.93,.31-3.59,.93-4.99,.62-1.4,1.5-2.48,2.64-3.25s2.5-1.15,4.06-1.15,2.93,.38,4.08,1.13,2.02,1.83,2.63,3.23,.92,3.06,.92,4.99-.31,3.59-.93,5-1.5,2.49-2.64,3.25-2.5,1.14-4.06,1.14Zm0-2.31c1.61,0,2.87-.62,3.77-1.87,.9-1.25,1.36-2.98,1.36-5.2s-.45-3.96-1.36-5.2c-.9-1.24-2.16-1.86-3.77-1.86s-2.9,.62-3.79,1.85-1.34,2.98-1.34,5.24,.45,3.96,1.35,5.19c.9,1.23,2.16,1.85,3.78,1.85Z" style="fill:#1d1d1b;"/><path d="M286.29,343.36v-17.88h2.45v2.1c.51-.82,1.18-1.44,2.01-1.87s1.76-.65,2.78-.65c1.13,0,2.12,.28,2.97,.84s1.47,1.35,1.88,2.36c.5-1,1.22-1.79,2.14-2.35,.93-.57,1.96-.85,3.11-.85,1.86,0,3.33,.57,4.43,1.72,1.1,1.15,1.65,2.7,1.65,4.66v11.92h-2.45v-10.97c0-1.66-.33-2.92-1-3.78s-1.63-1.29-2.89-1.29c-.83,0-1.55,.22-2.18,.65-.62,.43-1.11,1.04-1.46,1.81-.35,.78-.52,1.67-.52,2.69v10.9h-2.45v-10.97c0-1.67-.32-2.93-.96-3.79-.64-.86-1.6-1.29-2.87-1.29s-2.32,.46-3.06,1.37c-.75,.92-1.12,2.17-1.12,3.75v10.92h-2.45Z" style="fill:#1d1d1b;"/><path d="M322.92,343.78c-1.59,0-2.96-.39-4.1-1.18-1.15-.79-2.03-1.89-2.65-3.3-.62-1.41-.93-3.05-.93-4.9,0-1.97,.32-3.65,.97-5.05s1.55-2.46,2.7-3.19c1.16-.74,2.49-1.1,4.01-1.1,1.32,0,2.51,.31,3.59,.93s1.92,1.57,2.56,2.87c.63,1.29,.94,2.96,.94,4.99,0,.21,0,.45-.02,.71-.01,.26-.03,.53-.05,.81h-12.16c.09,1.24,.35,2.32,.76,3.25,.41,.93,.99,1.66,1.73,2.19,.74,.53,1.65,.79,2.74,.79,.74,0,1.44-.13,2.12-.39,.68-.26,1.31-.67,1.89-1.22l1.43,1.64c-.65,.62-1.46,1.13-2.41,1.54s-1.99,.61-3.12,.61Zm-5.18-10.57h9.77c0-1.11-.17-2.12-.5-3.03-.33-.91-.84-1.63-1.52-2.17-.68-.54-1.54-.8-2.56-.8-1.39,0-2.57,.48-3.54,1.44-.97,.96-1.52,2.48-1.64,4.57Z" style="fill:#1d1d1b;"/><path d="M335.26,343.36v-17.88h2.45v2.29c.5-.88,1.17-1.55,2-2.01,.83-.46,1.78-.7,2.84-.7,2.09,0,3.64,.64,4.66,1.93s1.52,3.25,1.52,5.87v10.5h-2.45v-10.94c0-1.67-.35-2.94-1.05-3.81-.7-.87-1.71-1.3-3.04-1.3-1.47,0-2.58,.45-3.34,1.35-.76,.9-1.14,2.22-1.14,3.97v10.73h-2.45Z" style="fill:#1d1d1b;"/><path d="M359,343.78c-1.18,0-2.07-.36-2.69-1.08-.61-.72-.92-1.76-.92-3.12v-11.95h-2.96v-2.15h2.96v-6.2l2.45-1.19v7.38h4.44v2.15h-4.44v11.22c0,.93,.15,1.61,.46,2.02,.31,.42,.81,.62,1.5,.62,.84,0,1.72-.3,2.64-.91l-.28,2.41c-.47,.27-.97,.47-1.5,.6-.54,.13-1.09,.19-1.66,.19Z" style="fill:#1d1d1b;"/><path d="M366.21,348.29l-.79-.38c.25-.28,.49-.62,.74-1.03,.25-.41,.46-.87,.64-1.37s.27-1.04,.3-1.6c-.56-.02-1.04-.21-1.43-.57s-.59-.8-.59-1.34c0-.61,.19-1.09,.57-1.46s.83-.55,1.34-.55c.56,0,1.06,.21,1.5,.62s.66,1.07,.66,1.97c0,.82-.13,1.59-.4,2.33-.27,.73-.63,1.39-1.08,1.98s-.94,1.06-1.46,1.42Z" style="fill:#1d1d1b;"/></g></g></g></svg>