<?xml version="1.0" encoding="UTF-8"?><svg xmlns="http://www.w3.org/2000/svg" viewBox="0 0 497.79 356.59"><g id="a"/><g id="b"><g id="c"><g><path d="M279.41,6.21c.82,9.78-1.43,15.84-6.48,24.02,2.07,2.04,5.46,3.44,7.93,4.28,8.92-17.6-1.77-34.17-2.44-34.51,.51,2.04,.84,4.11,.99,6.21Z" style="fill:#55b57e;"/><path d="M233.42,28.29c5.39,1.22,10.24,4.13,15.13,6.56,2.24,1.13,6.65,2.92,8.34,3.63,.65,.28,1.36,.38,2.07,.31,.86-.12,1.66-.47,2.33-1.02,11.6-8.79,16.58-17.23,17.18-31.55,.09-1.75,.09-3.51,0-5.27,0,4.77-2.44,26.96-30.01,20.59-12.53-2.89-24.13,4.23-29.18,9.03,4.18-2.74,9.32-3.57,14.15-2.29Z" style="fill:#55b57e;"/><path d="M271.72,32.07c-2.55,3.72-5.68,7-9.26,9.73-1.7,1.32-3.97,1.62-5.95,.79-.53-.24-3.14-1.55-3.71-1.83-1.9-.97-3.93-2.04-5.9-3.11-2.8,7.44-8.61,16.89-11.74,20.82,21.03,3.75,37.85-10.57,44.79-22.35-2.52-.86-5.94-1.96-8.22-4.05Z" style="fill:#55b57e;"/><path d="M244.7,36.45l-.52-.29c-2.74-1.63-5.57-3.1-8.47-4.4-7.4-3.24-14.25-2.35-19.8,2.63-2.63,3.5-4.36,7.61-5.03,11.94,7.13,5.86,13.97,9.43,20.45,11.26,2.55-3.15,10.6-13.45,13.37-21.13Z" style="fill:#55b57e;"/></g><g><path d="M83.96,153.36v-49h31.78v7.63h-23.7v12.25h14.52v7.63h-14.52v13.79h25.17v7.7h-33.25Z" style="fill:#3c885c;"/><path d="M137.79,153.36v-41.26h-13.83v-7.74h35.74v7.74h-13.83v41.26h-8.08Z" style="fill:#3c885c;"/><path d="M196.06,153.36l-17.18-49h8.68l11.24,33.42c.19,.54,.38,1.13,.58,1.79s.37,1.28,.51,1.89c.14-.58,.3-1.19,.49-1.82,.19-.63,.37-1.25,.56-1.86l11.03-33.42h8.64l-17.12,49h-7.42Z" style="fill:#3c885c;"/><path d="M247.44,154.2c-3.87,0-7.16-.74-9.87-2.22s-4.89-3.45-6.54-5.92c-1.66-2.46-2.86-5.19-3.62-8.17-.76-2.99-1.14-6-1.14-9.03s.38-6.04,1.14-9.03c.76-2.99,1.96-5.71,3.62-8.17,1.66-2.46,3.84-4.43,6.54-5.92s6-2.22,9.87-2.22,7.23,.74,9.92,2.22c2.69,1.48,4.87,3.45,6.53,5.92,1.66,2.46,2.86,5.19,3.6,8.17,.75,2.99,1.12,6,1.12,9.03s-.37,6.04-1.12,9.03-1.95,5.71-3.6,8.17c-1.66,2.46-3.83,4.43-6.53,5.92-2.7,1.48-6,2.22-9.92,2.22Zm0-7.73c2.38,0,4.38-.54,6-1.61,1.62-1.07,2.93-2.49,3.94-4.25,1-1.76,1.73-3.67,2.17-5.72,.44-2.05,.67-4.06,.67-6.02,0-2.12-.22-4.22-.65-6.3-.43-2.08-1.14-3.98-2.14-5.71s-2.3-3.1-3.94-4.13-3.65-1.54-6.05-1.54-4.39,.54-6.02,1.63c-1.63,1.08-2.95,2.5-3.96,4.25-1,1.75-1.73,3.66-2.17,5.74-.44,2.08-.67,4.09-.67,6.05,0,2.1,.23,4.19,.68,6.26,.46,2.08,1.18,3.97,2.17,5.69,.99,1.72,2.3,3.09,3.94,4.11,1.63,1.03,3.64,1.54,6.02,1.54Z" style="fill:#3c885c;"/><path d="M278.7,153.36v-49h8.08v49h-8.08Z" style="fill:#3c885c;"/><path d="M298.89,153.36v-49h8.08v41.2h23.83v7.8h-31.92Z" style="fill:#3c885c;"/><path d="M336.06,153.36l18.24-49h7.63l18.24,49h-8.58l-3.96-10.92h-19l-3.89,10.92h-8.68Zm19.63-53.55l-12.46-10.92h10.15l9.94,10.92h-7.63Zm-4.48,35.31h13.75l-5.39-14.8c-.14-.4-.3-.86-.49-1.4-.19-.54-.37-1.07-.56-1.59-.19-.53-.33-1-.42-1.42-.12,.42-.26,.89-.44,1.42-.17,.52-.36,1.06-.54,1.59-.19,.54-.35,1-.49,1.4l-5.42,14.8Z" style="fill:#3c885c;"/><path d="M407.25,154.23c-1.61,0-2.93-.54-3.97-1.63-1.04-1.08-1.56-2.37-1.56-3.87s.52-2.79,1.56-3.88c1.04-1.1,2.36-1.65,3.97-1.65s2.95,.55,4.01,1.65,1.59,2.39,1.59,3.88-.53,2.78-1.59,3.87-2.4,1.63-4.01,1.63Zm-1.89-14.38l-2-20.72v-15.61h7.88v15.61l-2.03,20.72h-3.85Z" style="fill:#3c885c;"/></g><g><path d="M55.4,208.36v-24.5h7.21c2.11,0,3.9,.35,5.36,1.05,1.46,.7,2.64,1.64,3.54,2.81,.9,1.17,1.55,2.49,1.97,3.94,.41,1.45,.62,2.94,.62,4.45,0,1.41-.19,2.83-.58,4.27-.38,1.44-1.02,2.76-1.9,3.96-.88,1.21-2.07,2.18-3.57,2.91s-3.36,1.1-5.59,1.1h-7.07Zm3.54-3.33h3.96c1.43,0,2.63-.26,3.6-.79,.96-.53,1.74-1.22,2.32-2.09,.58-.87,1-1.83,1.25-2.89,.25-1.06,.38-2.11,.38-3.16,0-1.12-.13-2.21-.4-3.28s-.69-2.03-1.28-2.88-1.32-1.53-2.22-2.04c-.9-.51-1.98-.76-3.25-.76h-4.34v17.88Z" style="fill:#9a97ff;"/><path d="M85.85,208.78c-1.67,0-3.11-.4-4.31-1.19-1.21-.79-2.13-1.9-2.78-3.31-.65-1.41-.97-3.04-.97-4.88,0-1.96,.33-3.64,1.01-5.03,.67-1.39,1.61-2.46,2.82-3.2,1.21-.74,2.62-1.11,4.24-1.11,1.38,0,2.63,.3,3.77,.9,1.14,.6,2.05,1.53,2.73,2.78s1.02,2.86,1.02,4.82c0,.28,0,.62-.03,1.01-.02,.39-.05,.79-.1,1.2h-11.95c.09,.99,.33,1.86,.73,2.62,.39,.75,.91,1.34,1.57,1.76s1.42,.63,2.31,.63c.78,0,1.49-.14,2.14-.41s1.24-.7,1.8-1.29l2.03,2.19c-.7,.73-1.56,1.34-2.57,1.81s-2.16,.71-3.45,.71Zm-4.57-10.92h8.63c-.02-.95-.2-1.78-.52-2.49-.32-.72-.78-1.28-1.38-1.69-.6-.41-1.33-.61-2.2-.61-1.2,0-2.23,.38-3.1,1.16-.86,.77-1.34,1.98-1.43,3.64Zm1.99-9.66l4.97-5.46h4.71l-6.23,5.46h-3.45Z" style="fill:#9a97ff;"/><path d="M102.9,208.78c-1.28,0-2.26-.38-2.93-1.13-.67-.75-1.01-1.85-1.01-3.28v-10.85h-2.8v-3.04h2.8v-5.71l3.48-1.68v7.38h4.29v3.04h-4.29v9.92c0,.75,.14,1.3,.41,1.65s.7,.53,1.29,.53c.84,0,1.75-.3,2.73-.89l-.4,3.25c-.54,.28-1.1,.48-1.68,.61-.58,.13-1.21,.19-1.89,.19Z" style="fill:#9a97ff;"/><path d="M118.02,208.78c-1.67,0-3.11-.4-4.31-1.19-1.21-.79-2.13-1.9-2.78-3.31-.65-1.41-.97-3.04-.97-4.88,0-1.96,.33-3.64,1.01-5.03,.67-1.39,1.61-2.46,2.82-3.2,1.21-.74,2.62-1.11,4.24-1.11,1.38,0,2.63,.3,3.77,.9,1.14,.6,2.05,1.53,2.73,2.78s1.02,2.86,1.02,4.82c0,.28,0,.62-.03,1.01-.02,.39-.05,.79-.1,1.2h-11.95c.09,.99,.33,1.86,.73,2.62,.39,.75,.91,1.34,1.57,1.76s1.42,.63,2.31,.63c.78,0,1.49-.14,2.14-.41s1.24-.7,1.8-1.29l2.03,2.19c-.7,.73-1.56,1.34-2.57,1.81s-2.16,.71-3.45,.71Zm-4.57-10.92h8.63c-.02-.95-.2-1.78-.52-2.49-.32-.72-.78-1.28-1.38-1.69-.6-.41-1.33-.61-2.2-.61-1.2,0-2.23,.38-3.1,1.16-.86,.77-1.34,1.98-1.43,3.64Z" style="fill:#9a97ff;"/><path d="M130.3,208.36v-17.88h3.48v1.79c.56-.75,1.23-1.3,2-1.66,.78-.36,1.67-.54,2.67-.54,2.11,0,3.7,.64,4.76,1.92s1.59,3.22,1.59,5.81v10.57h-3.48v-10.48c0-1.5-.31-2.64-.93-3.41-.62-.77-1.52-1.16-2.7-1.16-1.31,0-2.29,.37-2.94,1.12-.65,.75-.98,1.87-.98,3.38v10.55h-3.48Z" style="fill:#9a97ff;"/><path d="M157.09,208.78c-2.28,0-4.07-.84-5.39-2.51-1.32-1.67-1.98-3.96-1.98-6.87,0-1.9,.3-3.55,.91-4.95,.61-1.4,1.46-2.48,2.56-3.25,1.1-.76,2.41-1.15,3.91-1.15,1.7,0,3.14,.57,4.32,1.7v-7.05l3.48-1.61v25.27h-3.48v-1.42c-1.07,1.23-2.52,1.84-4.34,1.84Zm.53-3.29c.8,0,1.53-.18,2.19-.55,.65-.37,1.2-.9,1.63-1.58v-8c-.43-.63-.98-1.13-1.65-1.5-.67-.37-1.39-.55-2.16-.55-1.4,0-2.48,.52-3.24,1.58-.76,1.05-1.14,2.55-1.14,4.51,0,1.22,.18,2.3,.54,3.21,.36,.92,.87,1.62,1.52,2.13,.65,.5,1.42,.75,2.31,.75Z" style="fill:#9a97ff;"/><path d="M177.64,208.78c-1.67,0-3.11-.4-4.31-1.19-1.21-.79-2.13-1.9-2.78-3.31-.65-1.41-.97-3.04-.97-4.88,0-1.96,.33-3.64,1.01-5.03,.67-1.39,1.61-2.46,2.82-3.2,1.21-.74,2.62-1.11,4.24-1.11,1.38,0,2.63,.3,3.77,.9,1.14,.6,2.05,1.53,2.73,2.78s1.02,2.86,1.02,4.82c0,.28,0,.62-.03,1.01-.02,.39-.05,.79-.1,1.2h-11.95c.09,.99,.33,1.86,.73,2.62,.39,.75,.91,1.34,1.57,1.76s1.42,.63,2.31,.63c.78,0,1.49-.14,2.14-.41s1.24-.7,1.8-1.29l2.03,2.19c-.7,.73-1.56,1.34-2.57,1.81s-2.16,.71-3.45,.71Zm-4.57-10.92h8.63c-.02-.95-.2-1.78-.52-2.49-.32-.72-.78-1.28-1.38-1.69-.6-.41-1.33-.61-2.2-.61-1.2,0-2.23,.38-3.1,1.16-.86,.77-1.34,1.98-1.43,3.64Z" style="fill:#9a97ff;"/><path d="M188.59,208.36v-2.59l9.26-12.2h-8.58v-3.1h12.99v2.52l-9.28,12.25h9.24v3.12h-13.63Z" style="fill:#9a97ff;"/><path d="M207.07,199.63v-3.34h8.47v3.34h-8.47Z" style="fill:#9a97ff;"/><path d="M225.99,208.36l-6.54-17.88h3.57l4.06,11.5c.11,.28,.2,.56,.3,.85,.09,.29,.18,.58,.26,.88,.08-.3,.17-.6,.25-.88,.09-.29,.18-.57,.29-.85l4.01-11.5h3.54l-6.54,17.88h-3.19Z" style="fill:#9a97ff;"/><path d="M246.36,208.78c-2.47,0-4.42-.84-5.84-2.51-1.42-1.67-2.13-3.95-2.13-6.83,0-1.92,.32-3.59,.97-4.99,.65-1.4,1.57-2.48,2.77-3.25,1.2-.76,2.61-1.15,4.24-1.15s3.07,.38,4.26,1.13c1.2,.75,2.11,1.83,2.76,3.23,.64,1.4,.96,3.06,.96,4.99s-.32,3.6-.97,5-1.57,2.48-2.76,3.24c-1.19,.76-2.61,1.14-4.25,1.14Zm0-3.29c1.4,0,2.49-.54,3.28-1.61,.79-1.07,1.18-2.57,1.18-4.48s-.39-3.41-1.18-4.48c-.79-1.07-1.88-1.61-3.28-1.61s-2.49,.54-3.28,1.61c-.79,1.07-1.18,2.58-1.18,4.52s.39,3.39,1.18,4.45c.79,1.07,1.88,1.6,3.28,1.6Z" style="fill:#9a97ff;"/><path d="M265.28,208.78c-2.13,0-3.74-.64-4.81-1.92s-1.61-3.21-1.61-5.78v-10.6h3.48v10.45c0,1.52,.31,2.66,.92,3.42,.61,.76,1.52,1.15,2.72,1.15,1.31,0,2.28-.38,2.93-1.13,.65-.75,.97-1.88,.97-3.37v-10.52h3.48v17.88h-3.48v-1.7c-.56,.72-1.21,1.26-1.96,1.6-.75,.34-1.63,.52-2.64,.52Z" style="fill:#9a97ff;"/><path d="M284.53,208.78c-1.31,0-2.56-.28-3.75-.84-1.2-.56-2.17-1.31-2.91-2.26l2.42-2.05c.62,.67,1.31,1.18,2.08,1.55,.77,.37,1.52,.55,2.26,.55,1,0,1.78-.18,2.33-.55,.55-.37,.82-.88,.82-1.53,0-.42-.12-.8-.38-1.15s-.67-.68-1.27-1c-.6-.32-1.4-.67-2.42-1.04-1.98-.74-3.4-1.53-4.25-2.39s-1.28-1.93-1.28-3.23c0-1.42,.57-2.58,1.71-3.46s2.62-1.33,4.45-1.33c1.26,0,2.42,.24,3.46,.71,1.05,.47,1.95,1.16,2.71,2.06l-2.36,1.94c-1.06-1.11-2.34-1.66-3.85-1.66-.85,0-1.53,.16-2.03,.48-.5,.32-.75,.76-.75,1.32s.29,1.03,.86,1.43c.57,.41,1.62,.89,3.13,1.43,1.31,.46,2.37,.96,3.19,1.51,.82,.55,1.42,1.17,1.8,1.88,.38,.71,.57,1.52,.57,2.44,0,1.61-.58,2.88-1.74,3.8-1.16,.92-2.76,1.38-4.8,1.38Z" style="fill:#9a97ff;"/><path d="M311.21,208.78c-1.67,0-3.11-.4-4.31-1.19-1.21-.79-2.13-1.9-2.78-3.31-.65-1.41-.97-3.04-.97-4.88,0-1.96,.33-3.64,1.01-5.03,.67-1.39,1.61-2.46,2.82-3.2,1.21-.74,2.62-1.11,4.24-1.11,1.38,0,2.63,.3,3.77,.9,1.14,.6,2.05,1.53,2.73,2.78s1.02,2.86,1.02,4.82c0,.28,0,.62-.03,1.01-.02,.39-.05,.79-.1,1.2h-11.95c.09,.99,.33,1.86,.73,2.62,.39,.75,.91,1.34,1.57,1.76s1.42,.63,2.31,.63c.78,0,1.49-.14,2.14-.41s1.24-.7,1.8-1.29l2.03,2.19c-.7,.73-1.56,1.34-2.57,1.81s-2.16,.71-3.45,.71Zm-4.57-10.92h8.63c-.02-.95-.2-1.78-.52-2.49-.32-.72-.78-1.28-1.38-1.69-.6-.41-1.33-.61-2.2-.61-1.2,0-2.23,.38-3.1,1.16-.86,.77-1.34,1.98-1.43,3.64Z" style="fill:#9a97ff;"/><path d="M327.96,208.78c-1.28,0-2.26-.38-2.93-1.13-.67-.75-1.01-1.85-1.01-3.28v-10.85h-2.8v-3.04h2.8v-5.71l3.48-1.68v7.38h4.29v3.04h-4.29v9.92c0,.75,.14,1.3,.41,1.65s.7,.53,1.29,.53c.84,0,1.75-.3,2.73-.89l-.4,3.25c-.54,.28-1.1,.48-1.68,.61-.58,.13-1.21,.19-1.89,.19Z" style="fill:#9a97ff;"/><path d="M341.77,215.85l-1.7-2.7c1.73-.31,2.94-.76,3.64-1.32,.7-.57,1.05-1.39,1.05-2.48v-18.88h3.48v17.78c0,2.22-.52,3.95-1.57,5.19-1.04,1.24-2.68,2.04-4.91,2.41Zm4.74-28.3c-.59,0-1.1-.21-1.51-.62s-.62-.91-.62-1.5,.21-1.1,.62-1.52,.92-.63,1.51-.63,1.1,.21,1.5,.62,.61,.92,.61,1.53-.2,1.1-.6,1.5-.91,.61-1.51,.61Z" style="fill:#9a97ff;"/><path d="M360.91,208.78c-2.47,0-4.42-.84-5.84-2.51-1.42-1.67-2.13-3.95-2.13-6.83,0-1.92,.32-3.59,.97-4.99,.65-1.4,1.57-2.48,2.77-3.25,1.2-.76,2.61-1.15,4.24-1.15s3.07,.38,4.26,1.13c1.2,.75,2.11,1.83,2.76,3.23,.64,1.4,.96,3.06,.96,4.99s-.32,3.6-.97,5-1.57,2.48-2.76,3.24c-1.19,.76-2.61,1.14-4.25,1.14Zm0-3.29c1.4,0,2.49-.54,3.28-1.61,.79-1.07,1.18-2.57,1.18-4.48s-.39-3.41-1.18-4.48c-.79-1.07-1.88-1.61-3.28-1.61s-2.49,.54-3.28,1.61c-.79,1.07-1.18,2.58-1.18,4.52s.39,3.39,1.18,4.45c.79,1.07,1.88,1.6,3.28,1.6Z" style="fill:#9a97ff;"/><path d="M379.83,208.78c-2.13,0-3.74-.64-4.81-1.92s-1.61-3.21-1.61-5.78v-10.6h3.48v10.45c0,1.52,.31,2.66,.92,3.42,.61,.76,1.52,1.15,2.72,1.15,1.31,0,2.28-.38,2.93-1.13,.65-.75,.97-1.88,.97-3.37v-10.52h3.48v17.88h-3.48v-1.7c-.56,.72-1.21,1.26-1.96,1.6-.75,.34-1.63,.52-2.64,.52Z" style="fill:#9a97ff;"/><path d="M400.45,208.78c-1.67,0-3.11-.4-4.31-1.19-1.21-.79-2.13-1.9-2.78-3.31-.65-1.41-.97-3.04-.97-4.88,0-1.96,.33-3.64,1.01-5.03,.67-1.39,1.61-2.46,2.82-3.2,1.21-.74,2.62-1.11,4.24-1.11,1.38,0,2.63,.3,3.77,.9,1.14,.6,2.05,1.53,2.73,2.78s1.02,2.86,1.02,4.82c0,.28,0,.62-.03,1.01-.02,.39-.05,.79-.1,1.2h-11.95c.09,.99,.33,1.86,.73,2.62,.39,.75,.91,1.34,1.57,1.76s1.42,.63,2.31,.63c.78,0,1.49-.14,2.14-.41s1.24-.7,1.8-1.29l2.03,2.19c-.7,.73-1.56,1.34-2.57,1.81s-2.16,.71-3.45,.71Zm-4.57-10.92h8.63c-.02-.95-.2-1.78-.52-2.49-.32-.72-.78-1.28-1.38-1.69-.6-.41-1.33-.61-2.2-.61-1.2,0-2.23,.38-3.1,1.16-.86,.77-1.34,1.98-1.43,3.64Z" style="fill:#9a97ff;"/><path d="M411.4,208.36v-2.59l9.26-12.2h-8.58v-3.1h12.99v2.52l-9.28,12.25h9.24v3.12h-13.63Z" style="fill:#9a97ff;"/><path d="M440.71,208.81c-.75,0-1.36-.26-1.85-.77-.49-.51-.74-1.11-.74-1.8s.25-1.29,.74-1.81c.49-.52,1.11-.78,1.85-.78s1.37,.26,1.86,.78c.5,.52,.74,1.12,.74,1.81s-.25,1.29-.74,1.8c-.5,.51-1.12,.77-1.86,.77Zm-.72-7.21l-1-10.43v-7.74h3.5v7.74l-1.03,10.43h-1.47Z" style="fill:#9a97ff;"/><path d="M26.73,253.36v-24.5h6.32c2.08,0,3.83,.35,5.27,1.05,1.43,.7,2.59,1.64,3.46,2.81,.87,1.17,1.5,2.49,1.89,3.94,.39,1.45,.59,2.94,.59,4.45,0,1.41-.18,2.83-.54,4.27-.36,1.44-.97,2.76-1.82,3.96-.85,1.21-2.01,2.18-3.47,2.91s-3.3,1.1-5.5,1.1h-6.18Zm2.45-2.31h3.99c1.65,0,3.02-.29,4.11-.88,1.1-.59,1.97-1.37,2.62-2.35,.65-.97,1.12-2.05,1.39-3.22s.41-2.34,.41-3.49c0-1.25-.15-2.46-.45-3.65-.3-1.18-.78-2.25-1.43-3.2-.66-.95-1.51-1.71-2.56-2.27-1.04-.56-2.31-.84-3.81-.84h-4.29v19.9Z" style="fill:#1d1d1b;"/><path d="M56.2,253.78c-1.59,0-2.96-.39-4.1-1.18-1.15-.79-2.03-1.89-2.65-3.3-.62-1.41-.93-3.05-.93-4.9,0-1.97,.32-3.65,.97-5.05,.65-1.39,1.55-2.46,2.7-3.19,1.16-.74,2.49-1.1,4.01-1.1,1.32,0,2.51,.31,3.59,.93,1.07,.62,1.92,1.58,2.56,2.87,.63,1.29,.94,2.96,.94,4.99,0,.21,0,.45-.02,.71s-.03,.53-.05,.81h-12.16c.09,1.24,.35,2.32,.76,3.25,.41,.93,.99,1.66,1.73,2.19,.74,.53,1.65,.8,2.74,.8,.74,0,1.44-.13,2.12-.39,.68-.26,1.31-.67,1.89-1.22l1.43,1.65c-.65,.62-1.46,1.13-2.41,1.54s-1.99,.61-3.12,.61Zm-5.18-10.57h9.77c0-1.11-.17-2.12-.5-3.03-.33-.91-.84-1.63-1.52-2.17-.68-.54-1.54-.8-2.56-.8-1.39,0-2.57,.48-3.54,1.43-.97,.96-1.52,2.48-1.64,4.57Z" style="fill:#1d1d1b;"/><path d="M72.98,253.78c-1.19,0-2.33-.26-3.43-.77-1.1-.51-2.02-1.23-2.76-2.14l1.79-1.52c.64,.7,1.35,1.24,2.13,1.63,.78,.38,1.55,.58,2.31,.58,1.14,0,2.03-.23,2.65-.7,.62-.47,.94-1.12,.94-1.96,0-.52-.14-1-.43-1.43-.29-.43-.75-.84-1.39-1.22-.64-.38-1.49-.77-2.54-1.16-1.89-.7-3.25-1.47-4.08-2.3-.83-.83-1.24-1.87-1.24-3.11,0-1.38,.53-2.49,1.6-3.34s2.46-1.28,4.17-1.28c1.13,0,2.19,.22,3.18,.66s1.84,1.06,2.54,1.88l-1.72,1.44c-1.14-1.17-2.49-1.75-4.04-1.75-1.01,0-1.82,.21-2.41,.64s-.88,1.01-.88,1.76c0,.69,.3,1.28,.91,1.78,.61,.5,1.71,1.04,3.33,1.64,1.31,.49,2.36,1.01,3.15,1.55,.79,.54,1.37,1.16,1.72,1.85,.36,.69,.53,1.48,.53,2.38,0,1.53-.54,2.73-1.61,3.6s-2.55,1.31-4.43,1.31Z" style="fill:#1d1d1b;"/><path d="M98.76,253.78c-2.36,0-4.22-.84-5.58-2.51-1.36-1.67-2.05-3.95-2.05-6.83,0-1.92,.31-3.59,.93-4.99,.62-1.4,1.5-2.48,2.64-3.25,1.14-.76,2.5-1.15,4.06-1.15s2.93,.38,4.08,1.13c1.14,.75,2.02,1.83,2.63,3.23,.61,1.4,.92,3.06,.92,4.99s-.31,3.59-.93,5c-.62,1.41-1.5,2.49-2.64,3.25-1.14,.76-2.5,1.14-4.06,1.14Zm0-2.31c1.61,0,2.87-.62,3.77-1.87,.9-1.25,1.36-2.98,1.36-5.2s-.45-3.96-1.36-5.2c-.9-1.24-2.16-1.86-3.77-1.86s-2.9,.62-3.79,1.85c-.89,1.23-1.34,2.98-1.34,5.24s.45,3.96,1.35,5.19c.9,1.23,2.16,1.85,3.78,1.85Z" style="fill:#1d1d1b;"/><path d="M118.92,253.78c-.99,0-1.88-.18-2.65-.55-.78-.37-1.53-.95-2.27-1.74v1.87h-2.45v-24.1l2.45-1.17v9.29c.57-.74,1.28-1.31,2.12-1.71s1.73-.61,2.66-.61c1.48,0,2.76,.38,3.83,1.14,1.07,.76,1.9,1.84,2.49,3.24,.59,1.4,.88,3.06,.88,4.97,0,2.97-.62,5.28-1.86,6.92-1.24,1.64-2.97,2.46-5.21,2.46Zm-.32-2.31c1.55,0,2.75-.62,3.59-1.85,.84-1.23,1.26-2.97,1.26-5.22s-.42-4.05-1.25-5.25c-.83-1.2-2.05-1.8-3.65-1.8-.86,0-1.72,.26-2.58,.79-.86,.52-1.51,1.2-1.97,2.01v8.49c.5,.86,1.16,1.55,1.98,2.06,.82,.51,1.69,.77,2.62,.77Z" style="fill:#1d1d1b;"/><path d="M127.86,260.83l-1.17-1.89c1.63-.22,2.79-.65,3.48-1.29s1.03-1.59,1.03-2.86v-19.32h2.45v18.55c0,2.04-.47,3.62-1.4,4.74-.93,1.12-2.4,1.81-4.39,2.07Zm4.58-28.95c-.46,0-.84-.16-1.16-.47-.32-.31-.47-.69-.47-1.14,0-.47,.16-.86,.47-1.18s.69-.48,1.14-.48,.82,.16,1.14,.47c.31,.32,.47,.71,.47,1.19,0,.44-.15,.82-.45,1.14-.3,.32-.68,.47-1.15,.47Z" style="fill:#1d1d1b;"/><path d="M146.53,253.78c-1.59,0-2.96-.39-4.1-1.18-1.15-.79-2.03-1.89-2.65-3.3-.62-1.41-.93-3.05-.93-4.9,0-1.97,.32-3.65,.97-5.05,.65-1.39,1.55-2.46,2.7-3.19,1.16-.74,2.49-1.1,4.01-1.1,1.32,0,2.51,.31,3.59,.93,1.07,.62,1.92,1.58,2.56,2.87,.63,1.29,.94,2.96,.94,4.99,0,.21,0,.45-.02,.71s-.03,.53-.05,.81h-12.16c.09,1.24,.35,2.32,.76,3.25,.41,.93,.99,1.66,1.73,2.19,.74,.53,1.65,.8,2.74,.8,.74,0,1.44-.13,2.12-.39,.68-.26,1.31-.67,1.89-1.22l1.43,1.65c-.65,.62-1.46,1.13-2.41,1.54s-1.99,.61-3.12,.61Zm-5.18-10.57h9.77c0-1.11-.17-2.12-.5-3.03-.33-.91-.84-1.63-1.52-2.17-.68-.54-1.54-.8-2.56-.8-1.39,0-2.57,.48-3.54,1.43-.97,.96-1.52,2.48-1.64,4.57Z" style="fill:#1d1d1b;"/><path d="M164.96,253.78c-1.47,0-2.74-.38-3.8-1.13-1.06-.75-1.88-1.83-2.44-3.22-.57-1.39-.85-3.06-.85-5s.29-3.62,.88-5.02c.58-1.4,1.42-2.48,2.5-3.23,1.08-.75,2.38-1.13,3.89-1.13s2.66,.35,3.68,1.04c1.02,.69,1.76,1.69,2.23,2.98l-2.33,.86c-.3-.83-.76-1.46-1.38-1.91-.62-.44-1.34-.67-2.17-.67-1.55,0-2.73,.6-3.54,1.8-.81,1.2-1.22,2.96-1.22,5.27s.4,3.94,1.21,5.17c.8,1.23,1.94,1.85,3.39,1.85,.96,0,1.78-.26,2.47-.77,.69-.51,1.17-1.21,1.43-2.1l2.31,.77c-.41,1.4-1.16,2.49-2.27,3.26-1.1,.78-2.44,1.16-4,1.16Z" style="fill:#1d1d1b;"/><path d="M180.5,253.78c-1.18,0-2.07-.36-2.69-1.08-.61-.72-.92-1.76-.92-3.12v-11.95h-2.96v-2.15h2.96v-6.2l2.45-1.19v7.38h4.44v2.15h-4.44v11.22c0,.93,.15,1.61,.46,2.02,.31,.42,.81,.62,1.5,.62,.84,0,1.72-.3,2.64-.91l-.28,2.42c-.47,.27-.97,.47-1.5,.59-.54,.13-1.09,.19-1.66,.19Z" style="fill:#1d1d1b;"/><path d="M189.39,231.89c-.44,0-.82-.16-1.13-.47-.31-.31-.46-.69-.46-1.14,0-.47,.15-.86,.46-1.18,.31-.32,.69-.48,1.13-.48,.47,0,.85,.16,1.16,.48,.31,.32,.46,.71,.46,1.18s-.15,.82-.46,1.14c-.31,.32-.7,.47-1.16,.47Zm-1.21,21.47v-17.88h2.45v17.88h-2.45Z" style="fill:#1d1d1b;"/><path d="M197.81,253.36v-15.73h-2.8v-2.15h2.8v-3.06c0-1.28,.32-2.27,.97-2.95s1.57-1.02,2.77-1.02c.5,0,1,.06,1.5,.19,.5,.13,.97,.32,1.43,.56v2.07c-.48-.22-.9-.38-1.28-.47-.37-.09-.75-.14-1.14-.14-.64,0-1.1,.17-1.38,.5-.28,.33-.42,.89-.42,1.67v2.66h4.22v2.15h-4.22v15.73h-2.45Z" style="fill:#1d1d1b;"/><path d="M212.51,253.78c-1.19,0-2.33-.26-3.43-.77-1.1-.51-2.02-1.23-2.76-2.14l1.79-1.52c.64,.7,1.35,1.24,2.13,1.63,.78,.38,1.55,.58,2.31,.58,1.14,0,2.03-.23,2.65-.7,.62-.47,.94-1.12,.94-1.96,0-.52-.14-1-.43-1.43-.29-.43-.75-.84-1.39-1.22-.64-.38-1.49-.77-2.54-1.16-1.89-.7-3.25-1.47-4.08-2.3-.83-.83-1.24-1.87-1.24-3.11,0-1.38,.53-2.49,1.6-3.34s2.46-1.28,4.17-1.28c1.13,0,2.19,.22,3.18,.66s1.84,1.06,2.54,1.88l-1.72,1.44c-1.14-1.17-2.49-1.75-4.04-1.75-1.01,0-1.82,.21-2.41,.64s-.88,1.01-.88,1.76c0,.69,.3,1.28,.91,1.78,.61,.5,1.71,1.04,3.33,1.64,1.31,.49,2.36,1.01,3.15,1.55,.79,.54,1.37,1.16,1.72,1.85,.36,.69,.53,1.48,.53,2.38,0,1.53-.54,2.73-1.61,3.6s-2.55,1.31-4.43,1.31Z" style="fill:#1d1d1b;"/><path d="M238.34,253.78c-1.59,0-2.96-.39-4.1-1.18-1.15-.79-2.03-1.89-2.65-3.3-.62-1.41-.93-3.05-.93-4.9,0-1.97,.32-3.65,.97-5.05,.65-1.39,1.55-2.46,2.7-3.19,1.16-.74,2.49-1.1,4.01-1.1,1.32,0,2.51,.31,3.59,.93,1.07,.62,1.92,1.58,2.56,2.87,.63,1.29,.94,2.96,.94,4.99,0,.21,0,.45-.02,.71s-.03,.53-.05,.81h-12.16c.09,1.24,.35,2.32,.76,3.25,.41,.93,.99,1.66,1.73,2.19,.74,.53,1.65,.8,2.74,.8,.74,0,1.44-.13,2.12-.39,.68-.26,1.31-.67,1.89-1.22l1.43,1.65c-.65,.62-1.46,1.13-2.41,1.54s-1.99,.61-3.12,.61Zm-5.18-10.57h9.77c0-1.11-.17-2.12-.5-3.03-.33-.91-.84-1.63-1.52-2.17-.68-.54-1.54-.8-2.56-.8-1.39,0-2.57,.48-3.54,1.43-.97,.96-1.52,2.48-1.64,4.57Z" style="fill:#1d1d1b;"/><path d="M254.73,253.78c-1.18,0-2.07-.36-2.69-1.08-.61-.72-.92-1.76-.92-3.12v-11.95h-2.96v-2.15h2.96v-6.2l2.45-1.19v7.38h4.44v2.15h-4.44v11.22c0,.93,.15,1.61,.46,2.02,.31,.42,.81,.62,1.5,.62,.84,0,1.72-.3,2.64-.91l-.28,2.42c-.47,.27-.97,.47-1.5,.59-.54,.13-1.09,.19-1.66,.19Z" style="fill:#1d1d1b;"/><path d="M271.09,253.36v-17.88h2.45v2.83c.44-1.05,1.06-1.86,1.85-2.42,.79-.56,1.7-.84,2.74-.84s1.95,.29,2.62,.86l-.37,2.33c-.35-.25-.73-.43-1.15-.54-.41-.12-.86-.18-1.34-.18-.86,0-1.62,.25-2.28,.74s-1.16,1.17-1.53,2.04-.55,1.88-.55,3.04v10.03h-2.45Z" style="fill:#1d1d1b;"/><path d="M290.33,253.78c-1.59,0-2.96-.39-4.1-1.18-1.15-.79-2.03-1.89-2.65-3.3-.62-1.41-.93-3.05-.93-4.9,0-1.97,.32-3.65,.97-5.05,.65-1.39,1.55-2.46,2.7-3.19,1.16-.74,2.49-1.1,4.01-1.1,1.32,0,2.51,.31,3.59,.93,1.07,.62,1.92,1.58,2.56,2.87,.63,1.29,.94,2.96,.94,4.99,0,.21,0,.45-.02,.71s-.03,.53-.05,.81h-12.16c.09,1.24,.35,2.32,.76,3.25,.41,.93,.99,1.66,1.73,2.19,.74,.53,1.65,.8,2.74,.8,.74,0,1.44-.13,2.12-.39,.68-.26,1.31-.67,1.89-1.22l1.43,1.65c-.65,.62-1.46,1.13-2.41,1.54s-1.99,.61-3.12,.61Zm-5.18-10.57h9.77c0-1.11-.17-2.12-.5-3.03-.33-.91-.84-1.63-1.52-2.17-.68-.54-1.54-.8-2.56-.8-1.39,0-2.57,.48-3.54,1.43-.97,.96-1.52,2.48-1.64,4.57Zm3.4-10.01l5.08-5.46h3.53l-6.12,5.46h-2.48Z" style="fill:#1d1d1b;"/><path d="M308.37,253.78c-1.47,0-2.74-.38-3.8-1.13-1.06-.75-1.88-1.83-2.44-3.22-.57-1.39-.85-3.06-.85-5s.29-3.62,.88-5.02c.58-1.4,1.42-2.48,2.5-3.23,1.08-.75,2.38-1.13,3.89-1.13s2.66,.35,3.68,1.04c1.02,.69,1.76,1.69,2.23,2.98l-2.33,.86c-.3-.83-.76-1.46-1.38-1.91-.62-.44-1.34-.67-2.17-.67-1.55,0-2.73,.6-3.54,1.8-.81,1.2-1.22,2.96-1.22,5.27s.4,3.94,1.21,5.17c.8,1.23,1.94,1.85,3.39,1.85,.96,0,1.78-.26,2.47-.77,.69-.51,1.17-1.21,1.43-2.1l2.31,.77c-.41,1.4-1.16,2.49-2.27,3.26-1.1,.78-2.44,1.16-4,1.16Z" style="fill:#1d1d1b;"/><path d="M326.17,253.78c-2.36,0-4.22-.84-5.58-2.51-1.36-1.67-2.05-3.95-2.05-6.83,0-1.92,.31-3.59,.93-4.99,.62-1.4,1.5-2.48,2.64-3.25,1.14-.76,2.5-1.15,4.06-1.15s2.93,.38,4.08,1.13c1.14,.75,2.02,1.83,2.63,3.23,.61,1.4,.92,3.06,.92,4.99s-.31,3.59-.93,5c-.62,1.41-1.5,2.49-2.64,3.25-1.14,.76-2.5,1.14-4.06,1.14Zm0-2.31c1.61,0,2.87-.62,3.77-1.87,.9-1.25,1.36-2.98,1.36-5.2s-.45-3.96-1.36-5.2c-.9-1.24-2.16-1.86-3.77-1.86s-2.9,.62-3.79,1.85c-.89,1.23-1.34,2.98-1.34,5.24s.45,3.96,1.35,5.19c.9,1.23,2.16,1.85,3.78,1.85Z" style="fill:#1d1d1b;"/><path d="M338.82,253.36v-17.88h2.45v2.1c.51-.82,1.18-1.44,2.01-1.87s1.76-.65,2.78-.65c1.13,0,2.12,.28,2.97,.84,.85,.56,1.47,1.35,1.88,2.36,.5-1,1.22-1.79,2.14-2.35,.93-.57,1.96-.85,3.11-.85,1.86,0,3.33,.57,4.43,1.72s1.65,2.7,1.65,4.66v11.92h-2.45v-10.97c0-1.66-.33-2.92-1-3.78-.67-.86-1.63-1.29-2.89-1.29-.83,0-1.55,.22-2.18,.65-.62,.43-1.11,1.04-1.46,1.81-.35,.78-.52,1.67-.52,2.69v10.9h-2.45v-10.97c0-1.67-.32-2.93-.96-3.79-.64-.86-1.6-1.29-2.87-1.29s-2.32,.46-3.06,1.37c-.75,.92-1.12,2.17-1.12,3.75v10.92h-2.45Z" style="fill:#1d1d1b;"/><path d="M368.76,260.46v-24.99h2.45v1.87c1.27-1.53,2.91-2.29,4.9-2.29,1.47,0,2.74,.38,3.82,1.14,1.07,.76,1.9,1.84,2.48,3.24,.58,1.4,.88,3.06,.88,4.97s-.29,3.59-.88,5c-.59,1.41-1.43,2.49-2.52,3.25-1.09,.76-2.38,1.14-3.88,1.14-1,0-1.91-.21-2.71-.64s-1.5-1.05-2.08-1.88v8.03l-2.45,1.17Zm7-9c1.61,0,2.85-.61,3.71-1.84,.86-1.22,1.29-2.97,1.29-5.23s-.45-3.89-1.36-5.15c-.9-1.27-2.12-1.9-3.65-1.9-.96,0-1.83,.24-2.62,.72-.79,.48-1.44,1.16-1.93,2.03v8.49c.62,.95,1.31,1.66,2.08,2.15,.77,.49,1.59,.74,2.47,.74Z" style="fill:#1d1d1b;"/><path d="M395.36,253.78c-1.59,0-2.96-.39-4.1-1.18-1.15-.79-2.03-1.89-2.65-3.3-.62-1.41-.93-3.05-.93-4.9,0-1.97,.32-3.65,.97-5.05,.65-1.39,1.55-2.46,2.7-3.19,1.16-.74,2.49-1.1,4.01-1.1,1.32,0,2.51,.31,3.59,.93,1.07,.62,1.92,1.58,2.56,2.87,.63,1.29,.94,2.96,.94,4.99,0,.21,0,.45-.02,.71s-.03,.53-.05,.81h-12.16c.09,1.24,.35,2.32,.76,3.25,.41,.93,.99,1.66,1.73,2.19,.74,.53,1.65,.8,2.74,.8,.74,0,1.44-.13,2.12-.39,.68-.26,1.31-.67,1.89-1.22l1.43,1.65c-.65,.62-1.46,1.13-2.41,1.54s-1.99,.61-3.12,.61Zm-5.18-10.57h9.77c0-1.11-.17-2.12-.5-3.03-.33-.91-.84-1.63-1.52-2.17-.68-.54-1.54-.8-2.56-.8-1.39,0-2.57,.48-3.54,1.43-.97,.96-1.52,2.48-1.64,4.57Z" style="fill:#1d1d1b;"/><path d="M407.7,253.36v-17.88h2.45v2.29c.5-.88,1.17-1.55,2-2.01,.83-.47,1.78-.7,2.84-.7,2.09,0,3.64,.64,4.66,1.93s1.52,3.25,1.52,5.87v10.5h-2.45v-10.94c0-1.67-.35-2.94-1.05-3.81-.7-.87-1.71-1.3-3.04-1.3-1.47,0-2.58,.45-3.34,1.35-.76,.9-1.14,2.22-1.14,3.97v10.73h-2.45Z" style="fill:#1d1d1b;"/><path d="M432.35,253.78c-1.19,0-2.33-.26-3.43-.77-1.1-.51-2.02-1.23-2.76-2.14l1.79-1.52c.64,.7,1.35,1.24,2.13,1.63,.78,.38,1.55,.58,2.31,.58,1.14,0,2.03-.23,2.65-.7,.62-.47,.94-1.12,.94-1.96,0-.52-.14-1-.43-1.43-.29-.43-.75-.84-1.39-1.22-.64-.38-1.49-.77-2.54-1.16-1.89-.7-3.25-1.47-4.08-2.3-.83-.83-1.24-1.87-1.24-3.11,0-1.38,.53-2.49,1.6-3.34s2.46-1.28,4.17-1.28c1.13,0,2.19,.22,3.18,.66s1.84,1.06,2.54,1.88l-1.72,1.44c-1.14-1.17-2.49-1.75-4.04-1.75-1.01,0-1.82,.21-2.41,.64s-.88,1.01-.88,1.76c0,.69,.3,1.28,.91,1.78,.61,.5,1.71,1.04,3.33,1.64,1.31,.49,2.36,1.01,3.15,1.55,.79,.54,1.37,1.16,1.72,1.85,.36,.69,.53,1.48,.53,2.38,0,1.53-.54,2.73-1.61,3.6s-2.55,1.31-4.43,1.31Z" style="fill:#1d1d1b;"/><path d="M449.78,253.78c-1.59,0-2.96-.39-4.1-1.18-1.15-.79-2.03-1.89-2.65-3.3-.62-1.41-.93-3.05-.93-4.9,0-1.97,.32-3.65,.97-5.05,.65-1.39,1.55-2.46,2.7-3.19,1.16-.74,2.49-1.1,4.01-1.1,1.32,0,2.51,.31,3.59,.93,1.07,.62,1.92,1.58,2.56,2.87,.63,1.29,.94,2.96,.94,4.99,0,.21,0,.45-.02,.71s-.03,.53-.05,.81h-12.16c.09,1.24,.35,2.32,.76,3.25,.41,.93,.99,1.66,1.73,2.19,.74,.53,1.65,.8,2.74,.8,.74,0,1.44-.13,2.12-.39,.68-.26,1.31-.67,1.89-1.22l1.43,1.65c-.65,.62-1.46,1.13-2.41,1.54s-1.99,.61-3.12,.61Zm-5.18-10.57h9.77c0-1.11-.17-2.12-.5-3.03-.33-.91-.84-1.63-1.52-2.17-.68-.54-1.54-.8-2.56-.8-1.39,0-2.57,.48-3.54,1.43-.97,.96-1.52,2.48-1.64,4.57Z" style="fill:#1d1d1b;"/><path d="M466.56,253.78c-1.19,0-2.33-.26-3.43-.77-1.1-.51-2.02-1.23-2.76-2.14l1.79-1.52c.64,.7,1.35,1.24,2.13,1.63,.78,.38,1.55,.58,2.31,.58,1.14,0,2.03-.23,2.65-.7,.62-.47,.94-1.12,.94-1.96,0-.52-.14-1-.43-1.43-.29-.43-.75-.84-1.39-1.22-.64-.38-1.49-.77-2.54-1.16-1.89-.7-3.25-1.47-4.08-2.3-.83-.83-1.24-1.87-1.24-3.11,0-1.38,.53-2.49,1.6-3.34s2.46-1.28,4.17-1.28c1.13,0,2.19,.22,3.18,.66s1.84,1.06,2.54,1.88l-1.72,1.44c-1.14-1.17-2.49-1.75-4.04-1.75-1.01,0-1.82,.21-2.41,.64s-.88,1.01-.88,1.76c0,.69,.3,1.28,.91,1.78,.61,.5,1.71,1.04,3.33,1.64,1.31,.49,2.36,1.01,3.15,1.55,.79,.54,1.37,1.16,1.72,1.85,.36,.69,.53,1.48,.53,2.38,0,1.53-.54,2.73-1.61,3.6s-2.55,1.31-4.43,1.31Z" style="fill:#1d1d1b;"/><path d="M23.49,305.46v-24.99h2.45v1.87c1.27-1.53,2.91-2.29,4.9-2.29,1.47,0,2.74,.38,3.82,1.14,1.07,.76,1.9,1.84,2.48,3.24,.58,1.4,.88,3.06,.88,4.97s-.29,3.59-.88,5c-.59,1.41-1.43,2.49-2.52,3.25-1.09,.76-2.38,1.14-3.88,1.14-1,0-1.91-.21-2.71-.64s-1.5-1.05-2.08-1.88v8.03l-2.45,1.17Zm7-9c1.61,0,2.85-.61,3.71-1.84,.86-1.22,1.29-2.97,1.29-5.23s-.45-3.89-1.36-5.15c-.9-1.27-2.12-1.9-3.65-1.9-.96,0-1.83,.24-2.62,.72-.79,.48-1.44,1.16-1.93,2.03v8.49c.62,.95,1.31,1.66,2.08,2.15,.77,.49,1.59,.74,2.47,.74Z" style="fill:#1d1d1b;"/><path d="M50.09,298.78c-1.59,0-2.96-.39-4.1-1.18-1.15-.79-2.03-1.89-2.65-3.3-.62-1.41-.93-3.05-.93-4.9,0-1.97,.32-3.65,.97-5.05,.65-1.39,1.55-2.46,2.7-3.19,1.16-.74,2.49-1.1,4.01-1.1,1.32,0,2.51,.31,3.59,.93,1.07,.62,1.92,1.58,2.56,2.87,.63,1.29,.94,2.96,.94,4.99,0,.21,0,.45-.02,.71s-.03,.53-.05,.81h-12.16c.09,1.24,.35,2.32,.76,3.25,.41,.93,.99,1.66,1.73,2.19,.74,.53,1.65,.8,2.74,.8,.74,0,1.44-.13,2.12-.39,.68-.26,1.31-.67,1.89-1.22l1.43,1.65c-.65,.62-1.46,1.13-2.41,1.54s-1.99,.61-3.12,.61Zm-5.18-10.57h9.77c0-1.11-.17-2.12-.5-3.03-.33-.91-.84-1.63-1.52-2.17-.68-.54-1.54-.8-2.56-.8-1.39,0-2.57,.48-3.54,1.43-.97,.96-1.52,2.48-1.64,4.57Z" style="fill:#1d1d1b;"/><path d="M62.43,298.36v-17.88h2.45v2.83c.44-1.05,1.06-1.86,1.85-2.42,.79-.56,1.7-.84,2.74-.84s1.95,.29,2.62,.86l-.37,2.33c-.35-.25-.73-.43-1.15-.54-.41-.12-.86-.18-1.34-.18-.86,0-1.62,.25-2.28,.74s-1.16,1.17-1.53,2.04-.55,1.88-.55,3.04v10.03h-2.45Z" style="fill:#1d1d1b;"/><path d="M80.68,298.78c-1.19,0-2.33-.26-3.43-.77-1.1-.51-2.02-1.23-2.76-2.14l1.79-1.52c.64,.7,1.35,1.24,2.13,1.63,.78,.38,1.55,.58,2.31,.58,1.14,0,2.03-.23,2.65-.7,.62-.47,.94-1.12,.94-1.96,0-.52-.14-1-.43-1.43-.29-.43-.75-.84-1.39-1.22-.64-.38-1.49-.77-2.54-1.16-1.89-.7-3.25-1.47-4.08-2.3-.83-.83-1.24-1.87-1.24-3.11,0-1.38,.53-2.49,1.6-3.34s2.46-1.28,4.17-1.28c1.13,0,2.19,.22,3.18,.66s1.84,1.06,2.54,1.88l-1.72,1.44c-1.14-1.17-2.49-1.75-4.04-1.75-1.01,0-1.82,.21-2.41,.64s-.88,1.01-.88,1.76c0,.69,.3,1.28,.91,1.78,.61,.5,1.71,1.04,3.33,1.64,1.31,.49,2.36,1.01,3.15,1.55,.79,.54,1.37,1.16,1.72,1.85,.36,.69,.53,1.48,.53,2.38,0,1.53-.54,2.73-1.61,3.6s-2.55,1.31-4.43,1.31Z" style="fill:#1d1d1b;"/><path d="M98.06,298.78c-2.36,0-4.22-.84-5.58-2.51-1.36-1.67-2.05-3.95-2.05-6.83,0-1.92,.31-3.59,.93-4.99,.62-1.4,1.5-2.48,2.64-3.25,1.14-.76,2.5-1.15,4.06-1.15s2.93,.38,4.08,1.13c1.14,.75,2.02,1.83,2.63,3.23,.61,1.4,.92,3.06,.92,4.99s-.31,3.59-.93,5c-.62,1.41-1.5,2.49-2.64,3.25-1.14,.76-2.5,1.14-4.06,1.14Zm0-2.31c1.61,0,2.87-.62,3.77-1.87,.9-1.25,1.36-2.98,1.36-5.2s-.45-3.96-1.36-5.2c-.9-1.24-2.16-1.86-3.77-1.86s-2.9,.62-3.79,1.85c-.89,1.23-1.34,2.98-1.34,5.24s.45,3.96,1.35,5.19c.9,1.23,2.16,1.85,3.78,1.85Z" style="fill:#1d1d1b;"/><path d="M110.71,298.36v-17.88h2.45v2.29c.5-.88,1.17-1.55,2-2.01,.83-.47,1.78-.7,2.84-.7,2.09,0,3.64,.64,4.66,1.93s1.52,3.25,1.52,5.87v10.5h-2.45v-10.94c0-1.67-.35-2.94-1.05-3.81-.7-.87-1.71-1.3-3.04-1.3-1.47,0-2.58,.45-3.34,1.35-.76,.9-1.14,2.22-1.14,3.97v10.73h-2.45Z" style="fill:#1d1d1b;"/><path d="M130.73,298.36v-17.88h2.45v2.29c.5-.88,1.17-1.55,2-2.01,.83-.47,1.78-.7,2.84-.7,2.09,0,3.64,.64,4.66,1.93s1.52,3.25,1.52,5.87v10.5h-2.45v-10.94c0-1.67-.35-2.94-1.05-3.81-.7-.87-1.71-1.3-3.04-1.3-1.47,0-2.58,.45-3.34,1.35-.76,.9-1.14,2.22-1.14,3.97v10.73h-2.45Z" style="fill:#1d1d1b;"/><path d="M157.43,298.78c-1.59,0-2.96-.39-4.1-1.18-1.15-.79-2.03-1.89-2.65-3.3-.62-1.41-.93-3.05-.93-4.9,0-1.97,.32-3.65,.97-5.05,.65-1.39,1.55-2.46,2.7-3.19,1.16-.74,2.49-1.1,4.01-1.1,1.32,0,2.51,.31,3.59,.93,1.07,.62,1.92,1.58,2.56,2.87,.63,1.29,.94,2.96,.94,4.99,0,.21,0,.45-.02,.71s-.03,.53-.05,.81h-12.16c.09,1.24,.35,2.32,.76,3.25,.41,.93,.99,1.66,1.73,2.19,.74,.53,1.65,.8,2.74,.8,.74,0,1.44-.13,2.12-.39,.68-.26,1.31-.67,1.89-1.22l1.43,1.65c-.65,.62-1.46,1.13-2.41,1.54s-1.99,.61-3.12,.61Zm-5.18-10.57h9.77c0-1.11-.17-2.12-.5-3.03-.33-.91-.84-1.63-1.52-2.17-.68-.54-1.54-.8-2.56-.8-1.39,0-2.57,.48-3.54,1.43-.97,.96-1.52,2.48-1.64,4.57Z" style="fill:#1d1d1b;"/><path d="M169.61,298.36v-24.1l2.45-1.17v25.27h-2.45Z" style="fill:#1d1d1b;"/><path d="M178.56,298.36v-24.1l2.45-1.17v25.27h-2.45Z" style="fill:#1d1d1b;"/><path d="M193.96,298.78c-1.59,0-2.96-.39-4.1-1.18-1.15-.79-2.03-1.89-2.65-3.3-.62-1.41-.93-3.05-.93-4.9,0-1.97,.32-3.65,.97-5.05,.65-1.39,1.55-2.46,2.7-3.19,1.16-.74,2.49-1.1,4.01-1.1,1.32,0,2.51,.31,3.59,.93,1.07,.62,1.92,1.58,2.56,2.87,.63,1.29,.94,2.96,.94,4.99,0,.21,0,.45-.02,.71s-.03,.53-.05,.81h-12.16c.09,1.24,.35,2.32,.76,3.25,.41,.93,.99,1.66,1.73,2.19,.74,.53,1.65,.8,2.74,.8,.74,0,1.44-.13,2.12-.39,.68-.26,1.31-.67,1.89-1.22l1.43,1.65c-.65,.62-1.46,1.13-2.41,1.54s-1.99,.61-3.12,.61Zm-5.18-10.57h9.77c0-1.11-.17-2.12-.5-3.03-.33-.91-.84-1.63-1.52-2.17-.68-.54-1.54-.8-2.56-.8-1.39,0-2.57,.48-3.54,1.43-.97,.96-1.52,2.48-1.64,4.57Z" style="fill:#1d1d1b;"/><path d="M210.74,298.78c-1.19,0-2.33-.26-3.43-.77-1.1-.51-2.02-1.23-2.76-2.14l1.79-1.52c.64,.7,1.35,1.24,2.13,1.63,.78,.38,1.55,.58,2.31,.58,1.14,0,2.03-.23,2.65-.7,.62-.47,.94-1.12,.94-1.96,0-.52-.14-1-.43-1.43-.29-.43-.75-.84-1.39-1.22-.64-.38-1.49-.77-2.54-1.16-1.89-.7-3.25-1.47-4.08-2.3-.83-.83-1.24-1.87-1.24-3.11,0-1.38,.53-2.49,1.6-3.34s2.46-1.28,4.17-1.28c1.13,0,2.19,.22,3.18,.66s1.84,1.06,2.54,1.88l-1.72,1.44c-1.14-1.17-2.49-1.75-4.04-1.75-1.01,0-1.82,.21-2.41,.64s-.88,1.01-.88,1.76c0,.69,.3,1.28,.91,1.78,.61,.5,1.71,1.04,3.33,1.64,1.31,.49,2.36,1.01,3.15,1.55,.79,.54,1.37,1.16,1.72,1.85,.36,.69,.53,1.48,.53,2.38,0,1.53-.54,2.73-1.61,3.6s-2.55,1.31-4.43,1.31Z" style="fill:#1d1d1b;"/><path d="M235.06,298.78c-1.19,0-2.33-.26-3.43-.77-1.1-.51-2.02-1.23-2.76-2.14l1.79-1.52c.64,.7,1.35,1.24,2.13,1.63,.78,.38,1.55,.58,2.31,.58,1.14,0,2.03-.23,2.65-.7,.62-.47,.94-1.12,.94-1.96,0-.52-.14-1-.43-1.43-.29-.43-.75-.84-1.39-1.22-.64-.38-1.49-.77-2.54-1.16-1.89-.7-3.25-1.47-4.08-2.3-.83-.83-1.24-1.87-1.24-3.11,0-1.38,.53-2.49,1.6-3.34s2.46-1.28,4.17-1.28c1.13,0,2.19,.22,3.18,.66s1.84,1.06,2.54,1.88l-1.72,1.44c-1.14-1.17-2.49-1.75-4.04-1.75-1.01,0-1.82,.21-2.41,.64s-.88,1.01-.88,1.76c0,.69,.3,1.28,.91,1.78,.61,.5,1.71,1.04,3.33,1.64,1.31,.49,2.36,1.01,3.15,1.55,.79,.54,1.37,1.16,1.72,1.85,.36,.69,.53,1.48,.53,2.38,0,1.53-.54,2.73-1.61,3.6s-2.55,1.31-4.43,1.31Z" style="fill:#1d1d1b;"/><path d="M252.44,298.78c-2.36,0-4.22-.84-5.58-2.51-1.36-1.67-2.05-3.95-2.05-6.83,0-1.92,.31-3.59,.93-4.99,.62-1.4,1.5-2.48,2.64-3.25,1.14-.76,2.5-1.15,4.06-1.15s2.93,.38,4.08,1.13c1.14,.75,2.02,1.83,2.63,3.23,.61,1.4,.92,3.06,.92,4.99s-.31,3.59-.93,5c-.62,1.41-1.5,2.49-2.64,3.25-1.14,.76-2.5,1.14-4.06,1.14Zm0-2.31c1.61,0,2.87-.62,3.77-1.87,.9-1.25,1.36-2.98,1.36-5.2s-.45-3.96-1.36-5.2c-.9-1.24-2.16-1.86-3.77-1.86s-2.9,.62-3.79,1.85c-.89,1.23-1.34,2.98-1.34,5.24s.45,3.96,1.35,5.19c.9,1.23,2.16,1.85,3.78,1.85Z" style="fill:#1d1d1b;"/><path d="M265.09,298.36v-17.88h2.45v2.29c.5-.88,1.17-1.55,2-2.01,.83-.47,1.78-.7,2.84-.7,2.09,0,3.64,.64,4.66,1.93s1.52,3.25,1.52,5.87v10.5h-2.45v-10.94c0-1.67-.35-2.94-1.05-3.81-.7-.87-1.71-1.3-3.04-1.3-1.47,0-2.58,.45-3.34,1.35-.76,.9-1.14,2.22-1.14,3.97v10.73h-2.45Z" style="fill:#1d1d1b;"/><path d="M288.84,298.78c-1.18,0-2.07-.36-2.69-1.08-.61-.72-.92-1.76-.92-3.12v-11.95h-2.96v-2.15h2.96v-6.2l2.45-1.19v7.38h4.44v2.15h-4.44v11.22c0,.93,.15,1.61,.46,2.02,.31,.42,.81,.62,1.5,.62,.84,0,1.72-.3,2.64-.91l-.28,2.42c-.47,.27-.97,.47-1.5,.59-.54,.13-1.09,.19-1.66,.19Z" style="fill:#1d1d1b;"/><path d="M311.29,298.78c-2.22,0-3.97-.84-5.26-2.53-1.29-1.69-1.93-3.97-1.93-6.85,0-1.94,.29-3.6,.88-5,.58-1.39,1.42-2.47,2.51-3.22,1.09-.75,2.39-1.13,3.89-1.13,1.86,0,3.42,.71,4.71,2.13v-7.93l2.45-1.17v25.27h-2.45v-1.79c-1.25,1.47-2.85,2.21-4.79,2.21Zm.37-2.31c.88,0,1.71-.25,2.5-.76,.79-.51,1.43-1.2,1.92-2.07v-8.58c-.53-.84-1.18-1.5-1.97-1.99s-1.61-.73-2.46-.73c-1.61,0-2.86,.61-3.74,1.83s-1.32,2.96-1.32,5.22c0,1.39,.22,2.61,.65,3.67s1.03,1.89,1.79,2.49,1.63,.9,2.62,.9Z" style="fill:#1d1d1b;"/><path d="M326.06,276.89c-.44,0-.82-.16-1.13-.47-.31-.31-.46-.69-.46-1.14,0-.47,.15-.86,.46-1.18,.31-.32,.69-.48,1.13-.48,.47,0,.85,.16,1.16,.48,.31,.32,.46,.71,.46,1.18s-.15,.82-.46,1.14c-.31,.32-.7,.47-1.16,.47Zm-1.21,21.47v-17.88h2.45v17.88h-2.45Z" style="fill:#1d1d1b;"/><path d="M338.68,298.78c-1.19,0-2.33-.26-3.43-.77-1.1-.51-2.02-1.23-2.76-2.14l1.79-1.52c.64,.7,1.35,1.24,2.13,1.63,.78,.38,1.55,.58,2.31,.58,1.14,0,2.03-.23,2.65-.7,.62-.47,.94-1.12,.94-1.96,0-.52-.14-1-.43-1.43-.29-.43-.75-.84-1.39-1.22-.64-.38-1.49-.77-2.54-1.16-1.89-.7-3.25-1.47-4.08-2.3-.83-.83-1.24-1.87-1.24-3.11,0-1.38,.53-2.49,1.6-3.34s2.46-1.28,4.17-1.28c1.13,0,2.19,.22,3.18,.66s1.84,1.06,2.54,1.88l-1.72,1.44c-1.14-1.17-2.49-1.75-4.04-1.75-1.01,0-1.82,.21-2.41,.64s-.88,1.01-.88,1.76c0,.69,.3,1.28,.91,1.78,.61,.5,1.71,1.04,3.33,1.64,1.31,.49,2.36,1.01,3.15,1.55,.79,.54,1.37,1.16,1.72,1.85,.36,.69,.53,1.48,.53,2.38,0,1.53-.54,2.73-1.61,3.6s-2.55,1.31-4.43,1.31Z" style="fill:#1d1d1b;"/><path d="M349.88,305.46v-24.99h2.45v1.87c1.27-1.53,2.91-2.29,4.9-2.29,1.47,0,2.74,.38,3.82,1.14,1.07,.76,1.9,1.84,2.48,3.24,.58,1.4,.88,3.06,.88,4.97s-.29,3.59-.88,5c-.59,1.41-1.43,2.49-2.52,3.25-1.09,.76-2.38,1.14-3.88,1.14-1,0-1.91-.21-2.71-.64s-1.5-1.05-2.08-1.88v8.03l-2.45,1.17Zm7-9c1.61,0,2.85-.61,3.71-1.84,.86-1.22,1.29-2.97,1.29-5.23s-.45-3.89-1.36-5.15c-.9-1.27-2.12-1.9-3.65-1.9-.96,0-1.83,.24-2.62,.72-.79,.48-1.44,1.16-1.93,2.03v8.49c.62,.95,1.31,1.66,2.08,2.15,.77,.49,1.59,.74,2.47,.74Z" style="fill:#1d1d1b;"/><path d="M376.42,298.78c-2.36,0-4.22-.84-5.58-2.51-1.36-1.67-2.05-3.95-2.05-6.83,0-1.92,.31-3.59,.93-4.99,.62-1.4,1.5-2.48,2.64-3.25,1.14-.76,2.5-1.15,4.06-1.15s2.93,.38,4.08,1.13c1.14,.75,2.02,1.83,2.63,3.23,.61,1.4,.92,3.06,.92,4.99s-.31,3.59-.93,5c-.62,1.41-1.5,2.49-2.64,3.25-1.14,.76-2.5,1.14-4.06,1.14Zm0-2.31c1.61,0,2.87-.62,3.77-1.87,.9-1.25,1.36-2.98,1.36-5.2s-.45-3.96-1.36-5.2c-.9-1.24-2.16-1.86-3.77-1.86s-2.9,.62-3.79,1.85c-.89,1.23-1.34,2.98-1.34,5.24s.45,3.96,1.35,5.19c.9,1.23,2.16,1.85,3.78,1.85Z" style="fill:#1d1d1b;"/><path d="M389.08,298.36v-17.88h2.45v2.29c.5-.88,1.17-1.55,2-2.01,.83-.47,1.78-.7,2.84-.7,2.09,0,3.64,.64,4.66,1.93s1.52,3.25,1.52,5.87v10.5h-2.45v-10.94c0-1.67-.35-2.94-1.05-3.81-.7-.87-1.71-1.3-3.04-1.3-1.47,0-2.58,.45-3.34,1.35-.76,.9-1.14,2.22-1.14,3.97v10.73h-2.45Z" style="fill:#1d1d1b;"/><path d="M409.94,276.89c-.44,0-.82-.16-1.13-.47-.31-.31-.46-.69-.46-1.14,0-.47,.15-.86,.46-1.18,.31-.32,.69-.48,1.13-.48,.47,0,.85,.16,1.16,.48,.31,.32,.46,.71,.46,1.18s-.15,.82-.46,1.14c-.31,.32-.7,.47-1.16,.47Zm-1.21,21.47v-17.88h2.45v17.88h-2.45Z" style="fill:#1d1d1b;"/><path d="M424.85,298.78c-.99,0-1.88-.18-2.65-.55-.78-.37-1.53-.95-2.27-1.74v1.87h-2.45v-24.1l2.45-1.17v9.29c.57-.74,1.28-1.31,2.12-1.71s1.73-.61,2.66-.61c1.48,0,2.76,.38,3.83,1.14,1.07,.76,1.9,1.84,2.49,3.24,.59,1.4,.88,3.06,.88,4.97,0,2.97-.62,5.28-1.86,6.92-1.24,1.64-2.97,2.46-5.21,2.46Zm-.32-2.31c1.55,0,2.75-.62,3.59-1.85,.84-1.23,1.26-2.97,1.26-5.22s-.42-4.05-1.25-5.25c-.83-1.2-2.05-1.8-3.65-1.8-.86,0-1.72,.26-2.58,.79-.86,.52-1.51,1.2-1.97,2.01v8.49c.5,.86,1.16,1.55,1.98,2.06,.82,.51,1.69,.77,2.62,.77Z" style="fill:#1d1d1b;"/><path d="M437.18,298.36v-24.1l2.45-1.17v25.27h-2.45Z" style="fill:#1d1d1b;"/><path d="M452.58,298.78c-1.59,0-2.96-.39-4.1-1.18-1.15-.79-2.03-1.89-2.65-3.3-.62-1.41-.93-3.05-.93-4.9,0-1.97,.32-3.65,.97-5.05,.65-1.39,1.55-2.46,2.7-3.19,1.16-.74,2.49-1.1,4.01-1.1,1.32,0,2.51,.31,3.59,.93,1.07,.62,1.92,1.58,2.56,2.87,.63,1.29,.94,2.96,.94,4.99,0,.21,0,.45-.02,.71s-.03,.53-.05,.81h-12.16c.09,1.24,.35,2.32,.76,3.25,.41,.93,.99,1.66,1.73,2.19,.74,.53,1.65,.8,2.74,.8,.74,0,1.44-.13,2.12-.39,.68-.26,1.31-.67,1.89-1.22l1.43,1.65c-.65,.62-1.46,1.13-2.41,1.54s-1.99,.61-3.12,.61Zm-5.18-10.57h9.77c0-1.11-.17-2.12-.5-3.03-.33-.91-.84-1.63-1.52-2.17-.68-.54-1.54-.8-2.56-.8-1.39,0-2.57,.48-3.54,1.43-.97,.96-1.52,2.48-1.64,4.57Z" style="fill:#1d1d1b;"/><path d="M469.36,298.78c-1.19,0-2.33-.26-3.43-.77-1.1-.51-2.02-1.23-2.76-2.14l1.79-1.52c.64,.7,1.35,1.24,2.13,1.63,.78,.38,1.55,.58,2.31,.58,1.14,0,2.03-.23,2.65-.7,.62-.47,.94-1.12,.94-1.96,0-.52-.14-1-.43-1.43-.29-.43-.75-.84-1.39-1.22-.64-.38-1.49-.77-2.54-1.16-1.89-.7-3.25-1.47-4.08-2.3-.83-.83-1.24-1.87-1.24-3.11,0-1.38,.53-2.49,1.6-3.34s2.46-1.28,4.17-1.28c1.13,0,2.19,.22,3.18,.66s1.84,1.06,2.54,1.88l-1.72,1.44c-1.14-1.17-2.49-1.75-4.04-1.75-1.01,0-1.82,.21-2.41,.64s-.88,1.01-.88,1.76c0,.69,.3,1.28,.91,1.78,.61,.5,1.71,1.04,3.33,1.64,1.31,.49,2.36,1.01,3.15,1.55,.79,.54,1.37,1.16,1.72,1.85,.36,.69,.53,1.48,.53,2.38,0,1.53-.54,2.73-1.61,3.6s-2.55,1.31-4.43,1.31Z" style="fill:#1d1d1b;"/><path d="M114.95,343.78c-2.22,0-3.97-.84-5.26-2.53-1.29-1.69-1.93-3.97-1.93-6.85,0-1.94,.29-3.6,.88-5,.58-1.39,1.42-2.47,2.51-3.22,1.09-.75,2.39-1.13,3.89-1.13,1.86,0,3.42,.71,4.71,2.13v-7.93l2.45-1.17v25.27h-2.45v-1.79c-1.25,1.47-2.85,2.21-4.79,2.21Zm.37-2.31c.88,0,1.71-.25,2.5-.76,.79-.51,1.43-1.2,1.92-2.07v-8.58c-.53-.84-1.18-1.5-1.97-1.99s-1.61-.73-2.46-.73c-1.61,0-2.86,.61-3.74,1.83s-1.32,2.96-1.32,5.22c0,1.39,.22,2.61,.65,3.67s1.03,1.89,1.79,2.49,1.63,.9,2.62,.9Z" style="fill:#1d1d1b;"/><path d="M133.44,343.78c-1.89,0-3.37-.53-4.45-1.58-1.07-1.06-1.61-2.51-1.61-4.37,0-1.19,.27-2.22,.8-3.1,.53-.88,1.28-1.55,2.26-2.02,.97-.47,2.13-.71,3.46-.71,.88,0,1.71,.11,2.51,.33,.8,.22,1.57,.55,2.32,1v-1.71c0-1.52-.33-2.63-.99-3.34s-1.68-1.07-3.07-1.07c-.83,0-1.71,.15-2.63,.46-.93,.31-1.81,.74-2.63,1.3l-.72-2.07c.94-.59,1.96-1.05,3.06-1.37,1.1-.32,2.17-.48,3.22-.48,2.01,0,3.52,.52,4.55,1.57,1.03,1.05,1.54,2.6,1.54,4.64v12.09h-2.33v-2.03c-.71,.78-1.53,1.39-2.44,1.81s-1.86,.64-2.84,.64Zm.31-2.15c.9,0,1.77-.24,2.62-.71s1.63-1.15,2.35-2.04v-3.34c-.69-.44-1.43-.79-2.23-1.02-.8-.24-1.57-.36-2.32-.36-1.34,0-2.41,.34-3.21,1.01-.8,.67-1.2,1.57-1.2,2.69s.36,2.07,1.07,2.76c.71,.68,1.69,1.02,2.92,1.02Z" style="fill:#1d1d1b;"/><path d="M147.18,343.36v-17.88h2.45v2.29c.5-.88,1.17-1.55,2-2.01,.83-.47,1.78-.7,2.84-.7,2.09,0,3.64,.64,4.66,1.93s1.52,3.25,1.52,5.87v10.5h-2.45v-10.94c0-1.67-.35-2.94-1.05-3.81-.7-.87-1.71-1.3-3.04-1.3-1.47,0-2.58,.45-3.34,1.35-.76,.9-1.14,2.22-1.14,3.97v10.73h-2.45Z" style="fill:#1d1d1b;"/><path d="M171.84,343.78c-1.19,0-2.33-.26-3.43-.77-1.1-.51-2.02-1.23-2.76-2.14l1.79-1.52c.64,.7,1.35,1.24,2.13,1.63,.78,.38,1.55,.58,2.31,.58,1.14,0,2.03-.23,2.65-.7,.62-.47,.94-1.12,.94-1.96,0-.52-.14-1-.43-1.43-.29-.43-.75-.84-1.39-1.22-.64-.38-1.49-.77-2.54-1.16-1.89-.7-3.25-1.47-4.08-2.3-.83-.83-1.24-1.87-1.24-3.11,0-1.38,.53-2.49,1.6-3.34s2.46-1.28,4.17-1.28c1.13,0,2.19,.22,3.18,.66s1.84,1.06,2.54,1.88l-1.72,1.44c-1.14-1.17-2.49-1.75-4.04-1.75-1.01,0-1.82,.21-2.41,.64s-.88,1.01-.88,1.76c0,.69,.3,1.28,.91,1.78,.61,.5,1.71,1.04,3.33,1.64,1.31,.49,2.36,1.01,3.15,1.55,.79,.54,1.37,1.16,1.72,1.85,.36,.69,.53,1.48,.53,2.38,0,1.53-.54,2.73-1.61,3.6s-2.55,1.31-4.43,1.31Z" style="fill:#1d1d1b;"/><path d="M195.81,343.36l-6.47-17.88h2.47l4.55,12.76c.09,.26,.18,.51,.26,.75,.08,.25,.16,.51,.25,.8,.08-.29,.16-.56,.24-.8s.16-.5,.25-.75l4.51-12.76h2.45l-6.49,17.88h-2.01Z" style="fill:#1d1d1b;"/><path d="M214.99,343.78c-2.36,0-4.22-.84-5.58-2.51-1.36-1.67-2.05-3.95-2.05-6.83,0-1.92,.31-3.59,.93-4.99,.62-1.4,1.5-2.48,2.64-3.25,1.14-.76,2.5-1.15,4.06-1.15s2.93,.38,4.08,1.13c1.14,.75,2.02,1.83,2.63,3.23,.61,1.4,.92,3.06,.92,4.99s-.31,3.59-.93,5c-.62,1.41-1.5,2.49-2.64,3.25-1.14,.76-2.5,1.14-4.06,1.14Zm0-2.31c1.61,0,2.87-.62,3.77-1.87,.9-1.25,1.36-2.98,1.36-5.2s-.45-3.96-1.36-5.2c-.9-1.24-2.16-1.86-3.77-1.86s-2.9,.62-3.79,1.85c-.89,1.23-1.34,2.98-1.34,5.24s.45,3.96,1.35,5.19c.9,1.23,2.16,1.85,3.78,1.85Z" style="fill:#1d1d1b;"/><path d="M232.12,343.78c-1.18,0-2.07-.36-2.69-1.08-.61-.72-.92-1.76-.92-3.12v-11.95h-2.96v-2.15h2.96v-6.2l2.45-1.19v7.38h4.44v2.15h-4.44v11.22c0,.93,.15,1.61,.46,2.02,.31,.42,.81,.62,1.5,.62,.84,0,1.72-.3,2.64-.91l-.28,2.42c-.47,.27-.97,.47-1.5,.59-.54,.13-1.09,.19-1.66,.19Z" style="fill:#1d1d1b;"/><path d="M239.03,343.36v-17.88h2.45v2.83c.44-1.05,1.06-1.86,1.85-2.42,.79-.56,1.7-.84,2.74-.84s1.95,.29,2.62,.86l-.37,2.33c-.35-.25-.73-.43-1.15-.54-.41-.12-.86-.18-1.34-.18-.86,0-1.62,.25-2.28,.74s-1.16,1.17-1.53,2.04-.55,1.88-.55,3.04v10.03h-2.45Z" style="fill:#1d1d1b;"/><path d="M258.27,343.78c-1.59,0-2.96-.39-4.1-1.18-1.15-.79-2.03-1.89-2.65-3.3-.62-1.41-.93-3.05-.93-4.9,0-1.97,.32-3.65,.97-5.05,.65-1.39,1.55-2.46,2.7-3.19,1.16-.74,2.49-1.1,4.01-1.1,1.32,0,2.51,.31,3.59,.93,1.07,.62,1.92,1.58,2.56,2.87,.63,1.29,.94,2.96,.94,4.99,0,.21,0,.45-.02,.71s-.03,.53-.05,.81h-12.16c.09,1.24,.35,2.32,.76,3.25,.41,.93,.99,1.66,1.73,2.19,.74,.53,1.65,.8,2.74,.8,.74,0,1.44-.13,2.12-.39,.68-.26,1.31-.67,1.89-1.22l1.43,1.65c-.65,.62-1.46,1.13-2.41,1.54s-1.99,.61-3.12,.61Zm-5.18-10.57h9.77c0-1.11-.17-2.12-.5-3.03-.33-.91-.84-1.63-1.52-2.17-.68-.54-1.54-.8-2.56-.8-1.39,0-2.57,.48-3.54,1.43-.97,.96-1.52,2.48-1.64,4.57Z" style="fill:#1d1d1b;"/><path d="M284.95,343.78c-1.59,0-2.96-.39-4.1-1.18-1.15-.79-2.03-1.89-2.65-3.3-.62-1.41-.93-3.05-.93-4.9,0-1.97,.32-3.65,.97-5.05,.65-1.39,1.55-2.46,2.7-3.19,1.16-.74,2.49-1.1,4.01-1.1,1.32,0,2.51,.31,3.59,.93,1.07,.62,1.92,1.58,2.56,2.87,.63,1.29,.94,2.96,.94,4.99,0,.21,0,.45-.02,.71s-.03,.53-.05,.81h-12.16c.09,1.24,.35,2.32,.76,3.25,.41,.93,.99,1.66,1.73,2.19,.74,.53,1.65,.8,2.74,.8,.74,0,1.44-.13,2.12-.39,.68-.26,1.31-.67,1.89-1.22l1.43,1.65c-.65,.62-1.46,1.13-2.41,1.54s-1.99,.61-3.12,.61Zm-5.18-10.57h9.77c0-1.11-.17-2.12-.5-3.03-.33-.91-.84-1.63-1.52-2.17-.68-.54-1.54-.8-2.56-.8-1.39,0-2.57,.48-3.54,1.43-.97,.96-1.52,2.48-1.64,4.57Z" style="fill:#1d1d1b;"/><path d="M301.73,343.78c-1.19,0-2.33-.26-3.43-.77-1.1-.51-2.02-1.23-2.76-2.14l1.79-1.52c.64,.7,1.35,1.24,2.13,1.63,.78,.38,1.55,.58,2.31,.58,1.14,0,2.03-.23,2.65-.7,.62-.47,.94-1.12,.94-1.96,0-.52-.14-1-.43-1.43-.29-.43-.75-.84-1.39-1.22-.64-.38-1.49-.77-2.54-1.16-1.89-.7-3.25-1.47-4.08-2.3-.83-.83-1.24-1.87-1.24-3.11,0-1.38,.53-2.49,1.6-3.34s2.46-1.28,4.17-1.28c1.13,0,2.19,.22,3.18,.66s1.84,1.06,2.54,1.88l-1.72,1.44c-1.14-1.17-2.49-1.75-4.04-1.75-1.01,0-1.82,.21-2.41,.64s-.88,1.01-.88,1.76c0,.69,.3,1.28,.91,1.78,.61,.5,1.71,1.04,3.33,1.64,1.31,.49,2.36,1.01,3.15,1.55,.79,.54,1.37,1.16,1.72,1.85,.36,.69,.53,1.48,.53,2.38,0,1.53-.54,2.73-1.61,3.6s-2.55,1.31-4.43,1.31Z" style="fill:#1d1d1b;"/><path d="M312.94,350.46v-24.99h2.45v1.87c1.27-1.53,2.91-2.29,4.9-2.29,1.47,0,2.74,.38,3.82,1.14,1.07,.76,1.9,1.84,2.48,3.24,.58,1.4,.88,3.06,.88,4.97s-.29,3.59-.88,5c-.59,1.41-1.43,2.49-2.52,3.25-1.09,.76-2.38,1.14-3.88,1.14-1,0-1.91-.21-2.71-.64s-1.5-1.05-2.08-1.88v8.03l-2.45,1.17Zm7-9c1.61,0,2.85-.61,3.71-1.84,.86-1.22,1.29-2.97,1.29-5.23s-.45-3.89-1.36-5.15c-.9-1.27-2.12-1.9-3.65-1.9-.96,0-1.83,.24-2.62,.72-.79,.48-1.44,1.16-1.93,2.03v8.49c.62,.95,1.31,1.66,2.08,2.15,.77,.49,1.59,.74,2.47,.74Z" style="fill:#1d1d1b;"/><path d="M338.1,343.78c-1.89,0-3.37-.53-4.45-1.58-1.07-1.06-1.61-2.51-1.61-4.37,0-1.19,.27-2.22,.8-3.1,.53-.88,1.28-1.55,2.26-2.02,.97-.47,2.13-.71,3.46-.71,.88,0,1.71,.11,2.51,.33,.8,.22,1.57,.55,2.32,1v-1.71c0-1.52-.33-2.63-.99-3.34s-1.68-1.07-3.07-1.07c-.83,0-1.71,.15-2.63,.46-.93,.31-1.81,.74-2.63,1.3l-.72-2.07c.94-.59,1.96-1.05,3.06-1.37,1.1-.32,2.17-.48,3.22-.48,2.01,0,3.52,.52,4.55,1.57,1.03,1.05,1.54,2.6,1.54,4.64v12.09h-2.33v-2.03c-.71,.78-1.53,1.39-2.44,1.81s-1.86,.64-2.84,.64Zm.31-2.15c.9,0,1.77-.24,2.62-.71s1.63-1.15,2.35-2.04v-3.34c-.69-.44-1.43-.79-2.23-1.02-.8-.24-1.57-.36-2.32-.36-1.34,0-2.41,.34-3.21,1.01-.8,.67-1.2,1.57-1.2,2.69s.36,2.07,1.07,2.76c.71,.68,1.69,1.02,2.92,1.02Z" style="fill:#1d1d1b;"/><path d="M357.93,343.78c-1.47,0-2.74-.38-3.8-1.13-1.06-.75-1.88-1.83-2.44-3.22-.57-1.39-.85-3.06-.85-5s.29-3.62,.88-5.02c.58-1.4,1.42-2.48,2.5-3.23,1.08-.75,2.38-1.13,3.89-1.13s2.66,.35,3.68,1.04c1.02,.69,1.76,1.69,2.23,2.98l-2.33,.86c-.3-.83-.76-1.46-1.38-1.91-.62-.44-1.34-.67-2.17-.67-1.55,0-2.73,.6-3.54,1.8-.81,1.2-1.22,2.96-1.22,5.27s.4,3.94,1.21,5.17c.8,1.23,1.94,1.85,3.39,1.85,.96,0,1.78-.26,2.47-.77,.69-.51,1.17-1.21,1.43-2.1l2.31,.77c-.41,1.4-1.16,2.49-2.27,3.26-1.1,.78-2.44,1.16-4,1.16Z" style="fill:#1d1d1b;"/><path d="M375.78,343.78c-1.59,0-2.96-.39-4.1-1.18-1.15-.79-2.03-1.89-2.65-3.3-.62-1.41-.93-3.05-.93-4.9,0-1.97,.32-3.65,.97-5.05,.65-1.39,1.55-2.46,2.7-3.19,1.16-.74,2.49-1.1,4.01-1.1,1.32,0,2.51,.31,3.59,.93,1.07,.62,1.92,1.58,2.56,2.87,.63,1.29,.94,2.96,.94,4.99,0,.21,0,.45-.02,.71s-.03,.53-.05,.81h-12.16c.09,1.24,.35,2.32,.76,3.25,.41,.93,.99,1.66,1.73,2.19,.74,.53,1.65,.8,2.74,.8,.74,0,1.44-.13,2.12-.39,.68-.26,1.31-.67,1.89-1.22l1.43,1.65c-.65,.62-1.46,1.13-2.41,1.54s-1.99,.61-3.12,.61Zm-5.18-10.57h9.77c0-1.11-.17-2.12-.5-3.03-.33-.91-.84-1.63-1.52-2.17-.68-.54-1.54-.8-2.56-.8-1.39,0-2.57,.48-3.54,1.43-.97,.96-1.52,2.48-1.64,4.57Z" style="fill:#1d1d1b;"/><path d="M388.25,343.83c-.55,0-1.01-.19-1.39-.58-.38-.38-.57-.83-.57-1.35s.19-.99,.57-1.38,.84-.59,1.39-.59,1.03,.2,1.4,.59,.56,.86,.56,1.38-.19,.96-.56,1.35c-.37,.39-.84,.58-1.4,.58Z" style="fill:#1d1d1b;"/></g></g></g></svg>