<?xml version="1.0" encoding="UTF-8"?><svg xmlns="http://www.w3.org/2000/svg" viewBox="0 0 497.79 351.14"><g id="a"/><g id="b"><g id="c"><g><path d="M279.41,6.21c.82,9.78-1.43,15.84-6.48,24.02,2.07,2.04,5.46,3.44,7.93,4.28,8.92-17.6-1.77-34.17-2.44-34.51,.51,2.04,.84,4.11,.99,6.21Z" style="fill:#55b57e;"/><path d="M233.42,28.29c5.39,1.22,10.24,4.13,15.13,6.56,2.24,1.13,6.65,2.92,8.34,3.63,.65,.28,1.36,.38,2.07,.31,.86-.12,1.66-.47,2.33-1.02,11.6-8.79,16.58-17.23,17.18-31.55,.09-1.75,.09-3.51,0-5.27,0,4.77-2.44,26.96-30.01,20.59-12.53-2.89-24.13,4.23-29.18,9.03,4.18-2.74,9.32-3.57,14.15-2.29Z" style="fill:#55b57e;"/><path d="M271.72,32.07c-2.55,3.72-5.68,7-9.26,9.73-1.7,1.32-3.97,1.62-5.95,.79-.53-.24-3.14-1.55-3.71-1.83-1.9-.97-3.93-2.04-5.9-3.11-2.8,7.44-8.61,16.89-11.74,20.82,21.03,3.75,37.85-10.57,44.79-22.35-2.52-.86-5.94-1.96-8.22-4.05Z" style="fill:#55b57e;"/><path d="M244.7,36.45l-.52-.29c-2.74-1.63-5.57-3.1-8.47-4.4-7.4-3.24-14.25-2.35-19.8,2.63-2.63,3.5-4.36,7.61-5.03,11.94,7.13,5.86,13.97,9.43,20.45,11.26,2.55-3.15,10.6-13.45,13.37-21.13Z" style="fill:#55b57e;"/></g><g><path d="M117.16,153.36v-49h31.78v7.63h-23.7v12.25h14.52v7.63h-14.52v13.79h25.17v7.7h-33.25Z" style="fill:#3c885c;"/><path d="M170.99,153.36v-41.26h-13.83v-7.74h35.74v7.74h-13.83v41.26h-8.08Z" style="fill:#3c885c;"/><path d="M190.87,153.36l18.24-49h7.63l18.24,49h-8.58l-3.96-10.92h-19l-3.89,10.92h-8.68Zm15.16-18.24h13.75l-5.39-14.8c-.14-.4-.3-.86-.49-1.4-.19-.54-.37-1.07-.56-1.59-.19-.53-.33-1-.42-1.42-.12,.42-.26,.89-.44,1.42-.17,.52-.36,1.06-.54,1.59-.19,.54-.35,1-.49,1.4l-5.42,14.8Z" style="fill:#3c885c;"/><path d="M242.81,153.36v-49h20.05c4.06,0,7.29,.74,9.68,2.22,2.39,1.48,4.1,3.38,5.13,5.71,1.03,2.32,1.54,4.73,1.54,7.23,0,1.75-.3,3.51-.89,5.27-.6,1.76-1.55,3.39-2.85,4.88-1.31,1.49-3,2.69-5.08,3.59-2.08,.9-4.58,1.35-7.53,1.35h-11.97v18.76h-8.08Zm8.08-26.32h12.39c1.89,0,3.4-.38,4.52-1.14,1.12-.76,1.92-1.72,2.42-2.87,.49-1.16,.73-2.33,.73-3.52,0-1.07-.22-2.2-.65-3.38-.43-1.18-1.21-2.18-2.33-2.99s-2.68-1.23-4.69-1.23h-12.39v15.12Z" style="fill:#3c885c;"/><path d="M287.36,153.36v-49h31.78v7.63h-23.7v12.25h14.52v7.63h-14.52v13.79h25.17v7.7h-33.25Z" style="fill:#3c885c;"/><path d="M346.13,153.36c0-3.45,.44-6.5,1.33-9.15,.89-2.65,2.09-4.98,3.62-6.98s3.28-3.77,5.25-5.3,4.04-2.91,6.21-4.15c1.45-.86,2.81-1.76,4.09-2.7,1.28-.93,2.33-1.98,3.13-3.15,.8-1.17,1.21-2.52,1.21-4.06,0-1.98-.7-3.61-2.1-4.88-1.4-1.27-3.28-1.91-5.64-1.91s-4.34,.57-5.81,1.7-2.59,2.64-3.36,4.53l-7.17-3.25c1.19-3.15,3.25-5.69,6.2-7.63,2.94-1.94,6.33-2.91,10.18-2.91,3.31,0,6.15,.62,8.52,1.85,2.37,1.24,4.18,2.93,5.43,5.09,1.25,2.16,1.87,4.6,1.87,7.33s-.55,5.24-1.66,7.19c-1.11,1.95-2.58,3.64-4.43,5.07-1.84,1.44-3.87,2.81-6.09,4.11-2.08,1.21-3.89,2.39-5.43,3.52-1.54,1.13-2.81,2.33-3.81,3.59-1,1.26-1.73,2.68-2.17,4.27h24.01v7.8h-33.39Z" style="fill:#3c885c;"/></g><g><path d="M179.95,208.36v-24.5h3.54v24.5h-3.54Z" style="fill:#9a97ff;"/><path d="M189.56,208.36v-17.88h3.48v1.68c.54-.7,1.19-1.22,1.97-1.58,.78-.35,1.65-.52,2.62-.52,1.05,0,1.98,.22,2.8,.67s1.45,1.09,1.89,1.92c.57-.83,1.31-1.47,2.22-1.92,.91-.45,1.93-.67,3.06-.67,2.01,0,3.58,.59,4.71,1.78,1.13,1.18,1.7,2.83,1.7,4.94v11.58h-3.48v-10.5c0-1.49-.29-2.62-.87-3.39-.58-.77-1.42-1.16-2.53-1.16-.75,0-1.39,.18-1.93,.55-.54,.37-.96,.9-1.25,1.59s-.44,1.51-.44,2.46v10.45h-3.48v-10.5c0-1.52-.28-2.65-.84-3.41-.56-.76-1.41-1.14-2.54-1.14s-2.03,.39-2.66,1.17c-.63,.78-.95,1.89-.95,3.33v10.55h-3.48Z" style="fill:#9a97ff;"/><path d="M219.9,215.46v-24.99h3.48v1.43c1.18-1.24,2.64-1.85,4.38-1.85,1.52,0,2.83,.38,3.93,1.14,1.1,.76,1.95,1.84,2.55,3.24,.6,1.4,.9,3.06,.9,4.97s-.31,3.56-.92,4.96c-.61,1.41-1.47,2.49-2.58,3.26-1.11,.77-2.41,1.16-3.9,1.16-.91,0-1.73-.16-2.45-.49-.72-.33-1.36-.83-1.91-1.5v7.07l-3.48,1.61Zm7.37-9.98c1.4,0,2.47-.53,3.22-1.58,.75-1.06,1.12-2.56,1.12-4.51s-.39-3.38-1.17-4.46c-.78-1.08-1.84-1.63-3.17-1.63-.85,0-1.61,.18-2.27,.55-.66,.37-1.2,.9-1.62,1.58v7.91c.51,.7,1.1,1.23,1.76,1.59,.66,.36,1.37,.54,2.13,.54Z" style="fill:#9a97ff;"/><path d="M247.23,208.78c-2.47,0-4.42-.84-5.84-2.51-1.42-1.67-2.13-3.95-2.13-6.83,0-1.92,.32-3.59,.97-4.99,.65-1.4,1.57-2.48,2.77-3.25,1.2-.76,2.61-1.15,4.24-1.15s3.07,.38,4.26,1.13c1.2,.75,2.11,1.83,2.76,3.23,.64,1.4,.96,3.06,.96,4.99s-.32,3.6-.97,5-1.57,2.48-2.76,3.24c-1.19,.76-2.61,1.14-4.25,1.14Zm0-3.29c1.4,0,2.49-.54,3.28-1.61,.79-1.07,1.18-2.57,1.18-4.48s-.39-3.41-1.18-4.48c-.79-1.07-1.88-1.61-3.28-1.61s-2.49,.54-3.28,1.61c-.79,1.07-1.18,2.58-1.18,4.52s.39,3.39,1.18,4.45c.79,1.07,1.88,1.6,3.28,1.6Z" style="fill:#9a97ff;"/><path d="M259.68,208.36v-17.88h3.48v2.21c.38-.84,.93-1.49,1.65-1.94,.71-.46,1.52-.68,2.43-.68,1.14,0,2.11,.35,2.91,1.05l-.51,3.24c-.41-.3-.83-.53-1.26-.67s-.9-.21-1.4-.21c-.78,0-1.46,.2-2.02,.6-.57,.4-1.01,.97-1.32,1.71-.32,.73-.47,1.6-.47,2.61v9.97h-3.48Z" style="fill:#9a97ff;"/><path d="M279.05,208.78c-1.28,0-2.26-.38-2.93-1.13-.67-.75-1.01-1.85-1.01-3.28v-10.85h-2.8v-3.04h2.8v-5.71l3.48-1.68v7.38h4.29v3.04h-4.29v9.92c0,.75,.14,1.3,.41,1.65s.7,.53,1.29,.53c.84,0,1.75-.3,2.73-.89l-.4,3.25c-.54,.28-1.1,.48-1.68,.61-.58,.13-1.21,.19-1.89,.19Z" style="fill:#9a97ff;"/><path d="M294.17,208.78c-1.67,0-3.11-.4-4.31-1.19-1.21-.79-2.13-1.9-2.78-3.31-.65-1.41-.97-3.04-.97-4.88,0-1.96,.33-3.64,1.01-5.03,.67-1.39,1.61-2.46,2.82-3.2,1.21-.74,2.62-1.11,4.24-1.11,1.38,0,2.63,.3,3.77,.9,1.14,.6,2.05,1.53,2.73,2.78s1.02,2.86,1.02,4.82c0,.28,0,.62-.03,1.01-.02,.39-.05,.79-.1,1.2h-11.95c.09,.99,.33,1.86,.73,2.62,.39,.75,.91,1.34,1.57,1.76s1.42,.63,2.31,.63c.78,0,1.49-.14,2.14-.41s1.24-.7,1.8-1.29l2.03,2.19c-.7,.73-1.56,1.34-2.57,1.81s-2.16,.71-3.45,.71Zm-4.57-10.92h8.63c-.02-.95-.2-1.78-.52-2.49-.32-.72-.78-1.28-1.38-1.69-.6-.41-1.33-.61-2.2-.61-1.2,0-2.23,.38-3.1,1.16-.86,.77-1.34,1.98-1.43,3.64Z" style="fill:#9a97ff;"/><path d="M305.12,208.36v-2.59l9.26-12.2h-8.58v-3.1h12.99v2.52l-9.28,12.25h9.24v3.12h-13.63Z" style="fill:#9a97ff;"/><path d="M30.41,253.36l-6.47-17.88h2.47l4.55,12.76c.09,.26,.18,.51,.26,.75,.08,.25,.16,.51,.25,.8,.08-.29,.16-.56,.24-.8s.16-.5,.25-.75l4.51-12.76h2.45l-6.49,17.88h-2.01Z" style="fill:#1d1d1b;"/><path d="M49.59,253.78c-2.36,0-4.22-.84-5.58-2.51-1.36-1.67-2.05-3.95-2.05-6.83,0-1.92,.31-3.59,.93-4.99,.62-1.4,1.5-2.48,2.64-3.25,1.14-.76,2.5-1.15,4.06-1.15s2.93,.38,4.08,1.13c1.14,.75,2.02,1.83,2.63,3.23,.61,1.4,.92,3.06,.92,4.99s-.31,3.59-.93,5c-.62,1.41-1.5,2.49-2.64,3.25-1.14,.76-2.5,1.14-4.06,1.14Zm0-2.31c1.61,0,2.87-.62,3.77-1.87,.9-1.25,1.36-2.98,1.36-5.2s-.45-3.96-1.36-5.2c-.9-1.24-2.16-1.86-3.77-1.86s-2.9,.62-3.79,1.85c-.89,1.23-1.34,2.98-1.34,5.24s.45,3.96,1.35,5.19c.9,1.23,2.16,1.85,3.78,1.85Z" style="fill:#1d1d1b;"/><path d="M67.11,253.78c-1.19,0-2.33-.26-3.43-.77-1.1-.51-2.02-1.23-2.76-2.14l1.79-1.52c.64,.7,1.35,1.24,2.13,1.63,.78,.38,1.55,.58,2.31,.58,1.14,0,2.03-.23,2.65-.7,.62-.47,.94-1.12,.94-1.96,0-.52-.14-1-.43-1.43-.29-.43-.75-.84-1.39-1.22-.64-.38-1.49-.77-2.54-1.16-1.89-.7-3.25-1.47-4.08-2.3-.83-.83-1.24-1.87-1.24-3.11,0-1.38,.53-2.49,1.6-3.34s2.46-1.28,4.17-1.28c1.13,0,2.19,.22,3.18,.66s1.84,1.06,2.54,1.88l-1.72,1.44c-1.14-1.17-2.49-1.75-4.04-1.75-1.01,0-1.82,.21-2.41,.64s-.88,1.01-.88,1.76c0,.69,.3,1.28,.91,1.78,.61,.5,1.71,1.04,3.33,1.64,1.31,.49,2.36,1.01,3.15,1.55,.79,.54,1.37,1.16,1.72,1.85,.36,.69,.53,1.48,.53,2.38,0,1.53-.54,2.73-1.61,3.6s-2.55,1.31-4.43,1.31Z" style="fill:#1d1d1b;"/><path d="M86.36,253.36v-17.88h2.45v2.1c.51-.82,1.18-1.44,2.01-1.87s1.76-.65,2.78-.65c1.13,0,2.12,.28,2.97,.84,.85,.56,1.47,1.35,1.88,2.36,.5-1,1.22-1.79,2.14-2.35,.93-.57,1.96-.85,3.11-.85,1.86,0,3.33,.57,4.43,1.72s1.65,2.7,1.65,4.66v11.92h-2.45v-10.97c0-1.66-.33-2.92-1-3.78-.67-.86-1.63-1.29-2.89-1.29-.83,0-1.55,.22-2.18,.65-.62,.43-1.11,1.04-1.46,1.81-.35,.78-.52,1.67-.52,2.69v10.9h-2.45v-10.97c0-1.67-.32-2.93-.96-3.79-.64-.86-1.6-1.29-2.87-1.29s-2.32,.46-3.06,1.37c-.75,.92-1.12,2.17-1.12,3.75v10.92h-2.45Z" style="fill:#1d1d1b;"/><path d="M122.99,253.78c-1.59,0-2.96-.39-4.1-1.18-1.15-.79-2.03-1.89-2.65-3.3-.62-1.41-.93-3.05-.93-4.9,0-1.97,.32-3.65,.97-5.05,.65-1.39,1.55-2.46,2.7-3.19,1.16-.74,2.49-1.1,4.01-1.1,1.32,0,2.51,.31,3.59,.93,1.07,.62,1.92,1.58,2.56,2.87,.63,1.29,.94,2.96,.94,4.99,0,.21,0,.45-.02,.71s-.03,.53-.05,.81h-12.16c.09,1.24,.35,2.32,.76,3.25,.41,.93,.99,1.66,1.73,2.19,.74,.53,1.65,.8,2.74,.8,.74,0,1.44-.13,2.12-.39,.68-.26,1.31-.67,1.89-1.22l1.43,1.65c-.65,.62-1.46,1.13-2.41,1.54s-1.99,.61-3.12,.61Zm-5.18-10.57h9.77c0-1.11-.17-2.12-.5-3.03-.33-.91-.84-1.63-1.52-2.17-.68-.54-1.54-.8-2.56-.8-1.39,0-2.57,.48-3.54,1.43-.97,.96-1.52,2.48-1.64,4.57Z" style="fill:#1d1d1b;"/><path d="M139.77,253.78c-1.19,0-2.33-.26-3.43-.77-1.1-.51-2.02-1.23-2.76-2.14l1.79-1.52c.64,.7,1.35,1.24,2.13,1.63,.78,.38,1.55,.58,2.31,.58,1.14,0,2.03-.23,2.65-.7,.62-.47,.94-1.12,.94-1.96,0-.52-.14-1-.43-1.43-.29-.43-.75-.84-1.39-1.22-.64-.38-1.49-.77-2.54-1.16-1.89-.7-3.25-1.47-4.08-2.3-.83-.83-1.24-1.87-1.24-3.11,0-1.38,.53-2.49,1.6-3.34s2.46-1.28,4.17-1.28c1.13,0,2.19,.22,3.18,.66s1.84,1.06,2.54,1.88l-1.72,1.44c-1.14-1.17-2.49-1.75-4.04-1.75-1.01,0-1.82,.21-2.41,.64s-.88,1.01-.88,1.76c0,.69,.3,1.28,.91,1.78,.61,.5,1.71,1.04,3.33,1.64,1.31,.49,2.36,1.01,3.15,1.55,.79,.54,1.37,1.16,1.72,1.85,.36,.69,.53,1.48,.53,2.38,0,1.53-.54,2.73-1.61,3.6s-2.55,1.31-4.43,1.31Z" style="fill:#1d1d1b;"/><path d="M156.04,253.78c-1.19,0-2.33-.26-3.43-.77-1.1-.51-2.02-1.23-2.76-2.14l1.79-1.52c.64,.7,1.35,1.24,2.13,1.63,.78,.38,1.55,.58,2.31,.58,1.14,0,2.03-.23,2.65-.7,.62-.47,.94-1.12,.94-1.96,0-.52-.14-1-.43-1.43-.29-.43-.75-.84-1.39-1.22-.64-.38-1.49-.77-2.54-1.16-1.89-.7-3.25-1.47-4.08-2.3-.83-.83-1.24-1.87-1.24-3.11,0-1.38,.53-2.49,1.6-3.34s2.46-1.28,4.17-1.28c1.13,0,2.19,.22,3.18,.66s1.84,1.06,2.54,1.88l-1.72,1.44c-1.14-1.17-2.49-1.75-4.04-1.75-1.01,0-1.82,.21-2.41,.64s-.88,1.01-.88,1.76c0,.69,.3,1.28,.91,1.78,.61,.5,1.71,1.04,3.33,1.64,1.31,.49,2.36,1.01,3.15,1.55,.79,.54,1.37,1.16,1.72,1.85,.36,.69,.53,1.48,.53,2.38,0,1.53-.54,2.73-1.61,3.6s-2.55,1.31-4.43,1.31Z" style="fill:#1d1d1b;"/><path d="M171.9,253.78c-1.89,0-3.37-.53-4.45-1.58-1.07-1.06-1.61-2.51-1.61-4.37,0-1.19,.27-2.22,.8-3.1,.53-.88,1.28-1.55,2.26-2.02,.97-.47,2.13-.71,3.46-.71,.88,0,1.71,.11,2.51,.33,.8,.22,1.57,.55,2.32,1v-1.71c0-1.52-.33-2.63-.99-3.34s-1.68-1.07-3.07-1.07c-.83,0-1.71,.15-2.63,.46-.93,.31-1.81,.74-2.63,1.3l-.72-2.07c.94-.59,1.96-1.05,3.06-1.37,1.1-.32,2.17-.48,3.22-.48,2.01,0,3.52,.52,4.55,1.57,1.03,1.05,1.54,2.6,1.54,4.64v12.09h-2.33v-2.03c-.71,.78-1.53,1.39-2.44,1.81s-1.86,.64-2.84,.64Zm.31-2.15c.9,0,1.77-.24,2.62-.71s1.63-1.15,2.35-2.04v-3.34c-.69-.44-1.43-.79-2.23-1.02-.8-.24-1.57-.36-2.32-.36-1.34,0-2.41,.34-3.21,1.01-.8,.67-1.2,1.57-1.2,2.69s.36,2.07,1.07,2.76c.71,.68,1.69,1.02,2.92,1.02Z" style="fill:#1d1d1b;"/><path d="M190.88,260.81l-1.21-1.96c1.62-.09,2.95-.32,3.97-.69,1.03-.37,1.78-.89,2.27-1.57s.74-1.53,.74-2.57v-2.82c-1.07,1.71-2.7,2.57-4.87,2.57-1.43,0-2.69-.39-3.76-1.17-1.07-.78-1.91-1.88-2.5-3.28-.6-1.41-.89-3.05-.89-4.93s.3-3.55,.9-4.95c.6-1.4,1.44-2.48,2.53-3.25,1.08-.76,2.37-1.15,3.85-1.15,.97,0,1.88,.2,2.72,.6s1.52,.95,2.02,1.65v-1.84h2.45v17.83c0,1.19-.17,2.24-.5,3.14-.33,.9-.84,1.67-1.52,2.28-.68,.62-1.54,1.1-2.57,1.44-1.03,.34-2.24,.56-3.63,.64Zm1.35-9.34c.88,0,1.71-.27,2.52-.81,.81-.54,1.44-1.26,1.91-2.14v-8.43c-.46-.82-1.09-1.48-1.9-1.98-.81-.5-1.64-.75-2.49-.75-1.66,0-2.93,.6-3.81,1.81-.88,1.21-1.32,2.96-1.32,5.24,0,1.42,.21,2.66,.64,3.72s1.02,1.88,1.79,2.47c.76,.59,1.65,.88,2.67,.88Z" style="fill:#1d1d1b;"/><path d="M211.8,253.78c-1.59,0-2.96-.39-4.1-1.18-1.15-.79-2.03-1.89-2.65-3.3-.62-1.41-.93-3.05-.93-4.9,0-1.97,.32-3.65,.97-5.05,.65-1.39,1.55-2.46,2.7-3.19,1.16-.74,2.49-1.1,4.01-1.1,1.32,0,2.51,.31,3.59,.93,1.07,.62,1.92,1.58,2.56,2.87,.63,1.29,.94,2.96,.94,4.99,0,.21,0,.45-.02,.71s-.03,.53-.05,.81h-12.16c.09,1.24,.35,2.32,.76,3.25,.41,.93,.99,1.66,1.73,2.19,.74,.53,1.65,.8,2.74,.8,.74,0,1.44-.13,2.12-.39,.68-.26,1.31-.67,1.89-1.22l1.43,1.65c-.65,.62-1.46,1.13-2.41,1.54s-1.99,.61-3.12,.61Zm-5.18-10.57h9.77c0-1.11-.17-2.12-.5-3.03-.33-.91-.84-1.63-1.52-2.17-.68-.54-1.54-.8-2.56-.8-1.39,0-2.57,.48-3.54,1.43-.97,.96-1.52,2.48-1.64,4.57Z" style="fill:#1d1d1b;"/><path d="M224.13,253.36v-17.88h2.45v2.83c.44-1.05,1.06-1.86,1.85-2.42,.79-.56,1.7-.84,2.74-.84s1.95,.29,2.62,.86l-.37,2.33c-.35-.25-.73-.43-1.15-.54-.41-.12-.86-.18-1.34-.18-.86,0-1.62,.25-2.28,.74s-1.16,1.17-1.53,2.04-.55,1.88-.55,3.04v10.03h-2.45Z" style="fill:#1d1d1b;"/><path d="M238.71,231.88c-.44,0-.82-.16-1.13-.47-.31-.31-.46-.69-.46-1.14,0-.47,.15-.86,.46-1.18,.31-.32,.69-.48,1.13-.48,.47,0,.85,.16,1.16,.48,.31,.32,.46,.71,.46,1.18s-.15,.82-.46,1.14c-.31,.32-.7,.47-1.16,.47Zm-1.21,21.47v-17.88h2.45v17.88h-2.45Z" style="fill:#1d1d1b;"/><path d="M252.83,253.78c-1.59,0-2.96-.39-4.1-1.18-1.15-.79-2.03-1.89-2.65-3.3-.62-1.41-.93-3.05-.93-4.9,0-1.97,.32-3.65,.97-5.05,.65-1.39,1.55-2.46,2.7-3.19,1.16-.74,2.49-1.1,4.01-1.1,1.32,0,2.51,.31,3.59,.93,1.07,.62,1.92,1.58,2.56,2.87,.63,1.29,.94,2.96,.94,4.99,0,.21,0,.45-.02,.71s-.03,.53-.05,.81h-12.16c.09,1.24,.35,2.32,.76,3.25,.41,.93,.99,1.66,1.73,2.19,.74,.53,1.65,.8,2.74,.8,.74,0,1.44-.13,2.12-.39,.68-.26,1.31-.67,1.89-1.22l1.43,1.65c-.65,.62-1.46,1.13-2.41,1.54s-1.99,.61-3.12,.61Zm-5.18-10.57h9.77c0-1.11-.17-2.12-.5-3.03-.33-.91-.84-1.63-1.52-2.17-.68-.54-1.54-.8-2.56-.8-1.39,0-2.57,.48-3.54,1.43-.97,.96-1.52,2.48-1.64,4.57Z" style="fill:#1d1d1b;"/><path d="M269.61,253.78c-1.19,0-2.33-.26-3.43-.77-1.1-.51-2.02-1.23-2.76-2.14l1.79-1.52c.64,.7,1.35,1.24,2.13,1.63,.78,.38,1.55,.58,2.31,.58,1.14,0,2.03-.23,2.65-.7,.62-.47,.94-1.12,.94-1.96,0-.52-.14-1-.43-1.43-.29-.43-.75-.84-1.39-1.22-.64-.38-1.49-.77-2.54-1.16-1.89-.7-3.25-1.47-4.08-2.3-.83-.83-1.24-1.87-1.24-3.11,0-1.38,.53-2.49,1.6-3.34s2.46-1.28,4.17-1.28c1.13,0,2.19,.22,3.18,.66s1.84,1.06,2.54,1.88l-1.72,1.44c-1.14-1.17-2.49-1.75-4.04-1.75-1.01,0-1.82,.21-2.41,.64s-.88,1.01-.88,1.76c0,.69,.3,1.28,.91,1.78,.61,.5,1.71,1.04,3.33,1.64,1.31,.49,2.36,1.01,3.15,1.55,.79,.54,1.37,1.16,1.72,1.85,.36,.69,.53,1.48,.53,2.38,0,1.53-.54,2.73-1.61,3.6s-2.55,1.31-4.43,1.31Z" style="fill:#1d1d1b;"/><path d="M294.95,253.78c-2.22,0-3.97-.84-5.26-2.53-1.29-1.69-1.93-3.97-1.93-6.85,0-1.94,.29-3.6,.88-5,.58-1.39,1.42-2.47,2.51-3.22,1.09-.75,2.39-1.13,3.89-1.13,1.86,0,3.42,.71,4.71,2.13v-7.93l2.45-1.17v25.27h-2.45v-1.79c-1.25,1.47-2.85,2.21-4.79,2.21Zm.37-2.31c.88,0,1.71-.25,2.5-.76,.79-.51,1.43-1.2,1.92-2.07v-8.58c-.53-.84-1.18-1.5-1.97-1.99s-1.61-.73-2.46-.73c-1.61,0-2.86,.61-3.74,1.83s-1.32,2.96-1.32,5.22c0,1.39,.22,2.61,.65,3.67s1.03,1.89,1.79,2.49,1.63,.9,2.62,.9Z" style="fill:#1d1d1b;"/><path d="M309.72,231.88c-.44,0-.82-.16-1.13-.47-.31-.31-.46-.69-.46-1.14,0-.47,.15-.86,.46-1.18,.31-.32,.69-.48,1.13-.48,.47,0,.85,.16,1.16,.48,.31,.32,.46,.71,.46,1.18s-.15,.82-.46,1.14c-.31,.32-.7,.47-1.16,.47Zm-1.21,21.47v-17.88h2.45v17.88h-2.45Z" style="fill:#1d1d1b;"/><path d="M317.27,253.36v-17.88h2.45v2.83c.44-1.05,1.06-1.86,1.85-2.42,.79-.56,1.7-.84,2.74-.84s1.95,.29,2.62,.86l-.37,2.33c-.35-.25-.73-.43-1.15-.54-.41-.12-.86-.18-1.34-.18-.86,0-1.62,.25-2.28,.74s-1.16,1.17-1.53,2.04-.55,1.88-.55,3.04v10.03h-2.45Z" style="fill:#1d1d1b;"/><path d="M336.5,253.78c-1.59,0-2.96-.39-4.1-1.18-1.15-.79-2.03-1.89-2.65-3.3-.62-1.41-.93-3.05-.93-4.9,0-1.97,.32-3.65,.97-5.05,.65-1.39,1.55-2.46,2.7-3.19,1.16-.74,2.49-1.1,4.01-1.1,1.32,0,2.51,.31,3.59,.93,1.07,.62,1.92,1.58,2.56,2.87,.63,1.29,.94,2.96,.94,4.99,0,.21,0,.45-.02,.71s-.03,.53-.05,.81h-12.16c.09,1.24,.35,2.32,.76,3.25,.41,.93,.99,1.66,1.73,2.19,.74,.53,1.65,.8,2.74,.8,.74,0,1.44-.13,2.12-.39,.68-.26,1.31-.67,1.89-1.22l1.43,1.65c-.65,.62-1.46,1.13-2.41,1.54s-1.99,.61-3.12,.61Zm-5.18-10.57h9.77c0-1.11-.17-2.12-.5-3.03-.33-.91-.84-1.63-1.52-2.17-.68-.54-1.54-.8-2.56-.8-1.39,0-2.57,.48-3.54,1.43-.97,.96-1.52,2.48-1.64,4.57Z" style="fill:#1d1d1b;"/><path d="M354.93,253.78c-1.47,0-2.74-.38-3.8-1.13-1.06-.75-1.88-1.83-2.44-3.22-.57-1.39-.85-3.06-.85-5s.29-3.62,.88-5.02c.58-1.4,1.42-2.48,2.5-3.23,1.08-.75,2.38-1.13,3.89-1.13s2.66,.35,3.68,1.04c1.02,.69,1.76,1.69,2.23,2.98l-2.33,.86c-.3-.83-.76-1.46-1.38-1.91-.62-.44-1.34-.67-2.17-.67-1.55,0-2.73,.6-3.54,1.8-.81,1.2-1.22,2.96-1.22,5.27s.4,3.94,1.21,5.17c.8,1.23,1.94,1.85,3.39,1.85,.96,0,1.78-.26,2.47-.77,.69-.51,1.17-1.21,1.43-2.1l2.31,.77c-.41,1.4-1.16,2.49-2.27,3.26-1.1,.78-2.44,1.16-4,1.16Z" style="fill:#1d1d1b;"/><path d="M370.47,253.78c-1.18,0-2.07-.36-2.69-1.08-.61-.72-.92-1.76-.92-3.12v-11.95h-2.96v-2.15h2.96v-6.2l2.45-1.19v7.38h4.44v2.15h-4.44v11.22c0,.93,.15,1.61,.46,2.02,.31,.42,.81,.62,1.5,.62,.84,0,1.72-.3,2.64-.91l-.28,2.42c-.47,.27-.97,.47-1.5,.59-.54,.13-1.09,.19-1.66,.19Z" style="fill:#1d1d1b;"/><path d="M385.01,253.78c-1.59,0-2.96-.39-4.1-1.18-1.15-.79-2.03-1.89-2.65-3.3-.62-1.41-.93-3.05-.93-4.9,0-1.97,.32-3.65,.97-5.05,.65-1.39,1.55-2.46,2.7-3.19,1.16-.74,2.49-1.1,4.01-1.1,1.32,0,2.51,.31,3.59,.93,1.07,.62,1.92,1.58,2.56,2.87,.63,1.29,.94,2.96,.94,4.99,0,.21,0,.45-.02,.71s-.03,.53-.05,.81h-12.16c.09,1.24,.35,2.32,.76,3.25,.41,.93,.99,1.66,1.73,2.19,.74,.53,1.65,.8,2.74,.8,.74,0,1.44-.13,2.12-.39,.68-.26,1.31-.67,1.89-1.22l1.43,1.65c-.65,.62-1.46,1.13-2.41,1.54s-1.99,.61-3.12,.61Zm-5.18-10.57h9.77c0-1.11-.17-2.12-.5-3.03-.33-.91-.84-1.63-1.52-2.17-.68-.54-1.54-.8-2.56-.8-1.39,0-2.57,.48-3.54,1.43-.97,.96-1.52,2.48-1.64,4.57Z" style="fill:#1d1d1b;"/><path d="M397.34,253.36v-17.88h2.45v2.1c.51-.82,1.18-1.44,2.01-1.87s1.76-.65,2.78-.65c1.13,0,2.12,.28,2.97,.84,.85,.56,1.47,1.35,1.88,2.36,.5-1,1.22-1.79,2.14-2.35,.93-.57,1.96-.85,3.11-.85,1.86,0,3.33,.57,4.43,1.72s1.65,2.7,1.65,4.66v11.92h-2.45v-10.97c0-1.66-.33-2.92-1-3.78-.67-.86-1.63-1.29-2.89-1.29-.83,0-1.55,.22-2.18,.65-.62,.43-1.11,1.04-1.46,1.81-.35,.78-.52,1.67-.52,2.69v10.9h-2.45v-10.97c0-1.67-.32-2.93-.96-3.79-.64-.86-1.6-1.29-2.87-1.29s-2.32,.46-3.06,1.37c-.75,.92-1.12,2.17-1.12,3.75v10.92h-2.45Z" style="fill:#1d1d1b;"/><path d="M433.97,253.78c-1.59,0-2.96-.39-4.1-1.18-1.15-.79-2.03-1.89-2.65-3.3-.62-1.41-.93-3.05-.93-4.9,0-1.97,.32-3.65,.97-5.05,.65-1.39,1.55-2.46,2.7-3.19,1.16-.74,2.49-1.1,4.01-1.1,1.32,0,2.51,.31,3.59,.93,1.07,.62,1.92,1.58,2.56,2.87,.63,1.29,.94,2.96,.94,4.99,0,.21,0,.45-.02,.71s-.03,.53-.05,.81h-12.16c.09,1.24,.35,2.32,.76,3.25,.41,.93,.99,1.66,1.73,2.19,.74,.53,1.65,.8,2.74,.8,.74,0,1.44-.13,2.12-.39,.68-.26,1.31-.67,1.89-1.22l1.43,1.65c-.65,.62-1.46,1.13-2.41,1.54s-1.99,.61-3.12,.61Zm-5.18-10.57h9.77c0-1.11-.17-2.12-.5-3.03-.33-.91-.84-1.63-1.52-2.17-.68-.54-1.54-.8-2.56-.8-1.39,0-2.57,.48-3.54,1.43-.97,.96-1.52,2.48-1.64,4.57Z" style="fill:#1d1d1b;"/><path d="M446.31,253.36v-17.88h2.45v2.29c.5-.88,1.17-1.55,2-2.01,.83-.47,1.78-.7,2.84-.7,2.09,0,3.64,.64,4.66,1.93s1.52,3.25,1.52,5.87v10.5h-2.45v-10.94c0-1.67-.35-2.94-1.05-3.81-.7-.87-1.71-1.3-3.04-1.3-1.47,0-2.58,.45-3.34,1.35-.76,.9-1.14,2.22-1.14,3.97v10.73h-2.45Z" style="fill:#1d1d1b;"/><path d="M470.05,253.78c-1.18,0-2.07-.36-2.69-1.08-.61-.72-.92-1.76-.92-3.12v-11.95h-2.96v-2.15h2.96v-6.2l2.45-1.19v7.38h4.44v2.15h-4.44v11.22c0,.93,.15,1.61,.46,2.02,.31,.42,.81,.62,1.5,.62,.84,0,1.72-.3,2.64-.91l-.28,2.42c-.47,.27-.97,.47-1.5,.59-.54,.13-1.09,.19-1.66,.19Z" style="fill:#1d1d1b;"/><path d="M141.71,298.78c-2.22,0-3.97-.84-5.26-2.53-1.29-1.69-1.93-3.97-1.93-6.85,0-1.94,.29-3.6,.88-5,.58-1.39,1.42-2.47,2.51-3.22,1.09-.75,2.39-1.13,3.89-1.13,1.86,0,3.42,.71,4.71,2.13v-7.93l2.45-1.17v25.27h-2.45v-1.79c-1.25,1.47-2.85,2.21-4.79,2.21Zm.37-2.31c.88,0,1.71-.25,2.5-.76,.79-.51,1.43-1.2,1.92-2.07v-8.58c-.53-.84-1.18-1.5-1.97-1.99s-1.61-.73-2.46-.73c-1.61,0-2.86,.61-3.74,1.83s-1.32,2.96-1.32,5.22c0,1.39,.22,2.61,.65,3.67s1.03,1.89,1.79,2.49,1.63,.9,2.62,.9Z" style="fill:#1d1d1b;"/><path d="M160.21,298.78c-1.89,0-3.37-.53-4.45-1.58-1.07-1.06-1.61-2.51-1.61-4.37,0-1.19,.27-2.22,.8-3.1,.53-.88,1.28-1.55,2.26-2.02,.97-.47,2.13-.71,3.46-.71,.88,0,1.71,.11,2.51,.33,.8,.22,1.57,.55,2.32,1v-1.71c0-1.52-.33-2.63-.99-3.34s-1.68-1.07-3.07-1.07c-.83,0-1.71,.15-2.63,.46-.93,.31-1.81,.74-2.63,1.3l-.72-2.07c.94-.59,1.96-1.05,3.06-1.37,1.1-.32,2.17-.48,3.22-.48,2.01,0,3.52,.52,4.55,1.57,1.03,1.05,1.54,2.6,1.54,4.64v12.09h-2.33v-2.03c-.71,.78-1.53,1.39-2.44,1.81s-1.86,.64-2.84,.64Zm.31-2.15c.9,0,1.77-.24,2.62-.71s1.63-1.15,2.35-2.04v-3.34c-.69-.44-1.43-.79-2.23-1.02-.8-.24-1.57-.36-2.32-.36-1.34,0-2.41,.34-3.21,1.01-.8,.67-1.2,1.57-1.2,2.69s.36,2.07,1.07,2.76c.71,.68,1.69,1.02,2.92,1.02Z" style="fill:#1d1d1b;"/><path d="M173.95,298.36v-17.88h2.45v2.29c.5-.88,1.17-1.55,2-2.01,.83-.47,1.78-.7,2.84-.7,2.09,0,3.64,.64,4.66,1.93s1.52,3.25,1.52,5.87v10.5h-2.45v-10.94c0-1.67-.35-2.94-1.05-3.81-.7-.87-1.71-1.3-3.04-1.3-1.47,0-2.58,.45-3.34,1.35-.76,.9-1.14,2.22-1.14,3.97v10.73h-2.45Z" style="fill:#1d1d1b;"/><path d="M198.6,298.78c-1.19,0-2.33-.26-3.43-.77-1.1-.51-2.02-1.23-2.76-2.14l1.79-1.52c.64,.7,1.35,1.24,2.13,1.63,.78,.38,1.55,.58,2.31,.58,1.14,0,2.03-.23,2.65-.7,.62-.47,.94-1.12,.94-1.96,0-.52-.14-1-.43-1.43-.29-.43-.75-.84-1.39-1.22-.64-.38-1.49-.77-2.54-1.16-1.89-.7-3.25-1.47-4.08-2.3-.83-.83-1.24-1.87-1.24-3.11,0-1.38,.53-2.49,1.6-3.34s2.46-1.28,4.17-1.28c1.13,0,2.19,.22,3.18,.66s1.84,1.06,2.54,1.88l-1.72,1.44c-1.14-1.17-2.49-1.75-4.04-1.75-1.01,0-1.82,.21-2.41,.64s-.88,1.01-.88,1.76c0,.69,.3,1.28,.91,1.78,.61,.5,1.71,1.04,3.33,1.64,1.31,.49,2.36,1.01,3.15,1.55,.79,.54,1.37,1.16,1.72,1.85,.36,.69,.53,1.48,.53,2.38,0,1.53-.54,2.73-1.61,3.6s-2.55,1.31-4.43,1.31Z" style="fill:#1d1d1b;"/><path d="M228.75,298.78l-7.17-16.89c-.15-.36-.31-.75-.47-1.15-.16-.41-.31-.79-.44-1.14,.02,.29,.04,.65,.05,1.08,.01,.43,.02,.83,.02,1.21v16.47h-2.45v-24.5h2.29l7.51,17.62c.12,.27,.23,.55,.34,.83,.11,.29,.22,.57,.32,.85,.1-.28,.21-.56,.32-.84,.11-.28,.22-.56,.34-.84l7.49-17.62h2.31v24.5h-2.45v-16.47c0-.37,0-.78,.02-1.22s.02-.8,.04-1.09c-.13,.34-.28,.72-.46,1.16s-.34,.83-.49,1.19l-7.12,16.85Z" style="fill:#1d1d1b;"/><path d="M249.88,298.78c-1.89,0-3.37-.53-4.45-1.58-1.07-1.06-1.61-2.51-1.61-4.37,0-1.19,.27-2.22,.8-3.1,.53-.88,1.28-1.55,2.26-2.02,.97-.47,2.13-.71,3.46-.71,.88,0,1.71,.11,2.51,.33,.8,.22,1.57,.55,2.32,1v-1.71c0-1.52-.33-2.63-.99-3.34s-1.68-1.07-3.07-1.07c-.83,0-1.71,.15-2.63,.46-.93,.31-1.81,.74-2.63,1.3l-.72-2.07c.94-.59,1.96-1.05,3.06-1.37,1.1-.32,2.17-.48,3.22-.48,2.01,0,3.52,.52,4.55,1.57,1.03,1.05,1.54,2.6,1.54,4.64v12.09h-2.33v-2.03c-.71,.78-1.53,1.39-2.44,1.81s-1.86,.64-2.84,.64Zm.31-2.15c.9,0,1.77-.24,2.62-.71s1.63-1.15,2.35-2.04v-3.34c-.69-.44-1.43-.79-2.23-1.02-.8-.24-1.57-.36-2.32-.36-1.34,0-2.41,.34-3.21,1.01-.8,.67-1.2,1.57-1.2,2.69s.36,2.07,1.07,2.76c.71,.68,1.69,1.02,2.92,1.02Z" style="fill:#1d1d1b;"/><path d="M264.45,276.88c-.44,0-.82-.16-1.13-.47-.31-.31-.46-.69-.46-1.14,0-.47,.15-.86,.46-1.18,.31-.32,.69-.48,1.13-.48,.47,0,.85,.16,1.16,.48,.31,.32,.46,.71,.46,1.18s-.15,.82-.46,1.14c-.31,.32-.7,.47-1.16,.47Zm-1.21,21.47v-17.88h2.45v17.88h-2.45Z" style="fill:#1d1d1b;"/><path d="M272.12,298.36v-24.1l2.45-1.17v25.27h-2.45Z" style="fill:#1d1d1b;"/><path d="M288.29,298.78c-1.37,0-2.6-.24-3.71-.71s-2.05-1.11-2.83-1.92c-.78-.81-1.35-1.72-1.72-2.72l2.36-.84c.53,1.16,1.31,2.09,2.34,2.8,1.04,.71,2.25,1.07,3.62,1.07,1.55,0,2.8-.39,3.74-1.16,.94-.77,1.41-1.89,1.41-3.36,0-.99-.27-1.84-.8-2.55-.54-.71-1.24-1.3-2.1-1.79-.86-.48-1.79-.91-2.77-1.27-.84-.32-1.68-.67-2.51-1.06-.83-.39-1.59-.85-2.28-1.38-.68-.53-1.23-1.17-1.64-1.93-.41-.76-.61-1.66-.61-2.7s.28-2.05,.85-2.93c.57-.88,1.39-1.58,2.46-2.11,1.07-.52,2.37-.79,3.9-.79,1.2,0,2.28,.18,3.22,.54,.94,.36,1.73,.86,2.36,1.51s1.07,1.38,1.33,2.2l-2.29,.77c-.33-.8-.9-1.46-1.71-1.97s-1.84-.76-3.09-.76c-1.4,0-2.5,.32-3.3,.95s-1.2,1.5-1.2,2.6c0,.85,.26,1.56,.79,2.13,.53,.57,1.21,1.06,2.06,1.47,.85,.41,1.74,.8,2.69,1.17,.83,.32,1.67,.68,2.51,1.1s1.62,.93,2.32,1.53c.7,.6,1.27,1.32,1.7,2.17,.43,.85,.65,1.86,.65,3.04,0,1.47-.34,2.71-1.01,3.74-.67,1.02-1.59,1.8-2.76,2.34-1.17,.54-2.5,.8-3.99,.8Z" style="fill:#1d1d1b;"/><path d="M301.68,305.46v-24.99h2.45v1.87c1.27-1.53,2.91-2.29,4.9-2.29,1.47,0,2.74,.38,3.82,1.14,1.07,.76,1.9,1.84,2.48,3.24,.58,1.4,.88,3.06,.88,4.97s-.29,3.59-.88,5c-.59,1.41-1.43,2.49-2.52,3.25-1.09,.76-2.38,1.14-3.88,1.14-1,0-1.91-.21-2.71-.64s-1.5-1.05-2.08-1.88v8.03l-2.45,1.17Zm7-9c1.61,0,2.85-.61,3.71-1.84,.86-1.22,1.29-2.97,1.29-5.23s-.45-3.89-1.36-5.15c-.9-1.27-2.12-1.9-3.65-1.9-.96,0-1.83,.24-2.62,.72-.79,.48-1.44,1.16-1.93,2.03v8.49c.62,.95,1.31,1.66,2.08,2.15,.77,.49,1.59,.74,2.47,.74Z" style="fill:#1d1d1b;"/><path d="M326.84,298.78c-1.89,0-3.37-.53-4.45-1.58-1.07-1.06-1.61-2.51-1.61-4.37,0-1.19,.27-2.22,.8-3.1,.53-.88,1.28-1.55,2.26-2.02,.97-.47,2.13-.71,3.46-.71,.88,0,1.71,.11,2.51,.33,.8,.22,1.57,.55,2.32,1v-1.71c0-1.52-.33-2.63-.99-3.34s-1.68-1.07-3.07-1.07c-.83,0-1.71,.15-2.63,.46-.93,.31-1.81,.74-2.63,1.3l-.72-2.07c.94-.59,1.96-1.05,3.06-1.37,1.1-.32,2.17-.48,3.22-.48,2.01,0,3.52,.52,4.55,1.57,1.03,1.05,1.54,2.6,1.54,4.64v12.09h-2.33v-2.03c-.71,.78-1.53,1.39-2.44,1.81s-1.86,.64-2.84,.64Zm.31-2.15c.9,0,1.77-.24,2.62-.71s1.63-1.15,2.35-2.04v-3.34c-.69-.44-1.43-.79-2.23-1.02-.8-.24-1.57-.36-2.32-.36-1.34,0-2.41,.34-3.21,1.01-.8,.67-1.2,1.57-1.2,2.69s.36,2.07,1.07,2.76c.71,.68,1.69,1.02,2.92,1.02Z" style="fill:#1d1d1b;"/><path d="M340.58,298.36v-17.88h2.45v2.29c.5-.88,1.17-1.55,2-2.01,.83-.47,1.78-.7,2.84-.7,2.09,0,3.64,.64,4.66,1.93s1.52,3.25,1.52,5.87v10.5h-2.45v-10.94c0-1.67-.35-2.94-1.05-3.81-.7-.87-1.71-1.3-3.04-1.3-1.47,0-2.58,.45-3.34,1.35-.76,.9-1.14,2.22-1.14,3.97v10.73h-2.45Z" style="fill:#1d1d1b;"/><path d="M360.65,303.29l-.79-.38c.25-.28,.49-.62,.74-1.03,.25-.41,.46-.87,.64-1.37,.17-.51,.27-1.04,.3-1.6-.56-.02-1.04-.21-1.43-.57s-.59-.8-.59-1.34c0-.61,.19-1.09,.57-1.46s.83-.55,1.34-.55c.56,0,1.06,.21,1.5,.62s.66,1.07,.66,1.97c0,.82-.13,1.59-.4,2.33s-.63,1.39-1.08,1.98c-.45,.58-.94,1.06-1.46,1.42Z" style="fill:#1d1d1b;"/></g></g></g></svg>