<?xml version="1.0" encoding="UTF-8"?><svg xmlns="http://www.w3.org/2000/svg" viewBox="0 0 454.24 108.39"><g id="a"/><g id="b"><g id="c"><g><path d="M177.05,37.28c-2.17,0-4.01-.42-5.51-1.26s-2.71-1.96-3.62-3.35-1.58-2.94-1.99-4.65c-.41-1.71-.62-3.43-.62-5.18,0-1.65,.21-3.33,.63-5.03s1.09-3.27,2.02-4.7c.93-1.43,2.14-2.58,3.63-3.45,1.49-.87,3.31-1.3,5.46-1.3,1.77,0,3.31,.3,4.62,.89s2.39,1.36,3.25,2.3c.86,.94,1.52,1.92,1.97,2.95l-4.64,2.16c-.45-.69-.92-1.29-1.4-1.79-.48-.5-1.02-.89-1.63-1.16-.61-.27-1.33-.41-2.17-.41-1.2,0-2.21,.29-3.02,.87s-1.47,1.34-1.96,2.29-.85,1.98-1.06,3.1c-.21,1.12-.32,2.21-.32,3.28,0,1.13,.12,2.26,.36,3.38,.24,1.12,.62,2.14,1.14,3.06,.52,.92,1.18,1.66,1.98,2.21,.8,.55,1.76,.83,2.88,.83,1.2,0,2.21-.34,3.03-1.01,.82-.67,1.55-1.54,2.19-2.59l4.74,1.78c-.6,1.29-1.35,2.45-2.26,3.48-.91,1.03-1.99,1.83-3.26,2.42-1.27,.59-2.75,.88-4.44,.88Z" style="fill:#3c885c;"/><path d="M191.57,36.84V8.84h12.74c2.33,0,4.18,.4,5.53,1.21s2.32,1.87,2.9,3.19c.58,1.32,.87,2.74,.87,4.26,0,1.05-.2,2.12-.61,3.2-.41,1.08-1.02,2.05-1.85,2.92-.83,.87-1.87,1.51-3.12,1.92l5.52,11.3h-5.82l-5.3-10.6h-5.68v10.6h-5.18Zm5.18-15.48h7.64c.97,0,1.74-.18,2.31-.55,.57-.37,.97-.84,1.21-1.43s.36-1.21,.36-1.86c0-.59-.11-1.17-.34-1.76s-.62-1.07-1.18-1.46-1.35-.58-2.36-.58h-7.64v7.64Z" style="fill:#3c885c;"/><path d="M219.15,36.84V8.84h18.92v4.92h-13.74v6.16h8.14v4.92h-8.14v7.04h14.58v4.96h-19.76Zm5.84-30.6l5.68-6.24h6.24l-7.12,6.24h-4.8Z" style="fill:#3c885c;"/><path d="M243.97,36.84V8.84h18.92v4.92h-13.74v6.16h8.14v4.92h-8.14v7.04h14.58v4.96h-19.76Z" style="fill:#3c885c;"/><path d="M267.53,36.84v-3.88l14.58-19.22h-13.7v-4.9h20.56v3.88l-14.68,19.22h14.68v4.9h-21.44Z" style="fill:#3c885c;"/><path d="M82.98,84.84l-9.94-28h5.6l6.26,18.54c.09,.28,.19,.57,.29,.87,.1,.3,.18,.58,.25,.83,.04-.23,.1-.49,.19-.79,.09-.3,.18-.6,.29-.91l6.22-18.54h5.54l-9.9,28h-4.8Z" style="fill:#3c885c;"/><path d="M112.8,85.32c-2.24,0-4.14-.42-5.7-1.27-1.56-.85-2.82-1.97-3.77-3.38-.95-1.41-1.65-2.96-2.09-4.67-.44-1.71-.66-3.43-.66-5.16s.22-3.45,.66-5.16c.44-1.71,1.14-3.26,2.09-4.67,.95-1.41,2.21-2.53,3.77-3.38,1.56-.85,3.46-1.27,5.7-1.27s4.14,.42,5.69,1.27c1.55,.85,2.81,1.97,3.76,3.38,.95,1.41,1.65,2.96,2.08,4.67,.43,1.71,.65,3.43,.65,5.16s-.22,3.45-.65,5.16c-.43,1.71-1.13,3.26-2.08,4.67-.95,1.41-2.21,2.53-3.76,3.38-1.55,.85-3.45,1.27-5.69,1.27Zm0-4.98c1.25,0,2.32-.29,3.19-.88,.87-.59,1.58-1.35,2.11-2.3,.53-.95,.92-1.98,1.16-3.09s.36-2.19,.36-3.23c0-1.12-.12-2.24-.35-3.37-.23-1.13-.61-2.15-1.14-3.08-.53-.93-1.23-1.67-2.1-2.24-.87-.57-1.95-.85-3.23-.85s-2.38,.29-3.25,.88c-.87,.59-1.57,1.36-2.1,2.31-.53,.95-.91,1.99-1.14,3.1s-.35,2.2-.35,3.25c0,1.11,.12,2.22,.35,3.34s.62,2.15,1.16,3.08c.54,.93,1.25,1.68,2.12,2.24,.87,.56,1.94,.84,3.21,.84Z" style="fill:#3c885c;"/><path d="M135.58,84.84v-23.02h-7.94v-4.98h21.1v4.98h-7.98v23.02h-5.18Z" style="fill:#3c885c;"/><path d="M153.46,84.84v-28h12.74c2.33,0,4.18,.4,5.53,1.21s2.32,1.87,2.9,3.19c.58,1.32,.87,2.74,.87,4.26,0,1.05-.2,2.12-.61,3.2-.41,1.08-1.02,2.05-1.85,2.92-.83,.87-1.87,1.51-3.12,1.92l5.52,11.3h-5.82l-5.3-10.6h-5.68v10.6h-5.18Zm5.18-15.48h7.64c.97,0,1.74-.18,2.31-.55,.57-.37,.97-.84,1.21-1.43s.36-1.21,.36-1.86c0-.59-.11-1.17-.34-1.76s-.62-1.07-1.18-1.46-1.35-.58-2.36-.58h-7.64v7.64Z" style="fill:#3c885c;"/><path d="M181.04,84.84v-28h18.92v4.92h-13.74v6.16h8.14v4.92h-8.14v7.04h14.58v4.96h-19.76Z" style="fill:#3c885c;"/><path d="M216,84.84v-28h18.92v4.92h-13.74v6.16h8.14v4.92h-8.14v7.04h14.58v4.96h-19.76Z" style="fill:#3c885c;"/><path d="M249.68,85.32c-1.75,0-3.33-.31-4.76-.92-1.43-.61-2.65-1.48-3.67-2.61-1.02-1.13-1.78-2.46-2.29-3.99l4.7-1.74c.6,1.28,1.44,2.33,2.51,3.15s2.28,1.23,3.63,1.23c1.43,0,2.56-.3,3.41-.9,.85-.6,1.27-1.47,1.27-2.62,0-.79-.25-1.44-.75-1.97-.5-.53-1.17-.98-2.02-1.36s-1.8-.75-2.87-1.11c-1.03-.35-2.06-.73-3.1-1.16s-1.99-.95-2.86-1.57c-.87-.62-1.56-1.4-2.09-2.35-.53-.95-.79-2.11-.79-3.48s.37-2.63,1.1-3.78c.73-1.15,1.8-2.06,3.19-2.75,1.39-.69,3.08-1.03,5.07-1.03,1.63,0,3.07,.28,4.33,.83,1.26,.55,2.3,1.3,3.13,2.25,.83,.95,1.4,2.02,1.72,3.22l-4.64,1.54c-.37-.84-.94-1.54-1.71-2.11s-1.8-.85-3.11-.85c-1.23,0-2.18,.24-2.86,.72-.68,.48-1.02,1.16-1.02,2.04,0,.6,.23,1.11,.69,1.53,.46,.42,1.08,.8,1.86,1.13,.78,.33,1.66,.67,2.65,1.02,1.11,.37,2.21,.8,3.31,1.27,1.1,.47,2.1,1.05,3,1.73,.9,.68,1.62,1.52,2.17,2.53s.82,2.24,.82,3.69c0,1.79-.44,3.31-1.33,4.56s-2.08,2.21-3.59,2.87-3.21,.99-5.1,.99Z" style="fill:#3c885c;"/><path d="M265.1,84.84v-28h11.82c2.36,0,4.23,.43,5.62,1.29s2.38,1.96,2.98,3.3c.6,1.34,.9,2.74,.9,4.19,0,1.01-.18,2.04-.53,3.07-.35,1.03-.91,1.98-1.66,2.84-.75,.86-1.73,1.55-2.94,2.08-1.21,.53-2.66,.79-4.37,.79h-6.64v10.44h-5.18Zm5.18-15.32h6.88c.96,0,1.73-.2,2.31-.59,.58-.39,1-.89,1.25-1.49,.25-.6,.38-1.21,.38-1.82,0-.56-.12-1.14-.35-1.75s-.64-1.12-1.21-1.53-1.37-.62-2.38-.62h-6.88v7.8Z" style="fill:#3c885c;"/><path d="M284.48,84.84l10.66-28h4.92l10.7,28h-5.58l-2.22-5.92h-10.7l-2.18,5.92h-5.6Zm9.46-10.66h7.3l-2.8-7.5c-.09-.23-.19-.48-.3-.76-.11-.28-.21-.56-.3-.85-.09-.29-.17-.54-.24-.75-.07,.21-.15,.46-.24,.75-.09,.29-.19,.57-.3,.85-.11,.28-.21,.53-.3,.76l-2.82,7.5Z" style="fill:#3c885c;"/><path d="M324.36,85.28c-2.17,0-4.01-.42-5.51-1.26s-2.71-1.96-3.62-3.35-1.58-2.94-1.99-4.65c-.41-1.71-.62-3.43-.62-5.18,0-1.65,.21-3.33,.63-5.03s1.09-3.27,2.02-4.7c.93-1.43,2.14-2.58,3.63-3.45,1.49-.87,3.31-1.3,5.46-1.3,1.77,0,3.31,.3,4.62,.89s2.39,1.36,3.25,2.3c.86,.94,1.52,1.92,1.97,2.95l-4.64,2.16c-.45-.69-.92-1.29-1.4-1.79-.48-.5-1.02-.89-1.63-1.16-.61-.27-1.33-.41-2.17-.41-1.2,0-2.21,.29-3.02,.87s-1.47,1.34-1.96,2.29-.85,1.98-1.06,3.1c-.21,1.12-.32,2.21-.32,3.28,0,1.13,.12,2.26,.36,3.38,.24,1.12,.62,2.14,1.14,3.06,.52,.92,1.18,1.66,1.98,2.21,.8,.55,1.76,.83,2.88,.83,1.2,0,2.21-.34,3.03-1.01,.82-.67,1.55-1.54,2.19-2.59l4.74,1.78c-.6,1.29-1.35,2.45-2.26,3.48-.91,1.03-1.99,1.83-3.26,2.42-1.27,.59-2.75,.88-4.44,.88Z" style="fill:#3c885c;"/><path d="M338.88,84.84v-28h18.92v4.92h-13.74v6.16h8.14v4.92h-8.14v7.04h14.58v4.96h-19.76Z" style="fill:#3c885c;"/><path d="M376.48,85.34c-.97,0-1.78-.33-2.41-.99-.63-.66-.95-1.44-.95-2.35s.32-1.75,.95-2.41c.63-.66,1.44-.99,2.41-.99s1.79,.33,2.45,.99,.99,1.46,.99,2.41-.33,1.69-.99,2.35-1.48,.99-2.45,.99Zm-1.36-8.22l-1.1-11.76v-9h4.98v9l-1.12,11.76h-2.76Z" style="fill:#3c885c;"/></g><line x1="75.76" y1="106.39" x2="379.84" y2="106.39" style="fill:none; stroke:#3c885c; stroke-miterlimit:10; stroke-width:4px;"/></g></g></svg>