<?xml version="1.0" encoding="UTF-8"?><svg xmlns="http://www.w3.org/2000/svg" viewBox="0 0 171.45 36.97"><g id="a"/><g id="b"><g id="c"><g><path d="M42.01,21.25V3.75h6.92c1.44,0,2.58,.26,3.42,.78,.84,.52,1.44,1.19,1.79,2.01,.36,.82,.54,1.66,.54,2.54,0,.62-.1,1.24-.31,1.86-.21,.62-.54,1.19-1,1.72-.46,.52-1.05,.95-1.78,1.26-.73,.32-1.61,.48-2.66,.48h-4.4v6.86h-2.52Zm2.52-9.22h4.55c.75,0,1.35-.15,1.79-.45,.45-.3,.76-.67,.96-1.12,.19-.45,.29-.91,.29-1.38,0-.42-.09-.86-.26-1.32-.17-.46-.48-.85-.92-1.17-.44-.32-1.06-.48-1.86-.48h-4.55v5.91Z" style="fill:#3c885c;"/><path d="M54.05,21.25L60.4,3.75h2.38l6.36,17.5h-2.64l-1.46-4.09h-6.86l-1.44,4.09h-2.69Zm4.9-6.35h5.28l-2.09-5.89c-.06-.16-.12-.34-.19-.54s-.13-.41-.2-.61-.12-.38-.15-.52c-.04,.15-.09,.32-.16,.52s-.13,.4-.19,.61-.13,.39-.19,.54l-2.11,5.89Z" style="fill:#3c885c;"/><path d="M77.31,21.55c-1.04,0-1.99-.18-2.83-.53-.85-.35-1.57-.84-2.16-1.47s-1.03-1.35-1.31-2.16l2.35-.86c.36,.78,.89,1.42,1.58,1.91,.7,.49,1.51,.73,2.43,.73,.99,0,1.79-.23,2.38-.69,.6-.46,.89-1.13,.89-2.01,0-.61-.18-1.12-.53-1.54-.35-.42-.82-.77-1.4-1.06-.58-.29-1.21-.55-1.88-.79-.62-.23-1.24-.47-1.86-.74-.62-.27-1.19-.6-1.7-.98-.51-.38-.92-.85-1.23-1.41s-.47-1.23-.47-2.03,.22-1.55,.66-2.22,1.07-1.22,1.89-1.62,1.82-.61,2.99-.61c.96,0,1.8,.15,2.53,.44s1.33,.7,1.81,1.21c.47,.51,.8,1.09,.99,1.74l-2.3,.76c-.22-.5-.59-.92-1.12-1.27-.53-.35-1.22-.53-2.07-.53s-1.55,.19-2.04,.56-.74,.89-.74,1.55c0,.48,.17,.89,.5,1.22,.33,.33,.77,.62,1.32,.87s1.14,.49,1.78,.72,1.28,.5,1.92,.79,1.23,.66,1.77,1.08c.54,.42,.97,.95,1.29,1.57,.33,.62,.49,1.37,.49,2.24,0,1.09-.26,2.02-.78,2.78s-1.23,1.34-2.12,1.74c-.89,.4-1.9,.6-3.03,.6Z" style="fill:#3c885c;"/><path d="M92.41,21.55c-1.04,0-1.99-.18-2.83-.53-.85-.35-1.57-.84-2.16-1.47s-1.03-1.35-1.31-2.16l2.35-.86c.36,.78,.89,1.42,1.58,1.91,.7,.49,1.51,.73,2.43,.73,.99,0,1.79-.23,2.38-.69,.6-.46,.89-1.13,.89-2.01,0-.61-.18-1.12-.53-1.54-.35-.42-.82-.77-1.4-1.06-.58-.29-1.21-.55-1.88-.79-.62-.23-1.24-.47-1.86-.74-.62-.27-1.19-.6-1.7-.98-.51-.38-.92-.85-1.23-1.41s-.47-1.23-.47-2.03,.22-1.55,.66-2.22,1.07-1.22,1.89-1.62,1.82-.61,2.99-.61c.96,0,1.8,.15,2.53,.44s1.33,.7,1.81,1.21c.47,.51,.8,1.09,.99,1.74l-2.3,.76c-.22-.5-.59-.92-1.12-1.27-.53-.35-1.22-.53-2.07-.53s-1.55,.19-2.04,.56-.74,.89-.74,1.55c0,.48,.17,.89,.5,1.22,.33,.33,.77,.62,1.32,.87s1.14,.49,1.78,.72,1.28,.5,1.92,.79,1.23,.66,1.77,1.08c.54,.42,.97,.95,1.29,1.57,.33,.62,.49,1.37,.49,2.24,0,1.09-.26,2.02-.78,2.78s-1.23,1.34-2.12,1.74c-.89,.4-1.9,.6-3.03,.6Z" style="fill:#3c885c;"/><path d="M102.21,21.25V3.75h10.88v2.39h-8.35v4.88h5.31v2.39h-5.31v5.44h8.89v2.41h-11.41Z" style="fill:#3c885c;"/><path d="M117.26,21.25V3.75h7.25c1.42,0,2.55,.25,3.36,.74,.82,.49,1.4,1.13,1.74,1.91,.35,.78,.52,1.61,.52,2.47,0,.67-.13,1.35-.4,2.03-.27,.67-.69,1.27-1.26,1.79-.57,.52-1.31,.89-2.22,1.11l3.65,7.45h-2.85l-3.5-7.21h-3.78v7.21h-2.52Zm2.52-9.58h4.78c.75,0,1.34-.13,1.78-.41,.44-.27,.75-.62,.94-1.04s.28-.86,.28-1.32c0-.42-.09-.84-.26-1.27-.17-.43-.48-.79-.91-1.09-.43-.3-1.04-.44-1.83-.44h-4.78v5.56Z" style="fill:#3c885c;"/></g></g></g></svg>