<?xml version="1.0" encoding="UTF-8"?><svg xmlns="http://www.w3.org/2000/svg" xmlns:xlink="http://www.w3.org/1999/xlink" viewBox="0 0 421.88 340.33"><defs><style>.t{fill:#1d1d1b;}.u{filter:url(#j);}.u,.v,.w,.x,.y,.a`,.aa,.ab{fill:#fffaf0;}.v{filter:url(#h);}.w{filter:url(#n);}.x{filter:url(#l);}.y{filter:url(#r);}.a`{filter:url(#p);}.aa{filter:url(#f);}.ab{filter:url(#d);}.ac{fill:none;stroke:#bef574;stroke-miterlimit:10;stroke-width:10px;}</style><filter id="d" filterUnits="userSpaceOnUse"><feOffset dx="8" dy="10"/><feGaussianBlur result="e" stdDeviation="0"/><feFlood flood-color="#000" flood-opacity=".06"/><feComposite in2="e" operator="in"/><feComposite in="SourceGraphic"/></filter><filter id="f" filterUnits="userSpaceOnUse"><feOffset dx="8" dy="10"/><feGaussianBlur result="g" stdDeviation="0"/><feFlood flood-color="#000" flood-opacity=".06"/><feComposite in2="g" operator="in"/><feComposite in="SourceGraphic"/></filter><filter id="h" filterUnits="userSpaceOnUse"><feOffset dx="8" dy="10"/><feGaussianBlur result="i" stdDeviation="0"/><feFlood flood-color="#000" flood-opacity=".06"/><feComposite in2="i" operator="in"/><feComposite in="SourceGraphic"/></filter><filter id="j" filterUnits="userSpaceOnUse"><feOffset dx="8" dy="10"/><feGaussianBlur result="k" stdDeviation="0"/><feFlood flood-color="#000" flood-opacity=".06"/><feComposite in2="k" operator="in"/><feComposite in="SourceGraphic"/></filter><filter id="l" filterUnits="userSpaceOnUse"><feOffset dx="8" dy="10"/><feGaussianBlur result="m" stdDeviation="0"/><feFlood flood-color="#000" flood-opacity=".06"/><feComposite in2="m" operator="in"/><feComposite in="SourceGraphic"/></filter><filter id="n" filterUnits="userSpaceOnUse"><feOffset dx="8" dy="10"/><feGaussianBlur result="o" stdDeviation="0"/><feFlood flood-color="#000" flood-opacity=".06"/><feComposite in2="o" operator="in"/><feComposite in="SourceGraphic"/></filter><filter id="p" filterUnits="userSpaceOnUse"><feOffset dx="8" dy="10"/><feGaussianBlur result="q" stdDeviation="0"/><feFlood flood-color="#000" flood-opacity=".06"/><feComposite in2="q" operator="in"/><feComposite in="SourceGraphic"/></filter><filter id="r" filterUnits="userSpaceOnUse"><feOffset dx="8" dy="10"/><feGaussianBlur result="s" stdDeviation="0"/><feFlood flood-color="#000" flood-opacity=".06"/><feComposite in2="s" operator="in"/><feComposite in="SourceGraphic"/></filter></defs><g id="a"/><g id="b"><g id="c"><rect x="0" y="3.28" width="87.71" height="87.71" rx="43.85" ry="43.85" style="fill:#fffaf0; filter:url(#d);"/><rect x="0" y="122.4" width="87.71" height="87.71" rx="43.85" ry="43.85" style="fill:#fffaf0; filter:url(#f);"/><g><rect x="245.64" y="275.72" width="26.61" height="26.61" rx="13.3" ry="13.3" style="fill:#fffaf0; filter:url(#h);"/><rect x="278.86" y="275.72" width="26.61" height="26.61" rx="13.3" ry="13.3" style="fill:#fffaf0; filter:url(#j);"/><rect x="311.65" y="275.72" width="26.61" height="26.61" rx="13.3" ry="13.3" style="fill:#fffaf0; filter:url(#l);"/></g><rect x="169.59" y="85.41" width="244.29" height="63.29" rx="31.65" ry="31.65" style="fill:#fffaf0; filter:url(#n);"/><rect x="169.59" y="189.62" width="244.29" height="63.29" rx="31.65" ry="31.65" style="fill:#fffaf0; filter:url(#p);"/><rect x="0" y="242.62" width="87.71" height="87.71" rx="43.85" ry="43.85" style="fill:#fffaf0; filter:url(#r);"/><polyline points="23.5 39.13 43.85 68.02 100.02 3.28" style="fill:none; stroke:#bef574; stroke-miterlimit:10; stroke-width:10px;"/><polyline points="23.5 277.37 43.85 306.26 100.02 241.51" style="fill:none; stroke:#bef574; stroke-miterlimit:10; stroke-width:10px;"/><g><path d="M219.03,125.97v-14h3.82c1.2,0,2.21,.2,3.04,.6,.83,.4,1.5,.94,2,1.61s.88,1.42,1.1,2.25c.23,.83,.35,1.68,.35,2.54,0,.81-.11,1.62-.32,2.44-.21,.82-.57,1.57-1.07,2.26-.5,.69-1.17,1.25-2.01,1.67s-1.91,.63-3.18,.63h-3.74Zm1.74-1.62h2.22c.87,0,1.6-.16,2.19-.47,.58-.32,1.05-.74,1.4-1.26,.35-.52,.6-1.1,.75-1.74,.15-.64,.23-1.27,.23-1.91,0-.68-.08-1.34-.25-1.99-.16-.64-.42-1.22-.77-1.73-.35-.51-.8-.92-1.34-1.23-.55-.3-1.21-.46-1.98-.46h-2.44v10.78Z" style="fill:#1d1d1b;"/><path d="M232.58,125.97v-14h8.32v1.64h-6.58v4.3h4.34v1.64h-4.34v4.76h7.02v1.66h-8.76Zm3.82-15.3l-3.56-3.12h2.48l2.84,3.12h-1.76Z" style="fill:#1d1d1b;"/><path d="M248.44,126.21c-.81,0-1.55-.13-2.21-.41-.66-.27-1.22-.64-1.67-1.11-.46-.47-.79-1-1-1.6l1.64-.6c.28,.62,.71,1.12,1.28,1.51,.57,.38,1.24,.57,2,.57,.84,0,1.51-.2,2.01-.6s.75-.99,.75-1.75c0-.54-.15-.99-.45-1.36-.3-.37-.69-.67-1.17-.92-.48-.25-.99-.47-1.54-.67-.49-.18-.97-.38-1.46-.6-.49-.22-.93-.48-1.33-.79-.4-.3-.71-.67-.95-1.11-.24-.44-.36-.96-.36-1.57s.17-1.2,.51-1.72,.83-.94,1.47-1.26c.64-.32,1.41-.48,2.32-.48,.74,0,1.39,.11,1.96,.33s1.03,.51,1.39,.89c.36,.38,.62,.81,.76,1.29l-1.6,.54c-.17-.39-.47-.73-.92-1s-1.01-.42-1.71-.42c-.74,0-1.32,.16-1.75,.49-.42,.33-.63,.78-.63,1.35,0,.43,.14,.79,.42,1.08s.66,.54,1.12,.75c.46,.21,.95,.42,1.48,.62,.49,.19,.99,.4,1.48,.64,.5,.24,.95,.52,1.37,.86s.75,.75,1,1.25c.25,.49,.38,1.08,.38,1.78,0,.86-.2,1.59-.6,2.19-.4,.6-.95,1.06-1.64,1.38-.69,.32-1.48,.48-2.36,.48Z" style="fill:#1d1d1b;"/><path d="M261.04,125.97v-14h5.52c1.12,0,2,.19,2.64,.58s1.1,.88,1.37,1.5c.27,.61,.41,1.25,.41,1.91,0,.55-.11,1.1-.33,1.63-.22,.54-.57,1.01-1.04,1.42-.48,.41-1.11,.69-1.89,.85l3,6.12h-1.96l-2.88-6h-3.1v6h-1.74Zm1.74-7.62h3.82c.65,0,1.17-.12,1.56-.35,.38-.23,.66-.53,.82-.89,.16-.36,.25-.73,.25-1.12,0-.35-.07-.7-.22-1.07s-.42-.68-.79-.94-.91-.38-1.6-.38h-3.82v4.76Z" style="fill:#1d1d1b;"/><path d="M274.34,125.97v-14h8.32v1.64h-6.58v4.3h4.34v1.64h-4.34v4.76h7.02v1.66h-8.76Zm3.14-15.3l2.84-3.12h2.48l-3.56,3.12h-1.76Z" style="fill:#1d1d1b;"/><path d="M290.92,126.21c-1.06,0-1.96-.21-2.7-.62s-1.34-.97-1.79-1.67-.79-1.47-1-2.33-.31-1.73-.31-2.62,.11-1.75,.32-2.61c.22-.86,.56-1.63,1.02-2.33,.46-.7,1.06-1.26,1.79-1.67,.74-.42,1.62-.62,2.67-.62,.86,0,1.59,.12,2.18,.37,.6,.25,1.08,.56,1.46,.95,.38,.38,.67,.79,.88,1.21l-1.56,.8c-.22-.33-.46-.62-.72-.88-.26-.26-.57-.46-.93-.61-.36-.15-.8-.22-1.31-.22-.75,0-1.38,.17-1.89,.51-.51,.34-.92,.79-1.23,1.34-.31,.55-.53,1.16-.67,1.82s-.21,1.31-.21,1.95c0,.69,.08,1.37,.23,2.04s.39,1.27,.72,1.8c.33,.54,.74,.96,1.25,1.28,.5,.32,1.1,.47,1.8,.47,.77,0,1.39-.17,1.86-.49,.47-.33,.86-.76,1.18-1.29l1.6,.6c-.24,.52-.57,.99-.98,1.42-.41,.43-.92,.77-1.53,1.02-.6,.25-1.31,.38-2.13,.38Z" style="fill:#1d1d1b;"/><path d="M298.47,125.97v-14h8.32v1.64h-6.58v4.3h4.34v1.64h-4.34v4.76h7.02v1.66h-8.76Z" style="fill:#1d1d1b;"/><path d="M310.33,125.97v-14h5.36c1.13,0,2.03,.21,2.69,.62s1.13,.94,1.41,1.58,.42,1.31,.42,2c0,.48-.08,.96-.25,1.46-.16,.49-.42,.94-.79,1.35-.36,.41-.83,.75-1.4,1s-1.27,.38-2.09,.38h-3.62v5.62h-1.74Zm1.74-7.24h3.74c.66,0,1.18-.13,1.57-.39,.39-.26,.67-.59,.83-.98,.17-.39,.25-.79,.25-1.19,0-.37-.07-.75-.22-1.15-.15-.4-.42-.74-.8-1.01s-.93-.42-1.63-.42h-3.74v5.14Z" style="fill:#1d1d1b;"/><path d="M325.67,125.97v-12.34h-3.9v-1.66h9.54v1.66h-3.9v12.34h-1.74Z" style="fill:#1d1d1b;"/><path d="M334.26,125.97v-14h1.74v14h-1.74Z" style="fill:#1d1d1b;"/><path d="M345.18,126.21c-1.1,0-2.03-.21-2.79-.63-.76-.42-1.37-.99-1.83-1.69s-.79-1.48-1-2.33-.31-1.71-.31-2.58,.1-1.73,.31-2.58,.54-1.63,1-2.33,1.07-1.27,1.83-1.69c.76-.42,1.69-.63,2.79-.63s2.04,.21,2.8,.63c.76,.42,1.37,.99,1.83,1.69s.79,1.48,1,2.33c.21,.85,.31,1.71,.31,2.58s-.1,1.73-.31,2.58c-.21,.85-.54,1.63-1,2.33s-1.07,1.27-1.83,1.69c-.76,.42-1.69,.63-2.8,.63Zm0-1.64c.77,0,1.42-.17,1.95-.51s.95-.79,1.28-1.34c.32-.56,.56-1.16,.7-1.82,.14-.66,.22-1.3,.22-1.92,0-.69-.07-1.36-.22-2.03-.14-.66-.38-1.27-.7-1.81-.32-.54-.75-.98-1.28-1.3s-1.18-.49-1.95-.49-1.41,.17-1.94,.51c-.53,.34-.95,.79-1.28,1.35s-.56,1.17-.71,1.82c-.15,.66-.22,1.31-.22,1.94,0,.69,.07,1.36,.22,2.03,.15,.66,.38,1.26,.71,1.8s.75,.97,1.28,1.29c.53,.32,1.17,.48,1.94,.48Z" style="fill:#1d1d1b;"/><path d="M354.35,125.97v-14h1.76l6.2,9.96c.1,.17,.2,.33,.29,.5s.19,.35,.29,.54c0-.17-.01-.35-.03-.52,0-.17-.01-.34-.01-.5v-9.98h1.74v14h-1.68l-6.3-10c-.09-.15-.18-.31-.27-.48-.1-.17-.19-.33-.29-.5,.01,.15,.02,.31,.03,.48,0,.17,0,.34,0,.5v10h-1.74Z" style="fill:#1d1d1b;"/></g><g><path d="M208.37,228.47v-12.34h-3.9v-1.66h9.54v1.66h-3.9v12.34h-1.74Z" style="fill:#1d1d1b;"/><path d="M221.47,228.71c-1.1,0-2.03-.21-2.79-.63-.76-.42-1.37-.99-1.83-1.69s-.79-1.48-1-2.33-.31-1.71-.31-2.58,.1-1.73,.31-2.58,.54-1.63,1-2.33,1.07-1.27,1.83-1.69c.76-.42,1.69-.63,2.79-.63s2.04,.21,2.8,.63c.76,.42,1.37,.99,1.83,1.69s.79,1.48,1,2.33c.21,.85,.31,1.71,.31,2.58s-.1,1.73-.31,2.58c-.21,.85-.54,1.63-1,2.33s-1.07,1.27-1.83,1.69c-.76,.42-1.69,.63-2.8,.63Zm0-1.64c.77,0,1.42-.17,1.95-.51s.95-.79,1.28-1.34c.32-.56,.56-1.16,.7-1.82,.14-.66,.22-1.3,.22-1.92,0-.69-.07-1.36-.22-2.03-.14-.66-.38-1.27-.7-1.81-.32-.54-.75-.98-1.28-1.3s-1.18-.49-1.95-.49-1.41,.17-1.94,.51c-.53,.34-.95,.79-1.28,1.35s-.56,1.17-.71,1.82c-.15,.66-.22,1.31-.22,1.94,0,.69,.07,1.36,.22,2.03,.15,.66,.38,1.26,.71,1.8s.75,.97,1.28,1.29c.53,.32,1.17,.48,1.94,.48Z" style="fill:#1d1d1b;"/><path d="M235.65,228.71c-1.15,0-2.09-.21-2.83-.64-.74-.43-1.29-1.05-1.65-1.87-.36-.82-.54-1.82-.54-2.99v-8.74h1.74v8.74c0,1.21,.26,2.16,.77,2.84s1.35,1.02,2.51,1.02c.74,0,1.36-.14,1.84-.42,.49-.28,.86-.71,1.1-1.28,.24-.57,.36-1.29,.36-2.15v-8.74h1.74v8.74c0,.91-.11,1.7-.32,2.39-.21,.69-.53,1.26-.95,1.73-.42,.46-.95,.81-1.58,1.04-.63,.23-1.36,.35-2.2,.35Z" style="fill:#1d1d1b;"/><path d="M248.59,228.71c-.81,0-1.55-.13-2.21-.41-.66-.27-1.22-.64-1.67-1.11-.46-.47-.79-1-1-1.6l1.64-.6c.28,.62,.71,1.12,1.28,1.51,.57,.38,1.24,.57,2,.57,.84,0,1.51-.2,2.01-.6s.75-.99,.75-1.75c0-.54-.15-.99-.45-1.36-.3-.37-.69-.67-1.17-.92-.48-.25-.99-.47-1.54-.67-.49-.18-.97-.38-1.46-.6-.49-.22-.93-.48-1.33-.79-.4-.3-.71-.67-.95-1.11-.24-.44-.36-.96-.36-1.57s.17-1.2,.51-1.72,.83-.94,1.47-1.26c.64-.32,1.41-.48,2.32-.48,.74,0,1.39,.11,1.96,.33s1.03,.51,1.39,.89c.36,.38,.62,.81,.76,1.29l-1.6,.54c-.17-.39-.47-.73-.92-1s-1.01-.42-1.71-.42c-.74,0-1.32,.16-1.75,.49-.42,.33-.63,.78-.63,1.35,0,.43,.14,.79,.42,1.08s.66,.54,1.12,.75c.46,.21,.95,.42,1.48,.62,.49,.19,.99,.4,1.48,.64,.5,.24,.95,.52,1.37,.86s.75,.75,1,1.25c.25,.49,.38,1.08,.38,1.78,0,.86-.2,1.59-.6,2.19-.4,.6-.95,1.06-1.64,1.38-.69,.32-1.48,.48-2.36,.48Z" style="fill:#1d1d1b;"/><path d="M261.18,228.47v-14h1.74v12.32h6.88v1.68h-8.62Z" style="fill:#1d1d1b;"/><path d="M272.36,228.47v-14h8.32v1.64h-6.58v4.3h4.34v1.64h-4.34v4.76h7.02v1.66h-8.76Z" style="fill:#1d1d1b;"/><path d="M288.23,228.71c-.81,0-1.55-.13-2.21-.41-.66-.27-1.22-.64-1.67-1.11-.46-.47-.79-1-1-1.6l1.64-.6c.28,.62,.71,1.12,1.28,1.51,.57,.38,1.24,.57,2,.57,.84,0,1.51-.2,2.01-.6s.75-.99,.75-1.75c0-.54-.15-.99-.45-1.36-.3-.37-.69-.67-1.17-.92-.48-.25-.99-.47-1.54-.67-.49-.18-.97-.38-1.46-.6-.49-.22-.93-.48-1.33-.79-.4-.3-.71-.67-.95-1.11-.24-.44-.36-.96-.36-1.57s.17-1.2,.51-1.72,.83-.94,1.47-1.26c.64-.32,1.41-.48,2.32-.48,.74,0,1.39,.11,1.96,.33s1.03,.51,1.39,.89c.36,.38,.62,.81,.76,1.29l-1.6,.54c-.17-.39-.47-.73-.92-1s-1.01-.42-1.71-.42c-.74,0-1.32,.16-1.75,.49-.42,.33-.63,.78-.63,1.35,0,.43,.14,.79,.42,1.08s.66,.54,1.12,.75c.46,.21,.95,.42,1.48,.62,.49,.19,.99,.4,1.48,.64,.5,.24,.95,.52,1.37,.86s.75,.75,1,1.25c.25,.49,.38,1.08,.38,1.78,0,.86-.2,1.59-.6,2.19-.4,.6-.95,1.06-1.64,1.38-.69,.32-1.48,.48-2.36,.48Z" style="fill:#1d1d1b;"/><path d="M304.69,228.71c-.75,0-1.43-.08-2.02-.24s-1.09-.35-1.5-.59-.73-.47-.96-.71l1.04-1.34c.26,.23,.54,.44,.86,.63,.31,.19,.67,.35,1.08,.47,.41,.12,.91,.18,1.48,.18,.67,0,1.26-.14,1.77-.42,.51-.28,.92-.66,1.21-1.13,.29-.47,.44-1,.44-1.59s-.12-1.1-.35-1.54c-.24-.44-.57-.79-1-1.04-.43-.25-.93-.38-1.5-.38-.66,0-1.23,.12-1.7,.34-.47,.23-.85,.5-1.12,.79l-1.72-.6,.82-7.08h7.48v1.62h-5.96l-.54,4.22c.36-.29,.8-.53,1.31-.7,.52-.17,1.06-.26,1.62-.26,.91,0,1.71,.2,2.38,.61,.67,.41,1.19,.95,1.56,1.63,.37,.68,.55,1.43,.55,2.26,0,.89-.21,1.7-.64,2.44-.43,.74-1.03,1.32-1.82,1.76-.78,.44-1.71,.66-2.76,.66Z" style="fill:#1d1d1b;"/><path d="M320.58,228.71c-1.01,0-1.84-.22-2.51-.66s-1.18-1.06-1.53-1.87l1.44-.74c.27,.54,.6,.94,.97,1.21,.38,.27,.93,.4,1.65,.4,.33,0,.66-.04,.97-.13s.6-.25,.86-.47c.26-.23,.46-.54,.61-.96,.15-.41,.23-.94,.23-1.58v-9.46h1.74v9.4c0,.97-.13,1.76-.4,2.39-.27,.63-.63,1.12-1.07,1.47-.44,.36-.92,.61-1.43,.75-.51,.15-1.02,.22-1.51,.22Z" style="fill:#1d1d1b;"/><path d="M334.2,228.71c-1.1,0-2.03-.21-2.79-.63-.76-.42-1.37-.99-1.83-1.69s-.79-1.48-1-2.33-.31-1.71-.31-2.58,.1-1.73,.31-2.58,.54-1.63,1-2.33,1.07-1.27,1.83-1.69c.76-.42,1.69-.63,2.79-.63s2.04,.21,2.8,.63c.76,.42,1.37,.99,1.83,1.69s.79,1.48,1,2.33c.21,.85,.31,1.71,.31,2.58s-.1,1.73-.31,2.58c-.21,.85-.54,1.63-1,2.33s-1.07,1.27-1.83,1.69c-.76,.42-1.69,.63-2.8,.63Zm0-1.64c.77,0,1.42-.17,1.95-.51s.95-.79,1.28-1.34c.32-.56,.56-1.16,.7-1.82,.14-.66,.22-1.3,.22-1.92,0-.69-.07-1.36-.22-2.03-.14-.66-.38-1.27-.7-1.81-.32-.54-.75-.98-1.28-1.3s-1.18-.49-1.95-.49-1.41,.17-1.94,.51c-.53,.34-.95,.79-1.28,1.35s-.56,1.17-.71,1.82c-.15,.66-.22,1.31-.22,1.94,0,.69,.07,1.36,.22,2.03,.15,.66,.38,1.26,.71,1.8s.75,.97,1.28,1.29c.53,.32,1.17,.48,1.94,.48Z" style="fill:#1d1d1b;"/><path d="M348.38,228.71c-1.15,0-2.09-.21-2.83-.64-.74-.43-1.29-1.05-1.65-1.87-.36-.82-.54-1.82-.54-2.99v-8.74h1.74v8.74c0,1.21,.26,2.16,.77,2.84s1.35,1.02,2.51,1.02c.74,0,1.36-.14,1.84-.42,.49-.28,.86-.71,1.1-1.28,.24-.57,.36-1.29,.36-2.15v-8.74h1.74v8.74c0,.91-.11,1.7-.32,2.39-.21,.69-.53,1.26-.95,1.73-.42,.46-.95,.81-1.58,1.04-.63,.23-1.36,.35-2.2,.35Z" style="fill:#1d1d1b;"/><path d="M357.24,228.47v-14h5.52c1.12,0,2,.19,2.64,.58s1.1,.88,1.37,1.5c.27,.61,.41,1.25,.41,1.91,0,.55-.11,1.1-.33,1.63-.22,.54-.57,1.01-1.04,1.42-.48,.41-1.11,.69-1.89,.85l3,6.12h-1.96l-2.88-6h-3.1v6h-1.74Zm1.74-7.62h3.82c.65,0,1.17-.12,1.56-.35,.38-.23,.66-.53,.82-.89,.16-.36,.25-.73,.25-1.12,0-.35-.07-.7-.22-1.07s-.42-.68-.79-.94-.91-.38-1.6-.38h-3.82v4.76Z" style="fill:#1d1d1b;"/><path d="M374.26,228.71c-.81,0-1.55-.13-2.21-.41-.66-.27-1.22-.64-1.67-1.11-.46-.47-.79-1-1-1.6l1.64-.6c.28,.62,.71,1.12,1.28,1.51,.57,.38,1.24,.57,2,.57,.84,0,1.51-.2,2.01-.6s.75-.99,.75-1.75c0-.54-.15-.99-.45-1.36-.3-.37-.69-.67-1.17-.92-.48-.25-.99-.47-1.54-.67-.49-.18-.97-.38-1.46-.6-.49-.22-.93-.48-1.33-.79-.4-.3-.71-.67-.95-1.11-.24-.44-.36-.96-.36-1.57s.17-1.2,.51-1.72,.83-.94,1.47-1.26c.64-.32,1.41-.48,2.32-.48,.74,0,1.39,.11,1.96,.33s1.03,.51,1.39,.89c.36,.38,.62,.81,.76,1.29l-1.6,.54c-.17-.39-.47-.73-.92-1s-1.01-.42-1.71-.42c-.74,0-1.32,.16-1.75,.49-.42,.33-.63,.78-.63,1.35,0,.43,.14,.79,.42,1.08s.66,.54,1.12,.75c.46,.21,.95,.42,1.48,.62,.49,.19,.99,.4,1.48,.64,.5,.24,.95,.52,1.37,.86s.75,.75,1,1.25c.25,.49,.38,1.08,.38,1.78,0,.86-.2,1.59-.6,2.19-.4,.6-.95,1.06-1.64,1.38-.69,.32-1.48,.48-2.36,.48Z" style="fill:#1d1d1b;"/></g></g></g></svg>