<svg xmlns="http://www.w3.org/2000/svg" viewBox="0 0 400.06 82.91"><defs><style>.cls-1{fill:#55b57e;}.cls-2{font-size:62.63px;fill:#1d1d1b;font-family:Quicksand-SemiBold, Quicksand;font-weight:600;}.cls-3{font-family:Quicksand-Regular, Quicksand;font-weight:400;}</style></defs><g id="Calque_2" data-name="Calque 2"><g id="Calque_1-2" data-name="Calque 1"><path class="cls-1" d="M96.16,8.71c1.15,13.73-2,22.22-9.09,33.71,2.9,2.86,7.66,4.82,11.13,6C110.72,23.72,95.72.47,94.77,0A51,51,0,0,1,96.16,8.71Z"/><path class="cls-1" d="M31.63,39.69C39.2,41.4,46,45.48,52.86,48.9,56,50.49,62.19,53,64.56,54a5.88,5.88,0,0,0,2.9.43A6.57,6.57,0,0,0,70.73,53C87,40.67,94,28.82,94.83,8.73a72.86,72.86,0,0,0,0-7.39c0,6.69-3.42,37.83-42.11,28.89C35.14,26.17,18.86,36.16,11.78,42.9A24.67,24.67,0,0,1,31.63,39.69Z"/><path class="cls-1" d="M85.38,45a59.11,59.11,0,0,1-13,13.65,8.36,8.36,0,0,1-8.35,1.11c-.75-.34-4.4-2.17-5.2-2.57-2.67-1.36-5.52-2.86-8.28-4.36-3.93,10.44-12.08,23.7-16.48,29.21C63.58,87.3,87.18,67.21,96.92,50.68,93.39,49.47,88.58,47.93,85.38,45Z"/><path class="cls-1" d="M47.46,51.15l-.73-.41a114.75,114.75,0,0,0-11.89-6.18c-10.38-4.55-20-3.3-27.78,3.69A37.41,37.41,0,0,0,0,65C10,73.22,19.6,78.23,28.7,80.8,32.28,76.38,43.57,61.93,47.46,51.15Z"/><text class="cls-2" transform="translate(132.77 66.46)">Mail<tspan class="cls-3" x="120.49" y="0">Span</tspan></text></g></g></svg>